<!DOCTYPE svg PUBLIC "-//W3C//DTD SVG 1.1//EN" "http://www.w3.org/Graphics/SVG/1.1/DTD/svg11.dtd" [
	<!ENTITY ns_flows "http://ns.adobe.com/Flows/1.0/">
]><svg xmlns="http://www.w3.org/2000/svg" width="1024" height="175" viewBox="0 0.073 1024 175"><path fill="#FFF" d="M29.664 10.376l.703.82v.587c0 .665-2.19.997-6.566.997h-6.565c-.234 0-.47.273-.703.82L17 24.33c-.157.977-.234 1.523-.234 1.64 1.407 23.647 2.11 40.59 2.11 50.828.156.273.234.49.234.645-.156.234-.234.43-.234.586l.234 1.406c-.234.548-.47.82-.703.82h-.937c-.157 0-.47-.272-.938-.82 0-.272.078-1.016.234-2.228 0-3.36-.704-20.245-2.11-50.65 0-4.964-.157-9.48-.47-13.543l-.468-.234h-.704l-7.504.645c-.47-.508-.704-1.114-.704-1.817 0-.234.313-.508.938-.82 1.094.273 1.72.41 1.876.41 3.01-.273 5.12-.41 6.332-.41h9.614c1.994-.002 4.025-.138 6.098-.412zM44.26.176h.47c.43.548 1.837 1.017 4.22 1.407 2.97 1.212 5.394 3.4 7.27 6.565 2.658 6.45 3.987 11.218 3.987 14.305v2.345c0 10.24-2.97 17.666-8.91 22.277 6.877 1.642 10.864 9.77 11.958 24.388v8.91c0 1.33.078 3.283.234 5.863l-.705.47h-.703L61.144 86c-.157-3.127-.235-5.472-.235-7.035v-8.442c0-5.862-1.8-11.88-5.394-18.056-2.502-2.347-4.69-3.52-6.566-3.52h-.235c.156 3.362.235 5.863.235 7.505v8.91c.312 7.74.47 12.116.47 13.133v.47c-.314.625-.783.937-1.408.937-.235 0-.626-.312-1.173-.938l.234-1.642c-.313-6.604-.47-10.982-.47-13.132v-14.07c-.664 0-1.133-.312-1.406-.938v-.703c.312-.625.703-.938 1.172-.938-.782-21.456-1.798-37.01-3.048-46.665l.94-.704zm1.877 3.283c.938 11.41 1.797 25.56 2.58 42.442 6.096-4.142 9.145-10.787 9.145-19.932v-3.283c0-4.104-1.72-9.34-5.16-15.712-2.58-2.345-4.533-3.517-5.862-3.517h-.703zM100.833 9.79h.47c.234 0 .546.313.937.938v.235c-1.25 11.178-2.58 22.12-3.986 32.83l.234 1.406v.702c-.547 0-1.407 7.738-2.58 23.216-.468 7.738-1.016 13.522-1.64 17.353l-.47.235h-.703c-.313-.078-.626-.47-.938-1.173 1.72-20.596 2.97-34.04 3.752-40.333-4.222-9.185-9.772-18.41-16.65-27.672-1.25-.898-1.876-1.76-1.876-2.58v-.47c0-.233.313-.546.938-.937h.938c.507.197.977.98 1.407 2.346 6.253 7.738 11.412 15.946 15.477 24.622h.234c1.72-14.89 2.97-24.974 3.752-30.25l.703-.468zM159.165 7.504l.703.88v.41c0 .195-.39.566-1.172 1.113h-2.345c-4.142 0-6.956 1.544-8.44 4.63-1.252 3.4-1.877 7.193-1.877 11.375 0 2.58 1.094 6.762 3.283 12.545.78 1.563 5.002 5.804 12.663 12.722 3.907 5.627 5.86 11.177 5.86 16.648 0 4.338-.937 8.58-2.813 12.722-.86 1.954-3.205 3.635-7.035 5.04-1.368.744-2.462 1.115-3.283 1.115s-1.37-.293-1.643-.88v-.645c0-.43.86-.723 2.58-.88 5.16-1.953 7.738-4.005 7.738-6.155 1.407-2.813 2.11-6.468 2.11-10.962 0-5.9-2.658-11.686-7.973-17.354-4.183-3.166-7.31-6.234-9.38-9.205-1.407-1.523-2.814-5.55-4.22-12.076 0-.782-.08-1.798-.235-3.05 0-5.002.938-9.457 2.814-13.366 2.15-3.086 6.372-4.63 12.665-4.63zM189.473 5.862l.47.234c.154 0 .233-.078.233-.234 5.002.47 7.504 1.017 7.504 1.642v.234c-.274.782-.665 1.172-1.172 1.172l-6.8-.703c-.43 0-1.994.08-4.69.234l.234 2.815c0 2.54.39 12.858 1.172 30.953h1.642c1.29 0 2.305-.077 3.048-.234 3.518.313 6.097.47 7.738.47l.704.937v.704c0 .47-.313.704-.938.704-1.37 0-3.635-.156-6.8-.47-2.11.157-3.91.235-5.394.235v.938c0 11.022.547 23.764 1.642 38.224.155 0 .234.08.234.235 5.9-.314 9.418-.47 10.552-.47.664.195 1.133.586 1.407 1.172v.234c0 .234-.314.548-.94.938-5.94.156-9.536.313-10.786.47-1.876 0-2.814-1.017-2.814-3.05-1.095-14.93-1.642-27.357-1.642-37.285v-7.505c-.782-13.756-1.172-23.06-1.172-27.905-.47-2.345-.704-3.595-.704-3.752l.938-.703h2.58c.9.002 2.15-.076 3.753-.233zM221.716 6.683h.235c2.23 1.017 4.124 3.772 5.688 8.267 4.338 13.445 7.542 30.622 9.614 51.53 1.368 6.8 2.052 12.76 2.052 17.88-.196.51-.724.763-1.583.763-.625-1.21-1.563-7.425-2.813-18.643-.352-1.21-1.134-6.39-2.345-15.535l-1.817-.234c-8.442.783-12.663 1.643-12.663 2.58v9.087l-1.583 21.75c.35.548.526 1.055.526 1.523 0 .274-.352.626-1.055 1.056-1.367 0-2.05-.86-2.05-2.58 1.21-16.492 1.816-26.42 1.816-29.78-.157-2.15-.234-4.318-.234-6.508.078-11.256 1.016-23.156 2.814-35.702.742-3.636 1.876-5.453 3.4-5.453zm0 3.107c-2.267 8.755-3.4 20.07-3.4 33.943-.157 0-.234 1.896-.234 5.687v.763c4.924-1.368 9.673-2.053 14.246-2.053v-.293c0-4.768-2.6-16.063-7.797-33.885-1.134-2.462-2.072-3.848-2.814-4.162zM257.77.176h.47c.43.548 1.837 1.017 4.22 1.407 2.97 1.212 5.394 3.4 7.27 6.565 2.658 6.45 3.987 11.218 3.987 14.305v2.345c0 10.24-2.97 17.666-8.91 22.277 6.877 1.642 10.864 9.77 11.958 24.388v8.91c0 1.33.078 3.283.234 5.863l-.705.47h-.703l-.938-.704c-.157-3.127-.235-5.472-.235-7.035v-8.442c0-5.862-1.8-11.88-5.394-18.056-2.502-2.347-4.69-3.52-6.566-3.52h-.235c.156 3.362.235 5.863.235 7.505v8.91c.312 7.74.47 12.116.47 13.133v.47c-.314.625-.783.937-1.408.937-.235 0-.626-.312-1.173-.938l.234-1.642c-.313-6.604-.47-10.982-.47-13.132v-14.07c-.664 0-1.133-.312-1.406-.938v-.703c.312-.625.703-.938 1.172-.938-.782-21.456-1.798-37.01-3.048-46.665l.94-.704zm1.876 3.283c.938 11.41 1.797 25.56 2.58 42.442 6.096-4.142 9.145-10.787 9.145-19.932v-3.283c0-4.104-1.72-9.34-5.158-15.712-2.58-2.345-4.534-3.517-5.863-3.517h-.704zM304.318 7.21h1.642c2.814.51 4.22 1.524 4.22 3.05 0 .233-.312.547-.937.937h-.938c-1.017-1.25-2.11-1.876-3.283-1.876-3.91 1.37-5.862 2.62-5.862 3.753-3.127 5.94-4.69 14.07-4.69 24.388v3.987c0 6.957.938 15.32 2.814 25.09 1.133 7.153 2.697 12 4.69 14.54 2.423 2.11 4.533 3.205 6.33 3.283 2.307 0 4.81-1.72 7.505-5.16h.703c.234 0 .47.235.704.704v.47c0 1.406-1.72 3.205-5.16 5.393-1.445.626-2.774.938-3.985.938h-.234c-2.307-.273-4.73-1.524-7.27-3.752-2.775-2.188-5.198-11.1-7.27-26.732-.782-3.36-1.172-8.91-1.172-16.648v-1.407c.273-15.828 2.853-25.6 7.738-29.313 2.304-1.094 3.79-1.64 4.454-1.64zM346.176 0h.47c.624.313.937.703.937 1.172 0 7.35-.157 13.055-.47 17.118l.47 24.39c.312.507.47.898.47 1.17-.158.47-.314.705-.47.705.312 7.31.546 20.05.703 38.223-.157.82-.234 2.384-.234 4.69l-.704.47h-.703l-.938-.705c0-1.68.078-3.01.234-3.986-.156-21.378-.39-34.197-.703-38.457-7.348.156-11.49.39-12.428.703.31 2.893.468 5.784.468 8.677 0 6.214-.08 11.686-.234 16.414.156 2.658.234 7.817.234 15.478-.508.313-.977.47-1.407.47-.233 0-.547-.314-.937-.94v-2.11c0-6.368-.08-10.668-.234-12.896.154-3.83.233-8.52.233-14.07V53c-.47-7.66-.704-12.977-.704-15.947.468-17.43.703-28.53.703-33.298-.157-.625-.234-1.173-.234-1.642l.937-.704h.47c.78.47 1.17 1.094 1.17 1.875 0 2.894-.233 14.618-.702 35.175v4.222l.234.47c1.015-.314 5.158-.548 12.427-.705-.157-5.666-.234-9.73-.234-12.193v-10.79c0-.353-.08-.665-.234-.94l.233-.47c.156-7.503.234-13.286.234-17.352l.94-.702zM369.39 6.976h.47c1.094 0 1.642 4.144 1.642 12.43v3.048c0 3.048-.47 10.943-1.407 23.684 0 .626.078 1.252.234 1.876-.157 8.17-.235 14.656-.235 19.464V82.72c0 .313.156 1.095.47 2.345-.197 1.095-.51 1.642-.94 1.642h-.937c-.626 0-.938-2.11-.938-6.33 0-27.124.47-45.807 1.407-56.046v-6.565c0-3.635-.234-6.917-.704-9.85 0-.235.313-.548.938-.94zM390.378 5.745c.86 0 4.397 10.65 10.61 31.95.9 5.042 4.69 17.704 11.374 37.988h.645V73.69c-.9-18.994-1.348-29.664-1.348-32.01 0-.702.096-3.086.292-7.15-.04-.47-.06-1.388-.06-2.756.314-3.087.47-5.55.47-7.387V7.737c.117-.897.547-1.348 1.29-1.348l1.348.704c-.43 8.872-.645 15.535-.645 19.99v6.625c0 13.6.43 31.148 1.29 52.644l-1.29.645c-.9 0-6.45-17.314-16.65-51.942l-6.155-21.163-.47-.762-.058 1.29c.273 3.282.41 5.862.41 7.738l.06 1.994c-.314 8.676-.47 14.754-.47 18.23 0 17.51.664 31.933 1.993 43.266h-1.348c-.86 0-1.29-.43-1.29-1.29-.9-13.64-1.348-25.853-1.348-36.64V7.094c.156-.9.606-1.35 1.348-1.35zM441.558 9.79h.47c2.968 0 5.313 1.095 7.034 3.283v.47c0 .233-.313.547-.938.937-.313 0-1.33-.547-3.048-1.64-1.017-.47-2.11-.705-3.283-.705h-.938c-4.69 1.134-7.035 14.5-7.035 40.1 0 12.076 1.407 21.3 4.22 27.67.9 1.876 2.698 3.362 5.395 4.456h.938c2.814-.546 4.22-1.72 4.22-3.517.547 0 1.33-4.69 2.346-14.07v-11.49l-.235-1.172c-.157 0-.234.08-.234.235-6.253-.47-9.38-.938-9.38-1.407l-.234-1.173v-.235c0-.234.235-.47.704-.703h.704c.507.39 3.87.86 10.083 1.407.625.625.938 2.11.938 4.455v5.86c0 .9-.08 2.15-.235 3.753.156.313.235.548.235.703-1.056 12.35-2.854 18.525-5.394 18.525 0 .314-1.17.705-3.517 1.174h-.938c-2.54-.586-4.807-2.07-6.8-4.455-3.44-6.528-5.16-16.61-5.16-30.252 0-25.755 2.58-39.747 7.74-41.975l2.343-.233zM514.838 7.504l.704.88v.41c0 .195-.392.566-1.173 1.113h-2.346c-4.143 0-6.957 1.544-8.442 4.63-1.25 3.4-1.876 7.193-1.876 11.375 0 2.58 1.094 6.762 3.283 12.545.78 1.563 5 5.804 12.662 12.722 3.907 5.627 5.862 11.177 5.862 16.648 0 4.338-.938 8.58-2.814 12.722-.86 1.954-3.205 3.635-7.034 5.04-1.37.744-2.462 1.115-3.283 1.115s-1.37-.293-1.642-.88v-.645c0-.43.86-.723 2.58-.88 5.16-1.953 7.74-4.005 7.74-6.155 1.406-2.813 2.11-6.468 2.11-10.962 0-5.9-2.658-11.686-7.974-17.354-4.182-3.166-7.31-6.234-9.38-9.205-1.406-1.523-2.813-5.55-4.22-12.076 0-.782-.08-1.798-.234-3.05 0-5.002.938-9.457 2.814-13.366 2.148-3.086 6.37-4.63 12.662-4.63zM546.085 6.272c4.416 0 7.933 10.553 10.552 31.657.156 1.992.234 4.57.234 7.737v.938c0 .548-.077 1.25-.233 2.11.156.195.234.742.234 1.642v.234c0 .9-.077 1.447-.233 1.643.156.82.234 1.29.234 1.406 0 16.493-2.266 26.654-6.8 30.484-1.603.625-2.696.938-3.282.938h-1.642c-5.628-1.367-9.146-8.637-10.553-21.81l-.703-9.613c0-22.004 2.735-37.246 8.207-45.728 1.447-1.092 2.776-1.64 3.988-1.64zm-9.85 46.666c0 8.833 1.173 16.57 3.518 23.215 2.188 4.378 4.143 6.566 5.862 6.566h.234c3.165 0 5.197-2.19 6.097-6.567 1.72-4.063 2.58-12.74 2.58-26.03v-4.688c0-9.184-1.643-19.736-4.926-31.657-1.17-2.618-2.344-4.338-3.516-5.16-1.838.705-2.932 1.564-3.283 2.58-4.376 9.262-6.565 23.176-6.565 41.74zM572.056 5.452c.938.313 5.96 12.838 15.066 37.578h.645c0-1.68 3.87-13.757 11.607-36.23h.704l.586 1.114.06 2.345c-.432 13.99-.646 25.814-.646 35.467 0 3.714.684 17.14 2.052 40.275l-1.407.703c-.9 0-1.798-12.74-2.696-38.223V19.814h-.704c-5.667 17.627-8.852 26.714-9.556 27.26-1.368-.077-5.687-10.317-12.956-30.72h-.702v.705l3.4 67.593-1.35.703c-.898 0-1.348-.47-1.348-1.406-1.368-40.88-2.735-66.813-4.104-77.795l1.35-.703zM624.113 5.862l.47.234c.155 0 .233-.078.233-.234 5.003.47 7.504 1.017 7.504 1.642v.234c-.273.782-.665 1.172-1.172 1.172l-6.8-.703c-.432 0-1.994.08-4.69.234l.234 2.815c0 2.54.39 12.858 1.172 30.953h1.642c1.29 0 2.306-.077 3.05-.234 3.517.313 6.096.47 7.737.47l.703.937v.704c0 .47-.313.704-.938.704-1.368 0-3.635-.156-6.8-.47-2.11.157-3.91.235-5.395.235v.938c0 11.022.547 23.764 1.642 38.224.156 0 .234.08.234.235 5.9-.314 9.418-.47 10.552-.47.664.195 1.133.586 1.407 1.172v.234c0 .234-.314.548-.94.938-5.94.156-9.535.313-10.785.47-1.876 0-2.814-1.017-2.814-3.05-1.094-14.93-1.64-27.357-1.64-37.285v-7.505c-.783-13.756-1.173-23.06-1.173-27.905-.47-2.345-.704-3.595-.704-3.752l.938-.703h2.58c.9.002 2.15-.076 3.753-.233zM670.603 10.376l.703.82v.587c0 .665-2.19.997-6.565.997h-6.565c-.234 0-.47.273-.703.82l.47 10.73c-.157.977-.235 1.523-.235 1.64 1.407 23.647 2.11 40.59 2.11 50.828.156.273.234.49.234.645-.155.234-.233.43-.233.586l.234 1.406c-.233.548-.468.82-.702.82h-.938c-.156 0-.47-.272-.938-.82 0-.272.078-1.016.234-2.228 0-3.36-.703-20.245-2.11-50.65 0-4.964-.157-9.48-.47-13.543l-.47-.234h-.702l-7.504.646c-.47-.508-.703-1.114-.703-1.817 0-.235.312-.51.938-.822 1.094.274 1.72.41 1.876.41 3.01-.272 5.12-.41 6.332-.41h9.615c1.992-.002 4.023-.138 6.096-.412zM701.44 0h.468c.625.313.938.703.938 1.172 0 7.35-.157 13.055-.47 17.118l.47 24.39c.313.507.47.898.47 1.17-.157.47-.314.705-.47.705.313 7.31.547 20.05.703 38.223-.157.82-.235 2.384-.235 4.69l-.703.47h-.704l-.938-.705c0-1.68.077-3.01.234-3.986-.157-21.378-.392-34.197-.703-38.457-7.348.156-11.49.39-12.428.703.313 2.893.47 5.784.47 8.677 0 6.214-.08 11.686-.235 16.414.155 2.658.234 7.817.234 15.478-.507.313-.977.47-1.406.47-.234 0-.548-.314-.938-.94v-2.11c0-6.368-.08-10.668-.234-12.896.155-3.83.234-8.52.234-14.07V53c-.47-7.66-.703-12.977-.703-15.947.47-17.43.703-28.53.703-33.298-.157-.625-.234-1.173-.234-1.642l.938-.704h.47c.78.47 1.172 1.094 1.172 1.875 0 2.894-.234 14.618-.703 35.175v4.222l.233.47c1.016-.314 5.16-.548 12.43-.705-.158-5.666-.236-9.73-.236-12.193v-10.79c0-.353-.078-.665-.234-.94l.234-.47c.156-7.503.235-13.286.235-17.352L701.44 0zM724.654 6.976h.47c1.093 0 1.64 4.144 1.64 12.43v3.048c0 3.048-.468 10.943-1.406 23.684 0 .626.078 1.252.234 1.876-.156 8.17-.234 14.656-.234 19.464V82.72c0 .313.155 1.095.47 2.345-.196 1.095-.51 1.642-.94 1.642h-.937c-.624 0-.937-2.11-.937-6.33 0-27.124.47-45.807 1.407-56.046v-6.565c0-3.635-.235-6.917-.704-9.85 0-.235.312-.548.938-.94zM745.643 5.745c.858 0 4.396 10.65 10.61 31.95.898 5.042 4.69 17.704 11.373 37.988h.646V73.69c-.9-18.994-1.35-29.664-1.35-32.01 0-.702.098-3.086.294-7.15-.04-.47-.06-1.388-.06-2.756.314-3.087.47-5.55.47-7.387V7.737c.117-.897.547-1.348 1.29-1.348l1.35.703c-.432 8.872-.647 15.535-.647 19.99v6.625c0 13.6.43 31.15 1.29 52.645l-1.29.645c-.9 0-6.45-17.313-16.65-51.94l-6.155-21.164-.47-.762-.058 1.29c.272 3.282.41 5.862.41 7.738l.06 1.993c-.314 8.676-.47 14.754-.47 18.23 0 17.51.664 31.933 1.993 43.266h-1.35c-.858 0-1.288-.43-1.288-1.29-.9-13.64-1.35-25.854-1.35-36.64V7.093c.157-.9.607-1.35 1.35-1.35zM796.82 9.79h.47c2.97 0 5.314 1.095 7.035 3.283v.47c0 .233-.313.547-.938.937-.313 0-1.33-.547-3.05-1.64-1.016-.47-2.11-.705-3.28-.705h-.94c-4.688 1.134-7.034 14.5-7.034 40.1 0 12.076 1.407 21.3 4.222 27.67.898 1.876 2.696 3.362 5.394 4.456h.937c2.814-.546 4.22-1.72 4.22-3.517.548 0 1.33-4.69 2.347-14.07v-11.49l-.235-1.172c-.157 0-.235.08-.235.235-6.253-.47-9.38-.938-9.38-1.407l-.234-1.173v-.235c0-.234.235-.47.705-.703h.703c.508.39 3.87.86 10.083 1.407.626.625.94 2.11.94 4.455v5.86c0 .9-.08 2.15-.235 3.753.155.313.234.548.234.703-1.057 12.35-2.855 18.525-5.395 18.525 0 .314-1.173.705-3.518 1.174h-.938c-2.542-.586-4.81-2.07-6.802-4.455-3.44-6.528-5.16-16.61-5.16-30.252 0-25.755 2.58-39.747 7.74-41.975l2.343-.233zM866.7 5.862l.47.234c.156 0 .234-.078.234-.234 5.003.47 7.504 1.017 7.504 1.642v.234c-.273.782-.665 1.172-1.172 1.172l-6.8-.703c-.432 0-1.994.08-4.69.234l.234 2.815c0 2.54.39 12.858 1.172 30.953h1.642c1.29 0 2.306-.077 3.05-.234 3.517.313 6.096.47 7.737.47l.704.937v.704c0 .47-.313.704-.938.704-1.368 0-3.635-.156-6.8-.47-2.11.157-3.91.235-5.395.235v.938c0 11.022.548 23.764 1.643 38.224.156 0 .234.08.234.235 5.9-.314 9.42-.47 10.553-.47.664.195 1.133.586 1.407 1.172v.234c0 .234-.313.548-.938.938-5.942.156-9.537.313-10.787.47-1.876 0-2.814-1.017-2.814-3.05-1.096-14.93-1.643-27.357-1.643-37.285v-7.505c-.782-13.756-1.172-23.06-1.172-27.905-.47-2.345-.704-3.595-.704-3.752l.94-.703h2.578c.9.002 2.15-.076 3.753-.233zM893.2 2.52h.233c.234 0 .547.314.938.94 0 .78-.156 1.17-.468 1.17l.234.47c1.094 17.04 1.642 31.423 1.642 43.147.47 3.792.703 9.028.703 15.712v20.4h12.664c.234 0 .47.234.703.703v.703c0 .626-1.33.938-3.986.938h-10.786c-.234 0-.548-.313-.938-.938V84.36c0-1.094.077-1.642.234-1.642l-.234-2.814V62.786c-.626-20.596-1.252-37.715-1.876-51.354l-.704-7.738c.236-.782.783-1.173 1.643-1.173zM937.52 7.504l.703.88v.41c0 .195-.39.566-1.172 1.113h-2.345c-4.143 0-6.957 1.544-8.44 4.63-1.252 3.4-1.877 7.193-1.877 11.375 0 2.58 1.094 6.762 3.283 12.545.782 1.563 5.003 5.804 12.663 12.722 3.908 5.627 5.862 11.177 5.862 16.648 0 4.338-.938 8.58-2.813 12.722-.86 1.954-3.205 3.635-7.035 5.04-1.368.744-2.462 1.115-3.283 1.115-.82 0-1.368-.293-1.64-.88v-.645c0-.43.857-.723 2.578-.88 5.16-1.953 7.738-4.005 7.738-6.155 1.407-2.813 2.11-6.468 2.11-10.962 0-5.9-2.658-11.686-7.973-17.354-4.183-3.166-7.31-6.234-9.38-9.205-1.407-1.523-2.814-5.55-4.22-12.076 0-.782-.08-1.798-.235-3.05 0-5.002.938-9.457 2.813-13.366 2.15-3.086 6.372-4.63 12.665-4.63zM967.828 5.862l.47.234c.155 0 .233-.078.233-.234 5.004.47 7.505 1.017 7.505 1.642v.234c-.273.782-.665 1.172-1.172 1.172l-6.8-.703c-.432 0-1.994.08-4.69.234l.234 2.815c0 2.54.39 12.858 1.172 30.953h1.64c1.29 0 2.307-.077 3.05-.234 3.518.313 6.097.47 7.738.47l.703.937v.704c0 .47-.312.704-.937.704-1.368 0-3.635-.156-6.8-.47-2.11.157-3.91.235-5.395.235v.938c0 11.022.547 23.764 1.642 38.224.156 0 .234.08.234.235 5.9-.314 9.42-.47 10.553-.47.664.195 1.133.586 1.407 1.172v.234c0 .234-.313.548-.938.938-5.94.156-9.536.313-10.786.47-1.876 0-2.814-1.017-2.814-3.05-1.095-14.93-1.642-27.357-1.642-37.285v-7.505c-.782-13.756-1.172-23.06-1.172-27.905-.47-2.345-.704-3.595-.704-3.752l.938-.703h2.58c.9.002 2.15-.076 3.752-.233zM1002.593 7.445c3.048 0 5.94 1.33 8.676 3.986 2.187 2.776 3.282 5.355 3.282 7.74v1.64c0 7.856-2.19 15.36-6.566 22.513-1.25 2.58-1.876 6.645-1.876 12.193.313 2.58.47 4.612.47 6.098v2.58c0 .82-.313 1.367-.938 1.64h-.703c-.393 0-.627-.312-.705-.937 0-.703.078-1.172.235-1.406 0-.194-.235-2.852-.704-7.973 0-7.855 1.563-13.873 4.69-18.056 2.657-5.666 3.986-11.372 3.986-17.117 0-3.322-1.563-6.292-4.69-8.91-2.424-1.095-4.3-1.643-5.628-1.643-5.003 1.368-7.504 3.557-7.504 6.565v2.11l.704.94v.233c0 .82-.313 1.37-.938 1.642h-.938c-.782-.39-1.173-1.016-1.173-1.876V16.12c0-3.985 3.126-6.877 9.38-8.675h.938zm2.345 73.867h.703c.196 0 .588.392 1.174 1.173v1.172c0 1.252-.626 1.876-1.876 1.876s-1.955-.78-2.11-2.345c.076-.508.78-1.133 2.11-1.876zM513.163 120.982c0 1.38-.805 2.07-2.413 2.07h-1.38c-.345 0-.806-.462-1.38-1.38v-.346c0-1.265.69-2.185 2.07-2.76h.69c1.608.002 2.413.807 2.413 2.416zm42.414-.69v.69c-.173 1.84-.978 2.76-2.414 2.76l-.69-.346-.688.345c-1.61-.688-2.414-1.724-2.414-3.103v-.69c.575-1.15 1.495-1.724 2.76-1.724h1.38c.344 0 1.033.69 2.067 2.07zM592.043 146.93v.69c0 .46-2.214 1.608-6.64 3.448-6.264 4.138-15.487 7.587-27.67 10.345-13.048 2.76-24.656 4.14-34.828 4.14h-6.207c-27.587 0-49.598-3.45-66.035-10.347l-.43-1.38c.46-.92.89-1.378 1.292-1.378h.948c17.93 6.436 38.332 9.655 61.207 9.655h9.225c14.54 0 30.545-2.645 48.017-7.932l18.018-8.62h1.38c.457.002 1.033.46 1.723 1.38z"/><path fill="none" d="M0 .073h1024v175H0z"/></svg>