<!DOCTYPE svg PUBLIC "-//W3C//DTD SVG 1.1//EN" "http://www.w3.org/Graphics/SVG/1.1/DTD/svg11.dtd" [
	<!ENTITY ns_flows "http://ns.adobe.com/Flows/1.0/">
]><svg xmlns="http://www.w3.org/2000/svg" width="1024" height="210" viewBox="0 0 1024 210"><path fill="#FFF" d="M59.745 100.203h.955c.318 0 .637.318.955.955-2.335 46.144-3.82 77.968-4.456 95.47-.69 3.82-1.433 5.73-2.23 5.73h-.636c-1.114 0-3.13-5.304-6.046-15.913-5.517-17.874-8.274-27.74-8.274-29.596h-.318c-1.698 24.61-2.546 40.415-2.546 47.416l-.955.636h-.955c-.85 0-1.698-3.606-2.546-10.82-4.667-21.958-9.335-50.387-14.002-85.288-.16 0-.584-1.484-1.273-4.456 0-.318.423-.742 1.272-1.273h1.273c.955 0 2.12 6.047 3.5 18.14 3.82 25.14 6.365 41.16 7.638 48.054l3.182 17.184h.318c1.75-28.005 2.917-42.75 3.5-44.235l1.59-.32c1.062 0 2.016 4.138 2.865 12.412 1.007 5.145 3.765 15.01 8.274 29.596l2.864 10.184.636-.318c1.273-38.03 2.757-69.004 4.456-92.925l.957-.637zM95.626 95.19l.636.32c.21 0 .318-.106.318-.32 6.79.637 10.184 1.38 10.184 2.23v.317c-.372 1.062-.902 1.59-1.59 1.59l-9.23-.954c-.584 0-2.705.107-6.365.318l.317 3.82c0 3.448.53 17.45 1.59 42.007h2.23c1.75 0 3.128-.106 4.136-.318 4.773.424 8.274.635 10.502.635l.955 1.273v.955c0 .636-.425.955-1.273.955-1.857 0-4.933-.21-9.23-.637-2.863.214-5.303.32-7.318.32v1.272c0 14.957.74 32.25 2.227 51.873.21 0 .318.107.318.318 8.008-.424 12.782-.637 14.32-.637.902.266 1.54.796 1.91 1.59v.32c0 .317-.425.742-1.273 1.272-8.063.212-12.942.425-14.64.636-2.545 0-3.818-1.378-3.818-4.137-1.485-20.26-2.228-37.127-2.228-50.6v-10.184c-1.062-18.67-1.59-31.293-1.59-37.87-.638-3.183-.956-4.88-.956-5.092l1.273-.954h3.5c1.22.003 2.918-.103 5.093-.315zM172.003 90.656h.318c.32 0 .743.425 1.274 1.273 0 1.06-.212 1.59-.636 1.59l.318.636c1.484 23.126 2.228 42.644 2.228 58.556.636 5.146.955 12.252.955 21.322v27.687h17.184c.318 0 .636.32.955.956v.955c0 .85-1.805 1.274-5.41 1.274h-14.64c-.318 0-.744-.424-1.273-1.273v-1.908c0-1.484.105-2.228.318-2.228l-.318-3.82v-23.23c-.85-27.952-1.698-51.183-2.546-69.694l-.954-10.502c.318-1.06 1.06-1.592 2.227-1.592zM228.81 95.748c5.992 0 10.766 14.32 14.32 42.962.21 2.705.318 6.206.318 10.502v1.273c0 .743-.107 1.698-.318 2.864.21.265.318 1.007.318 2.227v.318c0 1.22-.107 1.963-.318 2.228.21 1.114.318 1.75.318 1.91 0 22.383-3.077 36.172-9.23 41.37-2.175.85-3.66 1.273-4.455 1.273h-2.228c-7.638-1.856-12.41-11.72-14.32-29.596l-.956-13.048c0-29.86 3.71-50.546 11.137-62.056 1.963-1.485 3.767-2.228 5.412-2.228zm-13.368 63.33c0 11.986 1.59 22.488 4.774 31.504 2.97 5.94 5.62 8.91 7.956 8.91h.318c4.296 0 7.054-2.97 8.274-8.91 2.333-5.516 3.5-17.29 3.5-35.324v-6.365c0-12.463-2.228-26.784-6.683-42.962-1.59-3.552-3.18-5.886-4.772-7-2.494.955-3.978 2.122-4.456 3.5-5.94 12.57-8.91 31.454-8.91 56.647zM278.294 95.748c5.993 0 10.767 14.32 14.32 42.962.212 2.705.32 6.206.32 10.502v1.273c0 .743-.108 1.698-.32 2.864.212.265.32 1.007.32 2.227v.318c0 1.22-.108 1.963-.32 2.228.212 1.114.32 1.75.32 1.91 0 22.383-3.078 36.172-9.23 41.37-2.176.85-3.66 1.273-4.456 1.273h-2.228c-7.638-1.856-12.41-11.72-14.32-29.596l-.956-13.048c0-29.86 3.712-50.546 11.138-62.056 1.964-1.485 3.768-2.228 5.412-2.228zm-13.366 63.33c0 11.986 1.59 22.488 4.774 31.504 2.97 5.94 5.62 8.91 7.956 8.91h.318c4.296 0 7.054-2.97 8.274-8.91 2.333-5.516 3.5-17.29 3.5-35.324v-6.365c0-12.463-2.228-26.784-6.683-42.962-1.59-3.552-3.182-5.886-4.773-7-2.494.955-3.978 2.122-4.456 3.5-5.94 12.57-8.91 31.454-8.91 56.647zM335.1 91.61c1.166 0 1.91.425 2.228 1.273v1.59c0 9.337-2.122 21.748-6.365 37.235-.85 4.085-2.653 11.297-5.41 21.64 3.13 0 8.433 10.078 15.912 30.232 1.75 5.304 3.235 11.775 4.456 19.413v.955c0 .318-.317.636-.954.955h-.955c-1.06-.53-1.59-1.378-1.59-2.546v-.318c0-.212.106-.32.318-.32-2.758-12.78-5.728-22.54-8.91-29.277-4.67-11.032-8.275-16.548-10.82-16.548l2.863 48.372-.954.636h-1.273c-.266 0-.795-.53-1.59-1.59v-.32c0-.582.21-1.22.636-1.91-1.964-34.528-3.768-59.35-5.41-74.466-2.972-16.867-4.456-27.58-4.456-32.142v-.955c0-.318.424-.742 1.273-1.273h.636c.318 0 .742.425 1.273 1.273v1.59c.637 6.1 2.546 20.42 5.73 42.963.635 7.32.954 11.563.954 12.73h.318c7.425-28.695 11.138-46.198 11.138-52.51V95.11c0-.21-.107-1.06-.318-2.545l1.272-.955zM376.55 95.19l.636.32c.21 0 .318-.106.318-.32 6.79.637 10.184 1.38 10.184 2.23v.317c-.372 1.062-.902 1.59-1.59 1.59l-9.23-.954c-.584 0-2.705.107-6.365.318l.318 3.82c0 3.448.53 17.45 1.592 42.007h2.228c1.75 0 3.13-.106 4.137-.318 4.773.424 8.274.635 10.502.635l.954 1.273v.955c0 .636-.425.955-1.273.955-1.856 0-4.932-.21-9.228-.637-2.864.214-5.304.32-7.32.32v1.272c0 14.957.743 32.25 2.23 51.873.21 0 .317.107.317.318 8.007-.424 12.78-.637 14.32-.637.9.266 1.538.796 1.91 1.59v.32c0 .317-.426.742-1.274 1.272-8.063.212-12.942.425-14.64.636-2.545 0-3.818-1.378-3.818-4.137-1.485-20.26-2.228-37.127-2.228-50.6v-10.184c-1.062-18.67-1.59-31.293-1.59-37.87-.638-3.183-.956-4.88-.956-5.092l1.273-.954h3.5c1.22.003 2.918-.103 5.093-.315zM409.17 90.974h.317c8.433 2.758 14.904 8.168 19.413 16.23 6.79 13.843 10.184 28.058 10.184 42.644v1.59c0 20.793-7.532 37.766-22.595 50.92-1.91.636-3.184.954-3.82.954-.584 0-1.008-1.697-1.273-5.092l.318-.636c-.636-4.88-1.062-11.775-1.273-20.686h.318l-.318-.636v-.318c0-8.38.106-16.018.318-22.913l-1.59-62.056zm3.5 4.774v.318c.21 23.975.636 42.856 1.273 56.646-.213 5.676-.318 11.51-.318 17.503v3.82c0 8.062.424 16.547 1.273 25.458 4.933-4.243 9.494-9.758 13.684-16.548 4.88-10.872 7.32-21.056 7.32-30.55v-3.183c0-13.313-3.29-26.89-9.866-40.734-4.722-7.108-9.177-11.35-13.366-12.73zM511.403 95.19l.636.32c.21 0 .317-.106.317-.32 6.79.637 10.184 1.38 10.184 2.23v.317c-.37 1.062-.9 1.59-1.59 1.59l-9.23-.954c-.583 0-2.704.107-6.364.318l.318 3.82c0 3.448.53 17.45 1.59 42.007h2.23c1.75 0 3.128-.106 4.137-.318 4.774.424 8.274.635 10.503.635l.954 1.273v.955c0 .636-.425.955-1.272.955-1.857 0-4.934-.21-9.23-.637-2.863.214-5.303.32-7.318.32v1.272c0 14.957.742 32.25 2.228 51.873.21 0 .318.107.318.318 8.01-.424 12.782-.637 14.32-.637.9.266 1.538.796 1.91 1.59v.32c0 .317-.425.742-1.273 1.272-8.063.212-12.942.425-14.64.636-2.545 0-3.818-1.378-3.818-4.137-1.485-20.26-2.228-37.127-2.228-50.6v-10.184c-1.062-18.67-1.59-31.293-1.59-37.87-.638-3.183-.956-4.88-.956-5.092l1.273-.954h3.5c1.22.003 2.918-.103 5.093-.315zM570.277 95.43h1.272c.316 0 .635.424.953 1.272l-9.547 85.288c-.795 15.064-1.432 22.595-1.91 22.595l-.636.318h-.954c-1.01 0-2.176-6.046-3.5-18.14-5.518-35.006-8.275-63.01-8.275-84.014l-.954-4.138c0-.318.424-.742 1.273-1.273h.636c1.91 0 2.863 8.273 2.863 24.82 2.704 30.34 5.25 52.51 7.638 66.513h.318c0-4.35 2.97-31.824 8.91-82.423.425-7.213 1.062-10.82 1.91-10.82zM607.51 95.19l.637.32c.21 0 .318-.106.318-.32 6.79.637 10.184 1.38 10.184 2.23v.317c-.372 1.062-.903 1.59-1.593 1.59l-9.23-.954c-.583 0-2.704.107-6.363.318l.317 3.82c0 3.448.53 17.45 1.593 42.007h2.228c1.752 0 3.13-.106 4.14-.318 4.772.424 8.272.635 10.5.635l.955 1.273v.955c0 .636-.425.955-1.272.955-1.857 0-4.934-.21-9.23-.637-2.863.214-5.303.32-7.318.32v1.272c0 14.957.742 32.25 2.228 51.873.212 0 .318.107.318.318 8.01-.424 12.783-.637 14.322-.637.9.266 1.537.796 1.908 1.59v.32c0 .317-.424.742-1.272 1.272-8.063.212-12.942.425-14.64.636-2.545 0-3.818-1.378-3.818-4.137-1.484-20.26-2.227-37.127-2.227-50.6v-10.184c-1.063-18.67-1.592-31.293-1.592-37.87-.636-3.183-.954-4.88-.954-5.092l1.273-.954h3.5c1.218.003 2.915-.103 5.09-.315zM641.402 87.474h.637c.582.743 2.49 1.38 5.728 1.91 4.03 1.644 7.318 4.613 9.865 8.91 3.605 8.75 5.41 15.223 5.41 19.413v3.182c0 13.896-4.03 23.974-12.094 30.23 9.334 2.23 14.744 13.26 16.23 33.098v12.093c0 1.805.104 4.456.317 7.957l-.955.636h-.955l-1.272-.955c-.212-4.243-.318-7.425-.318-9.547v-11.456c0-7.956-2.44-16.123-7.32-24.504-3.394-3.183-6.364-4.774-8.91-4.774h-.317c.21 4.563.318 7.956.318 10.184v12.093c.424 10.502.637 16.442.637 17.82v.637c-.426.85-1.063 1.273-1.91 1.273-.318 0-.85-.424-1.59-1.273l.316-2.228c-.423-8.963-.635-14.904-.635-17.82v-19.095c-.903 0-1.54-.424-1.91-1.273v-.955c.425-.85.956-1.274 1.592-1.274-1.062-29.12-2.44-50.228-4.138-63.33l1.272-.952zm2.546 4.455c1.272 15.487 2.438 34.687 3.5 57.6 8.274-5.622 12.412-14.64 12.412-27.05v-4.455c0-5.57-2.335-12.676-7-21.322-3.502-3.182-6.155-4.773-7.957-4.773h-.955zM718.177 100.52h.637c.317 0 .74.426 1.272 1.274v.318c-1.697 15.17-3.5 30.02-5.41 44.553l.318 1.91v.954c-.743 0-1.91 10.5-3.5 31.504-.637 10.502-1.38 18.352-2.23 23.55l-.635.317h-.956c-.425-.104-.85-.635-1.272-1.59 2.333-27.95 4.03-46.196 5.092-54.737-5.73-12.463-13.26-24.98-22.596-37.552-1.697-1.218-2.545-2.386-2.545-3.5v-.636c0-.318.424-.742 1.272-1.273h1.272c.69.267 1.326 1.328 1.91 3.184 8.485 10.502 15.486 21.64 21.004 33.415h.32c2.33-20.21 4.028-33.893 5.09-41.053l.957-.636zM783.734 100.203h.954c.318 0 .637.318.955.955-2.335 46.144-3.82 77.968-4.456 95.47-.69 3.82-1.432 5.73-2.227 5.73h-.637c-1.114 0-3.13-5.304-6.047-15.913-5.518-17.874-8.273-27.74-8.273-29.596h-.318c-1.7 24.61-2.547 40.415-2.547 47.416l-.954.636h-.955c-.85 0-1.7-3.606-2.547-10.82-4.668-21.958-9.336-50.387-14.002-85.288-.158 0-.583-1.484-1.272-4.456 0-.318.424-.742 1.273-1.273h1.274c.954 0 2.12 6.047 3.5 18.14 3.818 25.14 6.365 41.16 7.638 48.054l3.183 17.184h.318c1.75-28.005 2.916-42.75 3.5-44.235l1.592-.32c1.06 0 2.015 4.138 2.863 12.412 1.008 5.145 3.766 15.01 8.274 29.596l2.864 10.184.637-.318c1.272-38.03 2.757-69.004 4.455-92.925l.956-.637zM829.8 87.235h.636c.848.425 1.272.955 1.272 1.59 0 9.973-.212 17.716-.636 23.232l.636 33.097c.425.69.637 1.22.637 1.59-.212.637-.425.956-.637.956.425 9.92.742 27.21.955 51.873-.213 1.114-.318 3.236-.318 6.365l-.954.637h-.954l-1.273-.955c0-2.28.105-4.083.318-5.41-.212-29.012-.53-46.41-.954-52.19-9.972.21-15.594.53-16.866.954.424 3.926.637 7.85.637 11.775 0 8.432-.106 15.858-.318 22.275.21 3.607.317 10.61.317 21.004-.69.424-1.327.635-1.91.635-.317 0-.743-.424-1.272-1.273v-2.864c0-8.645-.107-14.48-.318-17.503.21-5.197.318-11.562.318-19.094v-4.772c-.637-10.395-.955-17.61-.955-21.64.637-23.655.955-38.718.955-45.19-.213-.847-.318-1.59-.318-2.227l1.273-.954h.637c1.06.637 1.59 1.486 1.59 2.546 0 3.926-.317 19.838-.954 47.736v5.728l.318.637c1.38-.424 7.002-.742 16.867-.955-.212-7.69-.318-13.207-.318-16.548v-14.64c0-.477-.107-.9-.32-1.272l.32-.637c.21-10.183.317-18.03.317-23.548l1.272-.957zM867.27 95.19l.637.32c.212 0 .318-.106.318-.32 6.788.637 10.184 1.38 10.184 2.23v.317c-.373 1.062-.903 1.59-1.592 1.59l-9.23-.954c-.584 0-2.704.107-6.364.318l.318 3.82c0 3.448.53 17.45 1.59 42.007h2.23c1.75 0 3.128-.106 4.136-.318 4.773.424 8.275.635 10.502.635l.955 1.273v.955c0 .636-.426.955-1.273.955-1.856 0-4.932-.21-9.23-.637-2.862.214-5.304.32-7.318.32v1.272c0 14.957.742 32.25 2.228 51.873.21 0 .318.107.318.318 8.008-.424 12.78-.637 14.32-.637.902.266 1.538.796 1.91 1.59v.32c0 .317-.426.742-1.273 1.272-8.063.212-12.94.425-14.64.636-2.545 0-3.817-1.378-3.817-4.137-1.486-20.26-2.23-37.127-2.23-50.6v-10.184c-1.06-18.67-1.59-31.293-1.59-37.87-.637-3.183-.954-4.88-.954-5.092l1.272-.954h3.5c1.22.003 2.918-.103 5.093-.315zM901.163 87.474h.637c.583.743 2.492 1.38 5.728 1.91 4.03 1.644 7.32 4.613 9.865 8.91 3.607 8.75 5.41 15.223 5.41 19.413v3.182c0 13.896-4.03 23.974-12.092 30.23 9.335 2.23 14.745 13.26 16.23 33.098v12.093c0 1.805.105 4.456.318 7.957l-.955.636h-.954l-1.274-.955c-.213-4.243-.318-7.425-.318-9.547v-11.456c0-7.956-2.44-16.123-7.32-24.504-3.395-3.183-6.363-4.774-8.91-4.774h-.317c.212 4.563.318 7.956.318 10.184v12.093c.424 10.502.637 16.442.637 17.82v.637c-.425.85-1.06 1.273-1.91 1.273-.316 0-.848-.424-1.59-1.273l.318-2.228c-.426-8.963-.637-14.904-.637-17.82v-19.095c-.902 0-1.54-.424-1.91-1.273v-.955c.424-.85.955-1.274 1.592-1.274-1.062-29.12-2.44-50.228-4.137-63.33l1.273-.952zm2.546 4.455c1.272 15.487 2.438 34.687 3.5 57.6 8.274-5.622 12.41-14.64 12.41-27.05v-4.455c0-5.57-2.333-12.676-7-21.322-3.5-3.182-6.153-4.773-7.956-4.773h-.955zM960.355 95.19l.636.32c.213 0 .32-.106.32-.32 6.787.637 10.183 1.38 10.183 2.23v.317c-.372 1.062-.902 1.59-1.59 1.59l-9.23-.954c-.585 0-2.705.107-6.365.318l.318 3.82c0 3.448.53 17.45 1.59 42.007h2.23c1.75 0 3.128-.106 4.136-.318 4.773.424 8.275.635 10.502.635l.955 1.273v.955c0 .636-.427.955-1.274.955-1.856 0-4.932-.21-9.23-.637-2.862.214-5.304.32-7.318.32v1.272c0 14.957.742 32.25 2.228 51.873.21 0 .318.107.318.318 8.008-.424 12.78-.637 14.32-.637.902.266 1.538.796 1.91 1.59v.32c0 .317-.426.742-1.273 1.272-8.062.212-12.94.425-14.638.636-2.546 0-3.818-1.378-3.818-4.137-1.486-20.26-2.23-37.127-2.23-50.6v-10.184c-1.06-18.67-1.59-31.293-1.59-37.87-.637-3.183-.954-4.88-.954-5.092l1.272-.954h3.5c1.22.003 2.918-.103 5.093-.315zM999.02 90.815c.318 0 .742.425 1.273 1.273l-.318 1.59c4.03 23.498 6.046 41.85 6.046 55.056 0 4.35.106 15.382.32 33.097l-.956.638h-.954c-.425-.106-.85-.637-1.272-1.59-.213-15.33-.318-26.68-.318-34.052l-.318-3.82c.21-.37.318-.795.318-1.272 0-5.94-2.017-22.277-6.047-49.01 0-1.273.742-1.91 2.228-1.91zm4.775 106.928c1.484 0 2.227.743 2.227 2.228-.37 2.547-1.326 3.82-2.863 3.82-1.487-.637-2.23-1.59-2.23-2.864 0-1.22.955-2.28 2.865-3.183zM513.163 9.293c0 1.38-.805 2.07-2.413 2.07h-1.38c-.345 0-.806-.462-1.38-1.38v-.345c0-1.265.69-2.185 2.07-2.76h.69c1.608 0 2.413.805 2.413 2.415zm42.414-.69v.69c-.173 1.838-.978 2.758-2.414 2.758l-.69-.344-.688.345c-1.61-.688-2.414-1.723-2.414-3.103v-.69c.575-1.15 1.495-1.723 2.76-1.723h1.38c.344 0 1.033.69 2.067 2.07zM593.853 50.586v.69c0 .344-.72.803-2.155 1.378h-.517c-.805 0-3.447-.92-7.93-2.76-13.966-3.678-28.62-5.516-43.966-5.516-16.093 0-39.397 3.563-69.914 10.69-5.057 1.607-12.643 5.286-22.76 11.034h-.516c-1.608-.46-2.5-.92-2.672-1.38 0-1.666 5.834-5.115 17.5-10.344 11.092-4.254 30.862-8.392 59.31-12.414 11.208-.69 17.73-1.035 19.57-1.035 20 0 37.5 2.758 52.5 8.275l1.55 1.38z"/><path fill="none" d="M0 0h1024v210H0z"/></svg>