<?xml version="1.0" encoding="utf-8"?>
<!-- Generator: Adobe Illustrator 15.1.0, SVG Export Plug-In  -->
<!DOCTYPE svg PUBLIC "-//W3C//DTD SVG 1.1//EN" "http://www.w3.org/Graphics/SVG/1.1/DTD/svg11.dtd" [
	<!ENTITY ns_flows "http://ns.adobe.com/Flows/1.0/">
]>
<svg version="1.1"
	 xmlns="http://www.w3.org/2000/svg" xmlns:xlink="http://www.w3.org/1999/xlink" xmlns:a="http://ns.adobe.com/AdobeSVGViewerExtensions/3.0/"
	 x="0px" y="0px" width="1024px" height="210px" viewBox="0 0 1024 210" enable-background="new 0 0 1024 210" xml:space="preserve"
	>
<defs>
</defs>
<path d="M59.745,100.203H60.7c0.318,0,0.637,0.318,0.955,0.955c-2.335,46.144-3.819,77.968-4.456,95.471
	c-0.69,3.819-1.432,5.728-2.228,5.728h-0.637c-1.114,0-3.13-5.303-6.046-15.912c-5.517-17.874-8.274-27.739-8.274-29.596h-0.318
	c-1.698,24.611-2.546,40.416-2.546,47.417l-0.955,0.636h-0.955c-0.849,0-1.698-3.606-2.546-10.82
	c-4.667-21.958-9.335-50.387-14.002-85.288c-0.159,0-0.584-1.484-1.273-4.456c0-0.318,0.424-0.742,1.273-1.273h1.273
	c0.955,0,2.121,6.047,3.5,18.14c3.819,25.141,6.365,41.16,7.638,48.054l3.182,17.185h0.318c1.75-28.005,2.917-42.75,3.5-44.235
	l1.591-0.318c1.061,0,2.015,4.137,2.864,12.411c1.007,5.145,3.765,15.011,8.274,29.596l2.864,10.184l0.636-0.318
	c1.273-38.029,2.757-69.004,4.456-92.925L59.745,100.203z"/>
<path d="M95.626,95.191l0.636,0.318c0.211,0,0.318-0.105,0.318-0.318c6.789,0.636,10.184,1.379,10.184,2.228v0.318
	c-0.372,1.062-0.902,1.591-1.591,1.591l-9.229-0.955c-0.584,0-2.705,0.107-6.365,0.318l0.318,3.819
	c0,3.448,0.53,17.451,1.591,42.007h2.228c1.75,0,3.129-0.106,4.137-0.318c4.773,0.425,8.274,0.636,10.502,0.636l0.955,1.273v0.955
	c0,0.636-0.425,0.955-1.273,0.955c-1.857,0-4.933-0.211-9.229-0.637c-2.864,0.213-5.304,0.318-7.319,0.318v1.273
	c0,14.957,0.742,32.249,2.228,51.873c0.211,0,0.318,0.107,0.318,0.318c8.008-0.424,12.782-0.637,14.321-0.637
	c0.901,0.266,1.538,0.796,1.909,1.591v0.318c0,0.318-0.425,0.743-1.273,1.273c-8.063,0.212-12.942,0.425-14.639,0.636
	c-2.546,0-3.819-1.378-3.819-4.137c-1.485-20.26-2.228-37.127-2.228-50.6v-10.184c-1.062-18.669-1.591-31.293-1.591-37.871
	c-0.637-3.182-0.955-4.879-0.955-5.091l1.273-0.955h3.5C91.754,95.509,93.451,95.403,95.626,95.191z"/>
<path d="M172.003,90.656h0.318c0.318,0,0.742,0.425,1.273,1.273c0,1.062-0.212,1.591-0.636,1.591l0.318,0.636
	c1.484,23.126,2.228,42.644,2.228,58.556c0.636,5.146,0.955,12.252,0.955,21.322v27.687h17.185c0.318,0,0.636,0.318,0.955,0.955
	v0.955c0,0.849-1.804,1.273-5.41,1.273h-14.639c-0.318,0-0.744-0.424-1.273-1.273v-1.909c0-1.484,0.105-2.228,0.318-2.228
	l-0.318-3.819v-23.231c-0.849-27.952-1.698-51.183-2.546-69.694l-0.955-10.502C170.094,91.187,170.836,90.656,172.003,90.656z"/>
<path d="M228.809,95.748c5.993,0,10.767,14.321,14.321,42.962c0.211,2.705,0.318,6.206,0.318,10.502v1.273
	c0,0.743-0.107,1.698-0.318,2.864c0.211,0.266,0.318,1.008,0.318,2.228v0.318c0,1.221-0.107,1.963-0.318,2.228
	c0.211,1.114,0.318,1.75,0.318,1.909c0,22.384-3.077,36.173-9.229,41.371c-2.176,0.849-3.66,1.273-4.456,1.273h-2.228
	c-7.638-1.856-12.411-11.721-14.321-29.596l-0.955-13.048c0-29.861,3.712-50.546,11.138-62.056
	C225.36,96.491,227.164,95.748,228.809,95.748z M215.442,159.077c0,11.987,1.591,22.489,4.774,31.505
	c2.97,5.941,5.621,8.911,7.956,8.911h0.318c4.296,0,7.054-2.97,8.274-8.911c2.333-5.516,3.5-17.291,3.5-35.324v-6.365
	c0-12.463-2.228-26.784-6.683-42.962c-1.591-3.553-3.182-5.887-4.773-7.001c-2.494,0.955-3.978,2.122-4.456,3.5
	C218.413,115.001,215.442,133.884,215.442,159.077z"/>
<path d="M278.294,95.748c5.993,0,10.767,14.321,14.321,42.962c0.211,2.705,0.318,6.206,0.318,10.502v1.273
	c0,0.743-0.107,1.698-0.318,2.864c0.211,0.266,0.318,1.008,0.318,2.228v0.318c0,1.221-0.107,1.963-0.318,2.228
	c0.211,1.114,0.318,1.75,0.318,1.909c0,22.384-3.077,36.173-9.229,41.371c-2.176,0.849-3.66,1.273-4.456,1.273h-2.228
	c-7.638-1.856-12.411-11.721-14.321-29.596l-0.955-13.048c0-29.861,3.712-50.546,11.138-62.056
	C274.846,96.491,276.65,95.748,278.294,95.748z M264.928,159.077c0,11.987,1.591,22.489,4.774,31.505
	c2.97,5.941,5.621,8.911,7.956,8.911h0.318c4.296,0,7.054-2.97,8.274-8.911c2.333-5.516,3.5-17.291,3.5-35.324v-6.365
	c0-12.463-2.228-26.784-6.683-42.962c-1.591-3.553-3.182-5.887-4.773-7.001c-2.494,0.955-3.978,2.122-4.456,3.5
	C267.898,115.001,264.928,133.884,264.928,159.077z"/>
<path d="M335.1,91.61c1.166,0,1.91,0.425,2.228,1.273v1.591c0,9.336-2.122,21.747-6.365,37.234
	c-0.849,4.085-2.653,11.297-5.41,21.64c3.129,0,8.433,10.078,15.912,30.232c1.75,5.304,3.235,11.775,4.456,19.413v0.955
	c0,0.318-0.318,0.636-0.955,0.955h-0.955c-1.062-0.53-1.591-1.378-1.591-2.546v-0.318c0-0.211,0.106-0.318,0.318-0.318
	c-2.758-12.782-5.728-22.542-8.911-29.278c-4.668-11.032-8.274-16.548-10.82-16.548l2.864,48.372l-0.955,0.636h-1.273
	c-0.266,0-0.795-0.53-1.591-1.591v-0.318c0-0.583,0.211-1.22,0.637-1.91c-1.963-34.529-3.767-59.351-5.41-74.467
	c-2.971-16.867-4.455-27.58-4.455-32.142V93.52c0-0.318,0.424-0.742,1.273-1.273h0.636c0.318,0,0.742,0.425,1.273,1.273v1.591
	c0.637,6.1,2.546,20.42,5.729,42.962c0.636,7.319,0.955,11.563,0.955,12.729h0.318c7.425-28.694,11.138-46.197,11.138-52.509v-3.182
	c0-0.211-0.107-1.061-0.318-2.546L335.1,91.61z"/>
<path d="M376.55,95.191l0.636,0.318c0.211,0,0.318-0.105,0.318-0.318c6.789,0.636,10.184,1.379,10.184,2.228v0.318
	c-0.372,1.062-0.902,1.591-1.591,1.591l-9.229-0.955c-0.584,0-2.705,0.107-6.365,0.318l0.318,3.819
	c0,3.448,0.53,17.451,1.591,42.007h2.228c1.75,0,3.129-0.106,4.137-0.318c4.773,0.425,8.274,0.636,10.502,0.636l0.955,1.273v0.955
	c0,0.636-0.425,0.955-1.273,0.955c-1.857,0-4.933-0.211-9.229-0.637c-2.864,0.213-5.304,0.318-7.319,0.318v1.273
	c0,14.957,0.742,32.249,2.228,51.873c0.211,0,0.318,0.107,0.318,0.318c8.008-0.424,12.782-0.637,14.321-0.637
	c0.901,0.266,1.538,0.796,1.909,1.591v0.318c0,0.318-0.425,0.743-1.273,1.273c-8.063,0.212-12.942,0.425-14.639,0.636
	c-2.546,0-3.819-1.378-3.819-4.137c-1.485-20.26-2.228-37.127-2.228-50.6v-10.184c-1.062-18.669-1.591-31.293-1.591-37.871
	c-0.637-3.182-0.955-4.879-0.955-5.091l1.273-0.955h3.5C372.677,95.509,374.375,95.403,376.55,95.191z"/>
<path d="M409.169,90.974h0.318c8.433,2.758,14.904,8.168,19.413,16.23c6.789,13.843,10.184,28.058,10.184,42.644v1.591
	c0,20.792-7.532,37.765-22.595,50.918c-1.91,0.637-3.183,0.955-3.819,0.955c-0.584,0-1.008-1.697-1.273-5.092l0.318-0.636
	c-0.636-4.879-1.062-11.775-1.273-20.686h0.318l-0.318-0.636v-0.318c0-8.38,0.106-16.018,0.318-22.913L409.169,90.974z
	 M412.67,95.748v0.318c0.211,23.975,0.636,42.856,1.273,56.646c-0.213,5.676-0.318,11.51-0.318,17.503v3.819
	c0,8.063,0.424,16.548,1.273,25.459c4.933-4.243,9.494-9.758,13.684-16.548c4.879-10.872,7.319-21.056,7.319-30.551v-3.182
	c0-13.313-3.289-26.891-9.865-40.734C421.314,101.37,416.859,97.127,412.67,95.748z"/>
<path d="M511.403,95.191l0.636,0.318c0.211,0,0.318-0.105,0.318-0.318c6.789,0.636,10.184,1.379,10.184,2.228v0.318
	c-0.371,1.062-0.902,1.591-1.592,1.591l-9.228-0.955c-0.584,0-2.705,0.107-6.365,0.318l0.318,3.819
	c0,3.448,0.53,17.451,1.591,42.007h2.228c1.75,0,3.129-0.106,4.138-0.318c4.773,0.425,8.273,0.636,10.502,0.636l0.954,1.273v0.955
	c0,0.636-0.425,0.955-1.272,0.955c-1.857,0-4.934-0.211-9.229-0.637c-2.864,0.213-5.304,0.318-7.319,0.318v1.273
	c0,14.957,0.742,32.249,2.228,51.873c0.211,0,0.318,0.107,0.318,0.318c8.009-0.424,12.782-0.637,14.321-0.637
	c0.9,0.266,1.537,0.796,1.908,1.591v0.318c0,0.318-0.424,0.743-1.272,1.273c-8.063,0.212-12.942,0.425-14.639,0.636
	c-2.546,0-3.819-1.378-3.819-4.137c-1.485-20.26-2.228-37.127-2.228-50.6v-10.184c-1.062-18.669-1.591-31.293-1.591-37.871
	c-0.637-3.182-0.955-4.879-0.955-5.091l1.273-0.955h3.5C507.53,95.509,509.228,95.403,511.403,95.191z"/>
<path d="M570.277,95.429h1.272c0.317,0,0.636,0.425,0.954,1.273l-9.547,85.288c-0.795,15.064-1.432,22.595-1.909,22.595
	l-0.637,0.318h-0.954c-1.009,0-2.176-6.046-3.501-18.14c-5.517-35.006-8.274-63.011-8.274-84.014l-0.955-4.137
	c0-0.318,0.424-0.742,1.273-1.273h0.637c1.909,0,2.863,8.274,2.863,24.822c2.705,30.339,5.252,52.509,7.639,66.512h0.318
	c0-4.349,2.969-31.824,8.91-82.423C568.791,99.037,569.428,95.429,570.277,95.429z"/>
<path d="M607.51,95.191l0.637,0.318c0.211,0,0.318-0.105,0.318-0.318c6.789,0.636,10.184,1.379,10.184,2.228v0.318
	c-0.371,1.062-0.902,1.591-1.592,1.591l-9.229-0.955c-0.584,0-2.705,0.107-6.364,0.318l0.317,3.819
	c0,3.448,0.53,17.451,1.592,42.007h2.228c1.751,0,3.129-0.106,4.138-0.318c4.773,0.425,8.273,0.636,10.502,0.636l0.954,1.273v0.955
	c0,0.636-0.425,0.955-1.272,0.955c-1.857,0-4.934-0.211-9.229-0.637c-2.864,0.213-5.304,0.318-7.319,0.318v1.273
	c0,14.957,0.742,32.249,2.228,51.873c0.212,0,0.318,0.107,0.318,0.318c8.009-0.424,12.782-0.637,14.321-0.637
	c0.9,0.266,1.537,0.796,1.908,1.591v0.318c0,0.318-0.424,0.743-1.272,1.273c-8.063,0.212-12.942,0.425-14.639,0.636
	c-2.546,0-3.819-1.378-3.819-4.137c-1.484-20.26-2.227-37.127-2.227-50.6v-10.184c-1.063-18.669-1.592-31.293-1.592-37.871
	c-0.637-3.182-0.955-4.879-0.955-5.091l1.273-0.955h3.5C603.638,95.509,605.335,95.403,607.51,95.191z"/>
<path d="M641.402,87.474h0.637c0.583,0.743,2.492,1.38,5.729,1.909c4.029,1.645,7.318,4.614,9.865,8.911
	c3.605,8.751,5.41,15.223,5.41,19.413v3.182c0,13.897-4.031,23.975-12.094,30.232c9.335,2.228,14.745,13.26,16.23,33.097v12.093
	c0,1.804,0.105,4.455,0.318,7.956l-0.955,0.636h-0.955l-1.272-0.955c-0.212-4.243-0.318-7.425-0.318-9.547v-11.457
	c0-7.956-2.44-16.123-7.319-24.504c-3.395-3.183-6.365-4.774-8.91-4.774h-0.318c0.211,4.563,0.318,7.956,0.318,10.184v12.093
	c0.424,10.502,0.637,16.442,0.637,17.821v0.636c-0.426,0.849-1.063,1.273-1.91,1.273c-0.318,0-0.85-0.424-1.591-1.273l0.317-2.228
	c-0.424-8.963-0.636-14.904-0.636-17.821v-19.094c-0.903,0-1.539-0.424-1.909-1.273v-0.955c0.424-0.848,0.955-1.273,1.591-1.273
	c-1.062-29.119-2.44-50.228-4.138-63.329L641.402,87.474z M643.948,91.929c1.272,15.488,2.438,34.688,3.501,57.601
	c8.273-5.622,12.411-14.639,12.411-27.05v-4.455c0-5.569-2.335-12.676-7.001-21.322c-3.501-3.182-6.154-4.773-7.956-4.773H643.948z"
	/>
<path d="M718.177,100.521h0.637c0.317,0,0.741,0.425,1.272,1.273v0.318c-1.697,15.17-3.5,30.021-5.41,44.553l0.318,1.909v0.955
	c-0.743,0-1.909,10.501-3.5,31.505c-0.637,10.502-1.381,18.352-2.229,23.549l-0.636,0.318h-0.955
	c-0.425-0.105-0.849-0.636-1.272-1.591c2.333-27.951,4.029-46.196,5.092-54.737c-5.729-12.463-13.261-24.981-22.596-37.552
	c-1.697-1.219-2.545-2.387-2.545-3.5v-0.637c0-0.318,0.424-0.742,1.272-1.273h1.272c0.689,0.266,1.326,1.327,1.91,3.183
	c8.485,10.502,15.486,21.64,21.004,33.415h0.318c2.332-20.208,4.029-33.892,5.092-41.052L718.177,100.521z"/>
<path d="M783.734,100.203h0.954c0.318,0,0.637,0.318,0.955,0.955c-2.335,46.144-3.819,77.968-4.456,95.471
	c-0.689,3.819-1.432,5.728-2.227,5.728h-0.637c-1.114,0-3.131-5.303-6.047-15.912c-5.518-17.874-8.273-27.739-8.273-29.596h-0.318
	c-1.699,24.611-2.547,40.416-2.547,47.417l-0.954,0.636h-0.955c-0.849,0-1.698-3.606-2.546-10.82
	c-4.668-21.958-9.336-50.387-14.002-85.288c-0.159,0-0.584-1.484-1.273-4.456c0-0.318,0.424-0.742,1.273-1.273h1.273
	c0.954,0,2.12,6.047,3.5,18.14c3.818,25.141,6.365,41.16,7.638,48.054l3.183,17.185h0.318c1.75-28.005,2.916-42.75,3.5-44.235
	l1.592-0.318c1.061,0,2.015,4.137,2.863,12.411c1.008,5.145,3.766,15.011,8.274,29.596l2.864,10.184l0.637-0.318
	c1.272-38.029,2.757-69.004,4.455-92.925L783.734,100.203z"/>
<path d="M829.799,87.235h0.637c0.848,0.425,1.272,0.955,1.272,1.591c0,9.972-0.212,17.715-0.636,23.231l0.636,33.097
	c0.425,0.69,0.637,1.221,0.637,1.591c-0.212,0.636-0.425,0.955-0.637,0.955c0.425,9.919,0.742,27.209,0.955,51.873
	c-0.213,1.114-0.318,3.236-0.318,6.365l-0.954,0.637h-0.955l-1.273-0.955c0-2.28,0.105-4.083,0.318-5.41
	c-0.213-29.012-0.531-46.409-0.955-52.191c-9.972,0.212-15.594,0.531-16.866,0.955c0.424,3.926,0.637,7.85,0.637,11.775
	c0,8.433-0.106,15.859-0.318,22.276c0.212,3.607,0.318,10.609,0.318,21.004c-0.69,0.425-1.327,0.636-1.909,0.636
	c-0.318,0-0.744-0.424-1.273-1.273v-2.864c0-8.645-0.107-14.479-0.318-17.503c0.211-5.197,0.318-11.562,0.318-19.094v-4.773
	c-0.637-10.395-0.955-17.609-0.955-21.64c0.637-23.655,0.955-38.718,0.955-45.189c-0.213-0.848-0.318-1.591-0.318-2.228l1.273-0.955
	h0.637c1.061,0.637,1.591,1.486,1.591,2.546c0,3.926-0.318,19.838-0.955,47.736v5.728l0.318,0.637
	c1.379-0.424,7.001-0.742,16.866-0.955c-0.212-7.69-0.318-13.207-0.318-16.548v-14.639c0-0.478-0.106-0.901-0.318-1.273l0.318-0.637
	c0.212-10.184,0.318-18.032,0.318-23.549L829.799,87.235z"/>
<path d="M867.271,95.191l0.636,0.318c0.212,0,0.318-0.105,0.318-0.318c6.788,0.636,10.184,1.379,10.184,2.228v0.318
	c-0.372,1.062-0.902,1.591-1.591,1.591l-9.229-0.955c-0.585,0-2.705,0.107-6.365,0.318l0.318,3.819
	c0,3.448,0.529,17.451,1.591,42.007h2.228c1.75,0,3.129-0.106,4.137-0.318c4.773,0.425,8.275,0.636,10.502,0.636l0.955,1.273v0.955
	c0,0.636-0.426,0.955-1.273,0.955c-1.856,0-4.932-0.211-9.229-0.637c-2.863,0.213-5.305,0.318-7.319,0.318v1.273
	c0,14.957,0.742,32.249,2.228,51.873c0.211,0,0.318,0.107,0.318,0.318c8.008-0.424,12.781-0.637,14.32-0.637
	c0.902,0.266,1.538,0.796,1.91,1.591v0.318c0,0.318-0.426,0.743-1.273,1.273c-8.063,0.212-12.941,0.425-14.639,0.636
	c-2.546,0-3.818-1.378-3.818-4.137c-1.486-20.26-2.229-37.127-2.229-50.6v-10.184c-1.061-18.669-1.591-31.293-1.591-37.871
	c-0.637-3.182-0.954-4.879-0.954-5.091l1.272-0.955h3.501C863.398,95.509,865.096,95.403,867.271,95.191z"/>
<path d="M901.163,87.474h0.637c0.583,0.743,2.492,1.38,5.728,1.909c4.031,1.645,7.32,4.614,9.865,8.911
	c3.607,8.751,5.41,15.223,5.41,19.413v3.182c0,13.897-4.031,23.975-12.092,30.232c9.334,2.228,14.744,13.26,16.229,33.097v12.093
	c0,1.804,0.105,4.455,0.318,7.956l-0.955,0.636h-0.954l-1.273-0.955c-0.213-4.243-0.318-7.425-0.318-9.547v-11.457
	c0-7.956-2.439-16.123-7.319-24.504c-3.396-3.183-6.364-4.774-8.911-4.774h-0.317c0.211,4.563,0.317,7.956,0.317,10.184v12.093
	c0.424,10.502,0.637,16.442,0.637,17.821v0.636c-0.425,0.849-1.061,1.273-1.909,1.273c-0.317,0-0.849-0.424-1.591-1.273l0.318-2.228
	c-0.426-8.963-0.637-14.904-0.637-17.821v-19.094c-0.902,0-1.539-0.424-1.91-1.273v-0.955c0.424-0.848,0.955-1.273,1.592-1.273
	c-1.062-29.119-2.44-50.228-4.137-63.329L901.163,87.474z M903.709,91.929c1.273,15.488,2.439,34.688,3.501,57.601
	c8.274-5.622,12.411-14.639,12.411-27.05v-4.455c0-5.569-2.334-12.676-7.002-21.322c-3.5-3.182-6.152-4.773-7.955-4.773H903.709z"/>
<path d="M960.355,95.191l0.636,0.318c0.212,0,0.318-0.105,0.318-0.318c6.788,0.636,10.184,1.379,10.184,2.228v0.318
	c-0.372,1.062-0.902,1.591-1.591,1.591l-9.229-0.955c-0.585,0-2.705,0.107-6.365,0.318l0.318,3.819
	c0,3.448,0.529,17.451,1.591,42.007h2.228c1.75,0,3.129-0.106,4.137-0.318c4.773,0.425,8.275,0.636,10.502,0.636l0.955,1.273v0.955
	c0,0.636-0.426,0.955-1.273,0.955c-1.856,0-4.932-0.211-9.229-0.637c-2.863,0.213-5.305,0.318-7.319,0.318v1.273
	c0,14.957,0.742,32.249,2.228,51.873c0.211,0,0.318,0.107,0.318,0.318c8.008-0.424,12.781-0.637,14.32-0.637
	c0.902,0.266,1.538,0.796,1.91,1.591v0.318c0,0.318-0.426,0.743-1.273,1.273c-8.063,0.212-12.941,0.425-14.639,0.636
	c-2.546,0-3.818-1.378-3.818-4.137c-1.486-20.26-2.229-37.127-2.229-50.6v-10.184c-1.061-18.669-1.591-31.293-1.591-37.871
	c-0.637-3.182-0.954-4.879-0.954-5.091l1.272-0.955h3.501C956.482,95.509,958.18,95.403,960.355,95.191z"/>
<path d="M999.021,90.815c0.317,0,0.741,0.425,1.272,1.273l-0.318,1.591c4.03,23.497,6.046,41.848,6.046,55.055
	c0,4.35,0.105,15.382,0.318,33.097l-0.955,0.637h-0.954c-0.425-0.106-0.849-0.637-1.272-1.591
	c-0.213-15.328-0.318-26.678-0.318-34.051l-0.318-3.819c0.211-0.371,0.318-0.796,0.318-1.273c0-5.939-2.017-22.277-6.047-49.009
	C996.793,91.451,997.535,90.815,999.021,90.815z M1003.795,197.743c1.484,0,2.227,0.743,2.227,2.228
	c-0.371,2.546-1.326,3.819-2.863,3.819c-1.486-0.637-2.229-1.591-2.229-2.864C1000.93,199.706,1001.885,198.645,1003.795,197.743z"
	/>
<path d="M513.163,9.293c0,1.379-0.805,2.069-2.413,2.069h-1.38c-0.345,0-0.806-0.461-1.379-1.379V9.638
	c0-1.265,0.689-2.185,2.069-2.759h0.689C512.358,6.879,513.163,7.683,513.163,9.293z M555.577,8.603v0.69
	c-0.173,1.838-0.978,2.758-2.414,2.758l-0.689-0.345l-0.689,0.345c-1.609-0.689-2.414-1.724-2.414-3.104V8.258
	c0.574-1.15,1.494-1.724,2.759-1.724h1.379C553.854,6.534,554.543,7.224,555.577,8.603z"/>
<path d="M593.853,50.586v0.689c0,0.345-0.719,0.804-2.155,1.379h-0.517c-0.806,0-3.448-0.92-7.932-2.759
	c-13.965-3.679-28.62-5.517-43.965-5.517c-16.093,0-39.397,3.563-69.914,10.689c-5.057,1.608-12.643,5.287-22.759,11.035h-0.517
	c-1.608-0.461-2.5-0.92-2.672-1.379c0-1.667,5.834-5.116,17.5-10.345c11.092-4.254,30.862-8.392,59.311-12.414
	c11.207-0.69,17.729-1.035,19.569-1.035c20,0,37.499,2.759,52.499,8.276L593.853,50.586z"/>
<rect id="_x3C_Slice_x3E__2_" fill="none" width="1024" height="210"/>
</svg>