<?xml version="1.0" encoding="utf-8"?>
<!-- Generator: Adobe Illustrator 15.1.0, SVG Export Plug-In  -->
<!DOCTYPE svg PUBLIC "-//W3C//DTD SVG 1.1//EN" "http://www.w3.org/Graphics/SVG/1.1/DTD/svg11.dtd" [
	<!ENTITY ns_flows "http://ns.adobe.com/Flows/1.0/">
]>
<svg version="1.1"
	 xmlns="http://www.w3.org/2000/svg" xmlns:xlink="http://www.w3.org/1999/xlink" xmlns:a="http://ns.adobe.com/AdobeSVGViewerExtensions/3.0/"
	 x="0px" y="0px" width="1024px" height="480px" viewBox="-4.807 -137.183 1024 480"
	 enable-background="new -4.807 -137.183 1024 480" xml:space="preserve">
<defs>
</defs>
<path fill="#C9C9C9" d="M24.853,10.375l0.703,0.821v0.586c0,0.665-2.189,0.997-6.565,0.997h-6.565c-0.234,0-0.469,0.274-0.703,0.821
	l0.469,10.727c-0.157,0.977-0.234,1.524-0.234,1.641c1.407,23.643,2.11,40.583,2.11,50.82c0.155,0.274,0.234,0.489,0.234,0.645
	c-0.157,0.234-0.234,0.43-0.234,0.586l0.234,1.407c-0.234,0.548-0.469,0.821-0.704,0.821h-0.938c-0.156,0-0.469-0.273-0.938-0.821
	c0-0.273,0.078-1.016,0.234-2.227c0-3.36-0.704-20.242-2.11-50.644c0-4.962-0.156-9.476-0.469-13.541L8.91,12.778H8.206
	l-7.503,0.645C0.234,12.916,0,12.31,0,11.606c0-0.234,0.312-0.507,0.938-0.821c1.094,0.274,1.719,0.411,1.876,0.411
	c3.009-0.273,5.119-0.411,6.331-0.411h9.613C20.75,10.785,22.781,10.649,24.853,10.375z"/>
<path fill="#C9C9C9" d="M39.448,0.176h0.469c0.429,0.548,1.836,1.017,4.22,1.407c2.969,1.212,5.393,3.4,7.269,6.565
	c2.657,6.448,3.986,11.216,3.986,14.302v2.345c0,10.239-2.97,17.664-8.91,22.274c6.877,1.642,10.863,9.77,11.958,24.384v8.91
	c0,1.329,0.078,3.283,0.234,5.862l-0.703,0.469h-0.704l-0.938-0.704c-0.156-3.125-0.234-5.47-0.234-7.034v-8.44
	c0-5.862-1.798-11.879-5.393-18.054c-2.501-2.345-4.689-3.517-6.565-3.517h-0.234c0.156,3.361,0.234,5.861,0.234,7.503v8.91
	c0.313,7.737,0.469,12.114,0.469,13.13v0.469c-0.313,0.625-0.782,0.938-1.407,0.938c-0.234,0-0.625-0.313-1.172-0.938l0.234-1.641
	c-0.313-6.604-0.469-10.98-0.469-13.13V50.117c-0.665,0-1.134-0.313-1.407-0.938v-0.704c0.313-0.625,0.704-0.938,1.172-0.938
	c-0.782-21.454-1.798-37.006-3.048-46.658L39.448,0.176z M41.324,3.458c0.938,11.411,1.797,25.556,2.579,42.438
	c6.096-4.142,9.144-10.786,9.144-19.93v-3.282c0-4.104-1.72-9.339-5.158-15.709c-2.579-2.344-4.534-3.517-5.862-3.517H41.324z"/>
<path fill="#C9C9C9" d="M96.013,9.789h0.469c0.235,0,0.547,0.313,0.938,0.938v0.235c-1.251,11.176-2.579,22.118-3.986,32.825
	l0.234,1.407v0.704c-0.547,0-1.407,7.737-2.579,23.211c-0.469,7.737-1.017,13.521-1.641,17.351l-0.469,0.234h-0.704
	c-0.313-0.078-0.625-0.469-0.938-1.172c1.719-20.593,2.969-34.036,3.751-40.328c-4.22-9.183-9.77-18.405-16.647-27.667
	c-1.251-0.898-1.875-1.759-1.875-2.579v-0.469c0-0.234,0.313-0.547,0.938-0.938h0.938c0.508,0.196,0.977,0.977,1.407,2.344
	c6.252,7.737,11.41,15.944,15.475,24.619h0.235c1.719-14.888,2.969-24.97,3.751-30.246L96.013,9.789z"/>
<path fill="#C9C9C9" d="M154.335,7.503l0.703,0.879v0.41c0,0.196-0.391,0.567-1.172,1.114h-2.345c-4.142,0-6.956,1.544-8.44,4.63
	c-1.251,3.4-1.875,7.19-1.875,11.372c0,2.579,1.093,6.761,3.282,12.544c0.781,1.563,5.001,5.803,12.661,12.72
	c3.907,5.627,5.861,11.176,5.861,16.646c0,4.338-0.938,8.578-2.813,12.72c-0.86,1.955-3.205,3.634-7.034,5.041
	c-1.369,0.743-2.462,1.114-3.283,1.114c-0.82,0-1.368-0.293-1.641-0.879v-0.645c0-0.43,0.859-0.723,2.579-0.879
	c5.158-1.954,7.737-4.005,7.737-6.155c1.407-2.813,2.11-6.467,2.11-10.961c0-5.9-2.658-11.684-7.972-17.35
	c-4.182-3.166-7.308-6.233-9.378-9.203c-1.407-1.524-2.813-5.548-4.22-12.075c0-0.781-0.079-1.797-0.234-3.048
	c0-5.001,0.938-9.457,2.813-13.365C143.823,9.047,148.043,7.503,154.335,7.503z"/>
<path fill="#C9C9C9" d="M184.64,5.862l0.469,0.234c0.156,0,0.235-0.078,0.235-0.234c5.001,0.469,7.502,1.017,7.502,1.641v0.234
	c-0.273,0.782-0.665,1.172-1.172,1.172l-6.799-0.704c-0.43,0-1.993,0.079-4.689,0.235l0.234,2.813c0,2.541,0.39,12.857,1.172,30.949
	h1.641c1.29,0,2.305-0.078,3.048-0.235c3.517,0.313,6.096,0.469,7.737,0.469l0.704,0.938v0.703c0,0.469-0.313,0.704-0.938,0.704
	c-1.368,0-3.634-0.156-6.799-0.469c-2.11,0.157-3.908,0.234-5.393,0.234v0.938c0,11.02,0.546,23.76,1.641,38.218
	c0.156,0,0.234,0.079,0.234,0.234c5.9-0.313,9.417-0.469,10.551-0.469c0.664,0.196,1.133,0.586,1.407,1.172v0.235
	c0,0.234-0.313,0.547-0.938,0.938c-5.94,0.157-9.535,0.313-10.786,0.469c-1.875,0-2.813-1.016-2.813-3.048
	c-1.094-14.927-1.641-27.354-1.641-37.279v-7.503c-0.782-13.755-1.172-23.055-1.172-27.901c-0.469-2.345-0.704-3.595-0.704-3.751
	l0.938-0.703h2.579C181.787,6.096,183.037,6.018,184.64,5.862z"/>
<path fill="#C9C9C9" d="M216.878,6.682h0.234c2.228,1.017,4.123,3.771,5.686,8.265c4.338,13.443,7.542,30.618,9.613,51.523
	c1.367,6.8,2.051,12.759,2.051,17.878c-0.196,0.508-0.723,0.762-1.583,0.762c-0.625-1.211-1.563-7.424-2.813-18.64
	c-0.352-1.21-1.134-6.389-2.345-15.533l-1.817-0.234c-8.441,0.782-12.661,1.641-12.661,2.579v9.085l-1.583,21.747
	c0.352,0.548,0.527,1.055,0.527,1.524c0,0.274-0.352,0.625-1.055,1.055c-1.368,0-2.051-0.859-2.051-2.579
	c1.211-16.49,1.817-26.416,1.817-29.777c-0.156-2.148-0.234-4.317-0.234-6.506c0.078-11.254,1.016-23.153,2.813-35.697
	C214.221,8.5,215.354,6.682,216.878,6.682z M216.878,9.789c-2.267,8.754-3.4,20.066-3.4,33.938c-0.156,0-0.234,1.896-0.234,5.686
	v0.762c4.924-1.368,9.672-2.052,14.244-2.052v-0.293c0-4.767-2.599-16.061-7.796-33.88C218.558,11.489,217.62,10.102,216.878,9.789z
	"/>
<path fill="#C9C9C9" d="M252.927,0.176h0.469c0.429,0.548,1.836,1.017,4.22,1.407c2.969,1.212,5.393,3.4,7.269,6.565
	c2.657,6.448,3.986,11.216,3.986,14.302v2.345c0,10.239-2.97,17.664-8.91,22.274c6.877,1.642,10.863,9.77,11.958,24.384v8.91
	c0,1.329,0.078,3.283,0.234,5.862l-0.703,0.469h-0.704l-0.938-0.704c-0.156-3.125-0.234-5.47-0.234-7.034v-8.44
	c0-5.862-1.798-11.879-5.393-18.054c-2.501-2.345-4.689-3.517-6.565-3.517h-0.234c0.156,3.361,0.234,5.861,0.234,7.503v8.91
	c0.313,7.737,0.469,12.114,0.469,13.13v0.469c-0.313,0.625-0.782,0.938-1.407,0.938c-0.234,0-0.625-0.313-1.172-0.938l0.234-1.641
	c-0.313-6.604-0.469-10.98-0.469-13.13V50.117c-0.665,0-1.134-0.313-1.407-0.938v-0.704c0.313-0.625,0.704-0.938,1.172-0.938
	c-0.782-21.454-1.798-37.006-3.048-46.658L252.927,0.176z M254.803,3.458c0.938,11.411,1.797,25.556,2.579,42.438
	c6.096-4.142,9.144-10.786,9.144-19.93v-3.282c0-4.104-1.72-9.339-5.158-15.709c-2.579-2.344-4.534-3.517-5.862-3.517H254.803z"/>
<path fill="#C9C9C9" d="M299.468,7.21h1.642c2.813,0.508,4.22,1.524,4.22,3.048c0,0.234-0.313,0.548-0.938,0.938h-0.938
	c-1.017-1.25-2.11-1.876-3.282-1.876c-3.908,1.369-5.862,2.619-5.862,3.751c-3.126,5.94-4.689,14.068-4.689,24.384v3.986
	c0,6.956,0.938,15.319,2.813,25.087c1.133,7.151,2.696,11.997,4.689,14.537c2.423,2.11,4.533,3.205,6.331,3.282
	c2.306,0,4.807-1.719,7.503-5.158h0.704c0.234,0,0.469,0.234,0.703,0.704v0.469c0,1.407-1.72,3.205-5.158,5.393
	c-1.446,0.625-2.775,0.938-3.986,0.938h-0.234c-2.306-0.273-4.729-1.524-7.269-3.751c-2.775-2.188-5.197-11.098-7.268-26.729
	c-0.782-3.36-1.172-8.909-1.172-16.646v-1.407c0.273-15.827,2.852-25.595,7.737-29.308C297.319,7.757,298.804,7.21,299.468,7.21z"/>
<path fill="#C9C9C9" d="M341.32,0h0.469c0.625,0.313,0.938,0.704,0.938,1.172c0,7.347-0.157,13.052-0.469,17.116l0.469,24.384
	c0.313,0.508,0.469,0.899,0.469,1.172c-0.156,0.469-0.313,0.703-0.469,0.703c0.313,7.308,0.547,20.047,0.703,38.218
	c-0.156,0.821-0.234,2.384-0.234,4.689l-0.703,0.469h-0.704l-0.938-0.704c0-1.68,0.078-3.008,0.235-3.986
	c-0.157-21.375-0.391-34.192-0.704-38.452c-7.347,0.156-11.489,0.391-12.426,0.703c0.312,2.893,0.469,5.784,0.469,8.675
	c0,6.213-0.079,11.685-0.234,16.413c0.156,2.658,0.234,7.816,0.234,15.475c-0.508,0.313-0.978,0.469-1.407,0.469
	c-0.234,0-0.548-0.313-0.938-0.938v-2.11c0-6.369-0.079-10.668-0.234-12.896c0.156-3.83,0.234-8.519,0.234-14.068v-3.517
	c-0.469-7.659-0.703-12.973-0.703-15.943c0.469-17.428,0.703-28.526,0.703-33.294c-0.157-0.625-0.234-1.172-0.234-1.641l0.938-0.704
	h0.469c0.781,0.469,1.172,1.095,1.172,1.876c0,2.892-0.234,14.615-0.704,35.169v4.22l0.235,0.469
	c1.016-0.312,5.158-0.546,12.426-0.703c-0.157-5.666-0.234-9.73-0.234-12.192V19.46c0-0.352-0.079-0.664-0.234-0.938l0.234-0.469
	c0.156-7.503,0.234-13.286,0.234-17.35L341.32,0z"/>
<path fill="#C9C9C9" d="M364.532,6.975H365c1.094,0,1.641,4.143,1.641,12.427v3.048c0,3.048-0.469,10.942-1.407,23.681
	c0,0.625,0.078,1.251,0.234,1.875c-0.156,8.168-0.234,14.654-0.234,19.46v15.24c0,0.313,0.156,1.094,0.469,2.345
	c-0.196,1.094-0.508,1.641-0.938,1.641h-0.938c-0.625,0-0.938-2.11-0.938-6.331c0-27.119,0.469-45.798,1.407-56.037v-6.565
	c0-3.634-0.234-6.917-0.703-9.848C363.594,7.679,363.906,7.366,364.532,6.975z"/>
<path fill="#C9C9C9" d="M385.517,5.745c0.859,0,4.396,10.648,10.609,31.945c0.898,5.041,4.689,17.702,11.372,37.983h0.645V73.68
	c-0.899-18.992-1.348-29.66-1.348-32.004c0-0.703,0.097-3.086,0.293-7.151c-0.039-0.469-0.059-1.387-0.059-2.755
	c0.313-3.087,0.469-5.548,0.469-7.386V7.737c0.117-0.898,0.546-1.348,1.29-1.348l1.348,0.704
	c-0.431,8.871-0.645,15.533-0.645,19.988v6.624c0,13.599,0.43,31.145,1.29,52.637l-1.29,0.645c-0.899,0-6.448-17.311-16.647-51.934
	l-6.154-21.16l-0.469-0.762l-0.059,1.29c0.273,3.283,0.41,5.862,0.41,7.737l0.059,1.993c-0.313,8.675-0.469,14.752-0.469,18.229
	c0,17.507,0.664,31.926,1.993,43.258h-1.348c-0.86,0-1.29-0.43-1.29-1.29c-0.899-13.637-1.348-25.85-1.348-36.635V7.093
	C384.324,6.194,384.773,5.745,385.517,5.745z"/>
<path fill="#C9C9C9" d="M436.688,9.789h0.469c2.969,0,5.313,1.094,7.034,3.282v0.469c0,0.234-0.313,0.547-0.938,0.938
	c-0.313,0-1.329-0.547-3.048-1.641c-1.017-0.469-2.11-0.704-3.283-0.704h-0.938c-4.689,1.134-7.034,14.499-7.034,40.093
	c0,12.075,1.407,21.298,4.22,27.667c0.899,1.875,2.697,3.361,5.393,4.455h0.938c2.814-0.547,4.221-1.719,4.221-3.517
	c0.546,0,1.328-4.689,2.344-14.067V55.275l-0.234-1.172c-0.156,0-0.234,0.079-0.234,0.234c-6.252-0.469-9.378-0.938-9.378-1.407
	l-0.234-1.172v-0.234c0-0.234,0.234-0.469,0.703-0.704h0.704c0.507,0.391,3.869,0.86,10.082,1.407
	c0.625,0.625,0.938,2.11,0.938,4.455v5.861c0,0.899-0.079,2.15-0.234,3.751c0.156,0.313,0.234,0.548,0.234,0.704
	c-1.055,12.349-2.853,18.522-5.393,18.522c0,0.313-1.172,0.704-3.517,1.172h-0.938c-2.541-0.586-4.807-2.071-6.8-4.455
	c-3.439-6.526-5.158-16.608-5.158-30.246c0-25.751,2.579-39.741,7.737-41.969L436.688,9.789z"/>
<path fill="#C9C9C9" d="M509.958,7.503l0.703,0.879v0.41c0,0.196-0.391,0.567-1.172,1.114h-2.345c-4.142,0-6.956,1.544-8.44,4.63
	c-1.251,3.4-1.875,7.19-1.875,11.372c0,2.579,1.093,6.761,3.282,12.544c0.781,1.563,5.001,5.803,12.661,12.72
	c3.907,5.627,5.861,11.176,5.861,16.646c0,4.338-0.938,8.578-2.813,12.72c-0.86,1.955-3.204,3.634-7.034,5.041
	c-1.368,0.743-2.461,1.114-3.282,1.114c-0.82,0-1.368-0.293-1.641-0.879v-0.645c0-0.43,0.859-0.723,2.579-0.879
	c5.157-1.954,7.736-4.005,7.736-6.155c1.407-2.813,2.11-6.467,2.11-10.961c0-5.9-2.657-11.684-7.972-17.35
	c-4.181-3.166-7.307-6.233-9.378-9.203c-1.407-1.524-2.813-5.548-4.22-12.075c0-0.781-0.079-1.797-0.234-3.048
	c0-5.001,0.938-9.457,2.813-13.365C499.445,9.047,503.666,7.503,509.958,7.503z"/>
<path fill="#C9C9C9" d="M541.2,6.272c4.415,0,7.933,10.551,10.551,31.652c0.155,1.993,0.234,4.572,0.234,7.737V46.6
	c0,0.548-0.079,1.251-0.234,2.11c0.155,0.196,0.234,0.743,0.234,1.641v0.234c0,0.899-0.079,1.446-0.234,1.641
	c0.155,0.821,0.234,1.29,0.234,1.407c0,16.491-2.267,26.651-6.8,30.48c-1.603,0.625-2.696,0.938-3.282,0.938h-1.641
	c-5.628-1.368-9.145-8.636-10.552-21.805l-0.703-9.613c0-22,2.735-37.24,8.206-45.72C538.659,6.82,539.988,6.272,541.2,6.272z
	 M531.352,52.93c0,8.832,1.173,16.569,3.517,23.212c2.188,4.377,4.142,6.565,5.862,6.565h0.234c3.165,0,5.196-2.188,6.096-6.565
	c1.719-4.064,2.579-12.739,2.579-26.025v-4.689c0-9.183-1.641-19.733-4.924-31.652c-1.172-2.618-2.345-4.338-3.517-5.158
	c-1.837,0.703-2.931,1.563-3.282,2.579C533.541,20.457,531.352,34.369,531.352,52.93z"/>
<path fill="#C9C9C9" d="M567.167,5.451c0.938,0.313,5.959,12.837,15.064,37.573h0.645c0-1.68,3.868-13.754,11.605-36.225h0.704
	l0.586,1.114l0.059,2.345c-0.431,13.99-0.645,25.811-0.645,35.462c0,3.713,0.683,17.136,2.051,40.269l-1.406,0.704
	c-0.899,0-1.798-12.739-2.696-38.218V19.812h-0.703c-5.667,17.625-8.852,26.71-9.555,27.256
	c-1.368-0.078-5.686-10.316-12.954-30.714h-0.703v0.703l3.399,67.584l-1.349,0.704c-0.899,0-1.348-0.469-1.348-1.407
	c-1.368-40.875-2.735-66.802-4.104-77.783L567.167,5.451z"/>
<path fill="#C9C9C9" d="M619.217,5.862l0.469,0.234c0.155,0,0.234-0.078,0.234-0.234c5.001,0.469,7.503,1.017,7.503,1.641v0.234
	c-0.274,0.782-0.665,1.172-1.173,1.172l-6.799-0.704c-0.431,0-1.993,0.079-4.689,0.235l0.234,2.813
	c0,2.541,0.39,12.857,1.172,30.949h1.642c1.289,0,2.306-0.078,3.048-0.235c3.518,0.313,6.097,0.469,7.737,0.469l0.703,0.938v0.703
	c0,0.469-0.313,0.704-0.938,0.704c-1.368,0-3.634-0.156-6.8-0.469c-2.109,0.157-3.907,0.234-5.393,0.234v0.938
	c0,11.02,0.547,23.76,1.642,38.218c0.155,0,0.234,0.079,0.234,0.234c5.9-0.313,9.417-0.469,10.551-0.469
	c0.664,0.196,1.133,0.586,1.407,1.172v0.235c0,0.234-0.313,0.547-0.938,0.938c-5.94,0.157-9.535,0.313-10.785,0.469
	c-1.876,0-2.813-1.016-2.813-3.048c-1.095-14.927-1.642-27.354-1.642-37.279v-7.503c-0.781-13.755-1.172-23.055-1.172-27.901
	c-0.469-2.345-0.703-3.595-0.703-3.751l0.938-0.703h2.579C616.364,6.096,617.614,6.018,619.217,5.862z"/>
<path fill="#C9C9C9" d="M665.699,10.375l0.704,0.821v0.586c0,0.665-2.189,0.997-6.565,0.997h-6.564c-0.234,0-0.47,0.274-0.704,0.821
	l0.47,10.727c-0.157,0.977-0.235,1.524-0.235,1.641c1.407,23.643,2.11,40.583,2.11,50.82c0.156,0.274,0.234,0.489,0.234,0.645
	c-0.156,0.234-0.234,0.43-0.234,0.586l0.234,1.407c-0.234,0.548-0.469,0.821-0.703,0.821h-0.938c-0.157,0-0.469-0.273-0.938-0.821
	c0-0.273,0.078-1.016,0.234-2.227c0-3.36-0.703-20.242-2.109-50.644c0-4.962-0.157-9.476-0.47-13.541l-0.469-0.234h-0.703
	l-7.503,0.645c-0.469-0.507-0.703-1.113-0.703-1.817c0-0.234,0.313-0.507,0.938-0.821c1.094,0.274,1.72,0.411,1.876,0.411
	c3.009-0.273,5.119-0.411,6.33-0.411h9.613C661.596,10.785,663.627,10.649,665.699,10.375z"/>
<path fill="#C9C9C9" d="M696.531,0H697c0.624,0.313,0.938,0.704,0.938,1.172c0,7.347-0.156,13.052-0.469,17.116l0.469,24.384
	c0.313,0.508,0.469,0.899,0.469,1.172c-0.156,0.469-0.313,0.703-0.469,0.703c0.313,7.308,0.547,20.047,0.703,38.218
	c-0.156,0.821-0.234,2.384-0.234,4.689l-0.703,0.469H697l-0.938-0.704c0-1.68,0.078-3.008,0.234-3.986
	c-0.156-21.375-0.391-34.192-0.703-38.452c-7.347,0.156-11.488,0.391-12.427,0.703c0.313,2.893,0.469,5.784,0.469,8.675
	c0,6.213-0.078,11.685-0.234,16.413c0.156,2.658,0.234,7.816,0.234,15.475c-0.508,0.313-0.977,0.469-1.406,0.469
	c-0.234,0-0.548-0.313-0.938-0.938v-2.11c0-6.369-0.079-10.668-0.235-12.896c0.156-3.83,0.235-8.519,0.235-14.068v-3.517
	c-0.47-7.659-0.704-12.973-0.704-15.943c0.469-17.428,0.704-28.526,0.704-33.294c-0.157-0.625-0.235-1.172-0.235-1.641l0.938-0.704
	h0.469c0.781,0.469,1.172,1.095,1.172,1.876c0,2.892-0.234,14.615-0.703,35.169v4.22l0.234,0.469
	c1.016-0.312,5.158-0.546,12.427-0.703c-0.156-5.666-0.234-9.73-0.234-12.192V19.46c0-0.352-0.079-0.664-0.234-0.938l0.234-0.469
	c0.155-7.503,0.234-13.286,0.234-17.35L696.531,0z"/>
<path fill="#C9C9C9" d="M719.744,6.975h0.469c1.094,0,1.642,4.143,1.642,12.427v3.048c0,3.048-0.47,10.942-1.407,23.681
	c0,0.625,0.078,1.251,0.234,1.875c-0.156,8.168-0.234,14.654-0.234,19.46v15.24c0,0.313,0.156,1.094,0.469,2.345
	c-0.195,1.094-0.508,1.641-0.938,1.641h-0.938c-0.626,0-0.938-2.11-0.938-6.331c0-27.119,0.469-45.798,1.407-56.037v-6.565
	c0-3.634-0.234-6.917-0.704-9.848C718.805,7.679,719.118,7.366,719.744,6.975z"/>
<path fill="#C9C9C9" d="M740.727,5.745c0.859,0,4.396,10.648,10.609,31.945c0.898,5.041,4.689,17.702,11.372,37.983h0.645V73.68
	c-0.899-18.992-1.348-29.66-1.348-32.004c0-0.703,0.097-3.086,0.293-7.151c-0.04-0.469-0.059-1.387-0.059-2.755
	c0.312-3.087,0.469-5.548,0.469-7.386V7.737c0.117-0.898,0.547-1.348,1.289-1.348l1.349,0.704
	c-0.431,8.871-0.645,15.533-0.645,19.988v6.624c0,13.599,0.429,31.145,1.289,52.637l-1.289,0.645
	c-0.899,0-6.448-17.311-16.647-51.934l-6.154-21.16l-0.469-0.762l-0.059,1.29c0.272,3.283,0.41,5.862,0.41,7.737l0.059,1.993
	c-0.313,8.675-0.469,14.752-0.469,18.229c0,17.507,0.664,31.926,1.992,43.258h-1.348c-0.86,0-1.29-0.43-1.29-1.29
	c-0.899-13.637-1.348-25.85-1.348-36.635V7.093C739.535,6.194,739.985,5.745,740.727,5.745z"/>
<path fill="#C9C9C9" d="M791.9,9.789h0.469c2.969,0,5.313,1.094,7.033,3.282v0.469c0,0.234-0.313,0.547-0.938,0.938
	c-0.313,0-1.329-0.547-3.048-1.641c-1.017-0.469-2.11-0.704-3.282-0.704h-0.938c-4.688,1.134-7.033,14.499-7.033,40.093
	c0,12.075,1.406,21.298,4.22,27.667c0.898,1.875,2.696,3.361,5.393,4.455h0.938c2.813-0.547,4.22-1.719,4.22-3.517
	c0.547,0,1.328-4.689,2.345-14.067V55.275l-0.234-1.172c-0.156,0-0.234,0.079-0.234,0.234c-6.253-0.469-9.379-0.938-9.379-1.407
	l-0.234-1.172v-0.234c0-0.234,0.234-0.469,0.704-0.704h0.703c0.507,0.391,3.868,0.86,10.082,1.407
	c0.624,0.625,0.938,2.11,0.938,4.455v5.861c0,0.899-0.079,2.15-0.234,3.751c0.155,0.313,0.234,0.548,0.234,0.704
	c-1.055,12.349-2.853,18.522-5.393,18.522c0,0.313-1.172,0.704-3.517,1.172h-0.938c-2.54-0.586-4.807-2.071-6.799-4.455
	c-3.439-6.526-5.158-16.608-5.158-30.246c0-25.751,2.579-39.741,7.737-41.969L791.9,9.789z"/>
<path fill="#C9C9C9" d="M861.77,5.862l0.469,0.234c0.155,0,0.234-0.078,0.234-0.234c5.001,0.469,7.503,1.017,7.503,1.641v0.234
	c-0.274,0.782-0.665,1.172-1.173,1.172l-6.799-0.704c-0.431,0-1.993,0.079-4.689,0.235l0.234,2.813
	c0,2.541,0.39,12.857,1.172,30.949h1.642c1.289,0,2.306-0.078,3.048-0.235c3.518,0.313,6.097,0.469,7.737,0.469l0.703,0.938v0.703
	c0,0.469-0.313,0.704-0.938,0.704c-1.368,0-3.634-0.156-6.8-0.469c-2.109,0.157-3.907,0.234-5.393,0.234v0.938
	c0,11.02,0.547,23.76,1.642,38.218c0.155,0,0.234,0.079,0.234,0.234c5.9-0.313,9.417-0.469,10.551-0.469
	c0.664,0.196,1.133,0.586,1.407,1.172v0.235c0,0.234-0.313,0.547-0.938,0.938c-5.94,0.157-9.535,0.313-10.785,0.469
	c-1.876,0-2.813-1.016-2.813-3.048c-1.095-14.927-1.642-27.354-1.642-37.279v-7.503c-0.781-13.755-1.172-23.055-1.172-27.901
	c-0.469-2.345-0.703-3.595-0.703-3.751l0.938-0.703h2.579C858.917,6.096,860.167,6.018,861.77,5.862z"/>
<path fill="#C9C9C9" d="M888.264,2.521h0.234c0.234,0,0.547,0.313,0.938,0.938c0,0.782-0.156,1.172-0.469,1.172l0.234,0.469
	c1.094,17.038,1.642,31.418,1.642,43.141c0.469,3.791,0.703,9.027,0.703,15.709v20.398h12.661c0.234,0,0.469,0.234,0.703,0.704
	v0.703c0,0.625-1.329,0.938-3.985,0.938h-10.786c-0.234,0-0.547-0.313-0.938-0.938v-1.407c0-1.093,0.078-1.641,0.234-1.641
	l-0.234-2.813V62.778c-0.625-20.594-1.251-37.709-1.876-51.348l-0.703-7.737C886.857,2.912,887.404,2.521,888.264,2.521z"/>
<path fill="#C9C9C9" d="M932.578,7.503l0.703,0.879v0.41c0,0.196-0.391,0.567-1.172,1.114h-2.345c-4.143,0-6.956,1.544-8.441,4.63
	c-1.251,3.4-1.875,7.19-1.875,11.372c0,2.579,1.094,6.761,3.282,12.544c0.781,1.563,5.002,5.803,12.661,12.72
	c3.907,5.627,5.861,11.176,5.861,16.646c0,4.338-0.938,8.578-2.813,12.72c-0.86,1.955-3.204,3.634-7.034,5.041
	c-1.368,0.743-2.462,1.114-3.282,1.114s-1.368-0.293-1.642-0.879v-0.645c0-0.43,0.859-0.723,2.579-0.879
	c5.158-1.954,7.737-4.005,7.737-6.155c1.407-2.813,2.11-6.467,2.11-10.961c0-5.9-2.657-11.684-7.972-17.35
	c-4.182-3.166-7.308-6.233-9.378-9.203c-1.407-1.524-2.814-5.548-4.221-12.075c0-0.781-0.079-1.797-0.234-3.048
	c0-5.001,0.938-9.457,2.813-13.365C922.065,9.047,926.286,7.503,932.578,7.503z"/>
<path fill="#C9C9C9" d="M962.882,5.862l0.469,0.234c0.155,0,0.234-0.078,0.234-0.234c5.001,0.469,7.503,1.017,7.503,1.641v0.234
	c-0.274,0.782-0.665,1.172-1.173,1.172l-6.799-0.704c-0.431,0-1.993,0.079-4.689,0.235l0.234,2.813
	c0,2.541,0.39,12.857,1.172,30.949h1.642c1.289,0,2.306-0.078,3.048-0.235c3.518,0.313,6.097,0.469,7.737,0.469l0.703,0.938v0.703
	c0,0.469-0.313,0.704-0.938,0.704c-1.368,0-3.634-0.156-6.8-0.469c-2.109,0.157-3.907,0.234-5.393,0.234v0.938
	c0,11.02,0.547,23.76,1.642,38.218c0.155,0,0.234,0.079,0.234,0.234c5.9-0.313,9.417-0.469,10.551-0.469
	c0.664,0.196,1.133,0.586,1.407,1.172v0.235c0,0.234-0.313,0.547-0.938,0.938c-5.94,0.157-9.535,0.313-10.785,0.469
	c-1.876,0-2.813-1.016-2.813-3.048c-1.095-14.927-1.642-27.354-1.642-37.279v-7.503c-0.781-13.755-1.172-23.055-1.172-27.901
	c-0.469-2.345-0.703-3.595-0.703-3.751l0.938-0.703h2.579C960.029,6.096,961.279,6.018,962.882,5.862z"/>
<path fill="#C9C9C9" d="M997.641,7.444c3.048,0,5.939,1.329,8.675,3.986c2.188,2.775,3.283,5.354,3.283,7.737v1.641
	c0,7.854-2.189,15.357-6.565,22.509c-1.251,2.579-1.876,6.644-1.876,12.192c0.313,2.579,0.469,4.611,0.469,6.096v2.579
	c0,0.82-0.313,1.368-0.938,1.641h-0.703c-0.392,0-0.626-0.313-0.703-0.938c0-0.703,0.077-1.172,0.234-1.407
	c0-0.195-0.234-2.852-0.704-7.972c0-7.854,1.563-13.872,4.689-18.054c2.657-5.666,3.986-11.372,3.986-17.116
	c0-3.321-1.563-6.291-4.689-8.91c-2.424-1.094-4.299-1.641-5.627-1.641c-5.003,1.368-7.503,3.556-7.503,6.565v2.11l0.703,0.938
	v0.234c0,0.821-0.313,1.369-0.938,1.642h-0.938c-0.782-0.391-1.172-1.016-1.172-1.876V16.12c0-3.986,3.126-6.877,9.379-8.675
	H997.641z M999.986,81.3h0.703c0.195,0,0.586,0.391,1.173,1.172v1.172c0,1.251-0.626,1.875-1.876,1.875
	c-1.251,0-1.955-0.781-2.11-2.345C997.954,82.668,998.657,82.043,999.986,81.3z"/>
<path fill="#D6D6D6" d="M462.889,176.852c0,1.976-1.154,2.963-3.458,2.963h-1.976c-0.494,0-1.154-0.659-1.976-1.976v-0.494
	c0-1.812,0.988-3.129,2.964-3.951h0.988C461.735,173.394,462.889,174.546,462.889,176.852z M523.644,175.863v0.988
	c-0.247,2.633-1.401,3.951-3.458,3.951l-0.987-0.494l-0.988,0.494c-2.306-0.988-3.457-2.47-3.457-4.445v-0.988
	c0.821-1.647,2.14-2.47,3.951-2.47h1.976C521.174,172.899,522.162,173.888,523.644,175.863z"/>
<path fill="#D6D6D6" d="M575.878,214.021v0.987c0,0.658-3.17,2.304-9.509,4.939c-8.974,5.928-22.187,10.866-39.639,14.818
	c-18.689,3.951-35.317,5.927-49.888,5.927h-8.891c-39.515,0-71.044-4.939-94.59-14.817l-0.617-1.977
	c0.66-1.317,1.277-1.976,1.852-1.976h1.358c25.685,9.219,54.909,13.83,87.675,13.83h13.213c20.826,0,43.754-3.787,68.782-11.36
	l25.809-12.348h1.976C574.066,212.045,574.89,212.702,575.878,214.021z"/>
</svg>