<?xml version="1.0" encoding="utf-8"?>
<!-- Generator: Adobe Illustrator 15.1.0, SVG Export Plug-In  -->
<!DOCTYPE svg PUBLIC "-//W3C//DTD SVG 1.1//EN" "http://www.w3.org/Graphics/SVG/1.1/DTD/svg11.dtd" [
	<!ENTITY ns_flows "http://ns.adobe.com/Flows/1.0/">
]>
<svg version="1.1"
	 xmlns="http://www.w3.org/2000/svg" xmlns:xlink="http://www.w3.org/1999/xlink" xmlns:a="http://ns.adobe.com/AdobeSVGViewerExtensions/3.0/"
	 x="0px" y="0px" width="1024px" height="175px" viewBox="0 0.073 1024 175" enable-background="new 0 0.073 1024 175"
	 xml:space="preserve">
<defs>
</defs>
<path fill="#FFF" d="M29.664,10.376l0.703,0.821v0.586c0,0.665-2.189,0.997-6.566,0.997h-6.566c-0.234,0-0.469,0.273-0.703,0.82L17,24.329
	c-0.157,0.978-0.234,1.524-0.234,1.642c1.407,23.646,2.11,40.588,2.11,50.827c0.156,0.273,0.234,0.489,0.234,0.645
	c-0.156,0.234-0.234,0.431-0.234,0.586l0.234,1.407c-0.234,0.548-0.469,0.821-0.703,0.821H17.47c-0.157,0-0.469-0.273-0.938-0.821
	c0-0.272,0.078-1.016,0.234-2.228c0-3.361-0.704-20.245-2.11-50.651c0-4.963-0.157-9.478-0.469-13.542l-0.469-0.234h-0.704
	L5.51,13.425c-0.469-0.508-0.704-1.114-0.704-1.817c0-0.234,0.313-0.508,0.938-0.821c1.094,0.274,1.719,0.411,1.876,0.411
	c3.009-0.273,5.12-0.411,6.332-0.411h9.614C25.56,10.786,27.591,10.65,29.664,10.376z"/>
<path fill="#FFF" d="M44.261,0.176h0.469c0.43,0.548,1.837,1.017,4.221,1.407c2.97,1.212,5.393,3.399,7.269,6.565
	c2.658,6.449,3.987,11.218,3.987,14.305v2.345c0,10.24-2.971,17.666-8.911,22.277c6.878,1.642,10.865,9.771,11.959,24.388v8.911
	c0,1.329,0.078,3.282,0.234,5.862l-0.704,0.469h-0.703l-0.938-0.703c-0.157-3.127-0.235-5.472-0.235-7.035v-8.442
	c0-5.862-1.798-11.88-5.393-18.056c-2.502-2.346-4.69-3.518-6.566-3.518h-0.235c0.156,3.361,0.235,5.862,0.235,7.504v8.911
	c0.312,7.738,0.469,12.115,0.469,13.132v0.469c-0.313,0.626-0.782,0.938-1.407,0.938c-0.235,0-0.626-0.312-1.173-0.938l0.235-1.642
	c-0.313-6.604-0.469-10.982-0.469-13.132v-14.07c-0.665,0-1.134-0.312-1.407-0.938v-0.703c0.312-0.625,0.703-0.938,1.172-0.938
	c-0.782-21.456-1.798-37.011-3.048-46.665L44.261,0.176z M46.137,3.459c0.938,11.412,1.797,25.56,2.579,42.443
	c6.097-4.142,9.146-10.787,9.146-19.932v-3.283c0-4.104-1.72-9.341-5.159-15.712c-2.58-2.345-4.534-3.517-5.863-3.517H46.137z"/>
<path fill="#FFF" d="M100.833,9.79h0.469c0.235,0,0.547,0.313,0.938,0.938v0.235c-1.251,11.178-2.579,22.121-3.986,32.829l0.234,1.407v0.703
	c-0.547,0-1.407,7.738-2.579,23.216c-0.469,7.738-1.017,13.522-1.642,17.353l-0.469,0.234h-0.703
	c-0.313-0.078-0.626-0.469-0.938-1.173c1.719-20.596,2.97-34.04,3.752-40.333c-4.221-9.184-9.771-18.408-16.649-27.671
	c-1.251-0.898-1.876-1.759-1.876-2.579v-0.47c0-0.234,0.313-0.547,0.938-0.938h0.938c0.507,0.196,0.977,0.978,1.407,2.345
	c6.253,7.738,11.412,15.946,15.477,24.622h0.234c1.719-14.891,2.97-24.974,3.752-30.25L100.833,9.79z"/>
<path fill="#FFF" d="M159.165,7.504l0.703,0.879v0.41c0,0.196-0.391,0.567-1.172,1.114h-2.345c-4.143,0-6.957,1.544-8.442,4.631
	c-1.251,3.4-1.876,7.192-1.876,11.374c0,2.579,1.094,6.762,3.283,12.545c0.781,1.563,5.002,5.804,12.663,12.722
	c3.908,5.628,5.862,11.178,5.862,16.649c0,4.338-0.938,8.579-2.814,12.722c-0.86,1.954-3.205,3.635-7.035,5.041
	c-1.368,0.743-2.462,1.114-3.283,1.114s-1.369-0.293-1.642-0.879v-0.646c0-0.43,0.859-0.723,2.58-0.879
	c5.159-1.954,7.738-4.006,7.738-6.156c1.407-2.813,2.11-6.468,2.11-10.962c0-5.901-2.658-11.686-7.973-17.354
	c-4.183-3.165-7.309-6.233-9.38-9.204c-1.407-1.523-2.814-5.549-4.221-12.076c0-0.781-0.079-1.797-0.234-3.049
	c0-5.002,0.938-9.457,2.814-13.366C148.65,9.048,152.872,7.504,159.165,7.504z"/>
<path fill="#FFF" d="M189.473,5.862l0.469,0.234c0.155,0,0.234-0.078,0.234-0.234c5.002,0.469,7.504,1.017,7.504,1.642v0.234
	c-0.274,0.782-0.665,1.172-1.172,1.172l-6.801-0.703c-0.43,0-1.993,0.079-4.69,0.234l0.235,2.814c0,2.541,0.39,12.858,1.172,30.953
	h1.642c1.29,0,2.305-0.077,3.048-0.234c3.518,0.313,6.097,0.469,7.738,0.469l0.704,0.938v0.703c0,0.47-0.313,0.704-0.938,0.704
	c-1.369,0-3.635-0.156-6.8-0.47c-2.111,0.157-3.909,0.235-5.394,0.235v0.938c0,11.021,0.547,23.763,1.642,38.223
	c0.155,0,0.234,0.079,0.234,0.235c5.901-0.313,9.418-0.47,10.552-0.47c0.664,0.196,1.133,0.587,1.407,1.173v0.234
	c0,0.234-0.313,0.548-0.938,0.938c-5.941,0.156-9.537,0.313-10.787,0.469c-1.876,0-2.814-1.016-2.814-3.049
	c-1.095-14.929-1.642-27.357-1.642-37.285v-7.504c-0.782-13.756-1.172-23.059-1.172-27.905c-0.469-2.345-0.704-3.595-0.704-3.752
	l0.938-0.703h2.58C186.62,6.097,187.87,6.019,189.473,5.862z"/>
<path fill="#FFF" d="M221.716,6.683h0.235c2.228,1.017,4.123,3.772,5.687,8.267c4.338,13.445,7.542,30.622,9.614,51.53
	c1.368,6.801,2.052,12.761,2.052,17.881c-0.196,0.508-0.724,0.762-1.583,0.762c-0.626-1.211-1.564-7.425-2.814-18.643
	c-0.352-1.211-1.134-6.39-2.345-15.535l-1.817-0.234c-8.442,0.782-12.663,1.642-12.663,2.579v9.087l-1.583,21.75
	c0.352,0.548,0.527,1.055,0.527,1.523c0,0.274-0.352,0.626-1.055,1.056c-1.368,0-2.052-0.859-2.052-2.579
	c1.211-16.493,1.817-26.42,1.817-29.781c-0.157-2.149-0.234-4.318-0.234-6.508c0.078-11.256,1.016-23.156,2.814-35.702
	C219.058,8.5,220.192,6.683,221.716,6.683z M221.716,9.79c-2.267,8.755-3.4,20.069-3.4,33.943c-0.157,0-0.234,1.896-0.234,5.687
	v0.763c4.924-1.368,9.673-2.053,14.246-2.053v-0.293c0-4.768-2.6-16.063-7.797-33.885C223.396,11.49,222.458,10.104,221.716,9.79z"
	/>
<path fill="#FFF" d="M257.771,0.176h0.469c0.43,0.548,1.837,1.017,4.221,1.407c2.97,1.212,5.393,3.399,7.269,6.565
	c2.658,6.449,3.987,11.218,3.987,14.305v2.345c0,10.24-2.971,17.666-8.911,22.277c6.878,1.642,10.865,9.771,11.959,24.388v8.911
	c0,1.329,0.078,3.282,0.234,5.862l-0.704,0.469h-0.703l-0.938-0.703c-0.157-3.127-0.235-5.472-0.235-7.035v-8.442
	c0-5.862-1.798-11.88-5.393-18.056c-2.502-2.346-4.69-3.518-6.566-3.518h-0.235c0.156,3.361,0.235,5.862,0.235,7.504v8.911
	c0.312,7.738,0.469,12.115,0.469,13.132v0.469c-0.313,0.626-0.782,0.938-1.407,0.938c-0.235,0-0.626-0.312-1.173-0.938l0.235-1.642
	c-0.313-6.604-0.469-10.982-0.469-13.132v-14.07c-0.665,0-1.134-0.312-1.407-0.938v-0.703c0.312-0.625,0.703-0.938,1.172-0.938
	c-0.782-21.456-1.798-37.011-3.048-46.665L257.771,0.176z M259.646,3.459c0.938,11.412,1.797,25.56,2.579,42.443
	c6.097-4.142,9.146-10.787,9.146-19.932v-3.283c0-4.104-1.72-9.341-5.159-15.712c-2.58-2.345-4.534-3.517-5.863-3.517H259.646z"/>
<path fill="#FFF" d="M304.318,7.211h1.642c2.814,0.508,4.221,1.523,4.221,3.048c0,0.234-0.313,0.548-0.938,0.938h-0.938
	c-1.017-1.251-2.11-1.876-3.283-1.876c-3.909,1.368-5.862,2.618-5.862,3.752c-3.127,5.941-4.69,14.069-4.69,24.388v3.986
	c0,6.957,0.938,15.321,2.814,25.091c1.133,7.152,2.697,11.999,4.69,14.539c2.423,2.11,4.533,3.205,6.331,3.283
	c2.306,0,4.808-1.72,7.504-5.159h0.704c0.234,0,0.469,0.234,0.704,0.703v0.47c0,1.406-1.72,3.205-5.159,5.393
	c-1.446,0.626-2.775,0.938-3.986,0.938h-0.234c-2.307-0.273-4.729-1.524-7.27-3.752c-2.775-2.188-5.198-11.1-7.27-26.732
	c-0.782-3.361-1.172-8.911-1.172-16.649v-1.407c0.273-15.828,2.853-25.599,7.738-29.313C302.168,7.758,303.653,7.211,304.318,7.211z
	"/>
<path fill="#FFF" d="M346.176,0h0.469c0.625,0.313,0.938,0.703,0.938,1.172c0,7.349-0.157,13.055-0.469,17.118l0.469,24.389
	c0.312,0.508,0.469,0.899,0.469,1.172c-0.157,0.469-0.313,0.704-0.469,0.704c0.312,7.309,0.546,20.049,0.703,38.223
	c-0.157,0.82-0.234,2.384-0.234,4.689l-0.704,0.47h-0.703l-0.938-0.704c0-1.68,0.078-3.009,0.234-3.986
	c-0.157-21.378-0.391-34.197-0.704-38.457c-7.348,0.156-11.49,0.391-12.428,0.703c0.312,2.893,0.469,5.784,0.469,8.677
	c0,6.214-0.079,11.686-0.234,16.414c0.156,2.658,0.234,7.817,0.234,15.478c-0.508,0.313-0.977,0.469-1.407,0.469
	c-0.234,0-0.548-0.313-0.938-0.938v-2.11c0-6.369-0.079-10.669-0.234-12.897c0.155-3.829,0.234-8.52,0.234-14.069v-3.518
	c-0.469-7.659-0.704-12.976-0.704-15.946c0.469-17.43,0.704-28.529,0.704-33.298c-0.157-0.625-0.234-1.173-0.234-1.642l0.938-0.704
	h0.469c0.781,0.47,1.172,1.095,1.172,1.876c0,2.894-0.234,14.618-0.703,35.175v4.222l0.234,0.469
	c1.016-0.313,5.159-0.547,12.428-0.704c-0.157-5.666-0.234-9.731-0.234-12.193V19.463c0-0.352-0.079-0.664-0.234-0.938l0.234-0.47
	c0.156-7.504,0.234-13.287,0.234-17.353L346.176,0z"/>
<path fill="#FFF" d="M369.391,6.976h0.469c1.094,0,1.642,4.144,1.642,12.429v3.049c0,3.048-0.469,10.943-1.407,23.684
	c0,0.626,0.078,1.252,0.234,1.876c-0.156,8.169-0.234,14.656-0.234,19.464v15.242c0,0.313,0.156,1.095,0.469,2.345
	c-0.196,1.095-0.509,1.642-0.938,1.642h-0.938c-0.626,0-0.938-2.11-0.938-6.331c0-27.123,0.469-45.806,1.407-56.045v-6.566
	c0-3.635-0.234-6.917-0.704-9.849C368.453,7.68,368.766,7.367,369.391,6.976z"/>
<path fill="#FFF" d="M390.378,5.745c0.859,0,4.397,10.65,10.611,31.95c0.898,5.042,4.69,17.704,11.373,37.988h0.645V73.69
	c-0.899-18.994-1.348-29.664-1.348-32.009c0-0.703,0.097-3.087,0.293-7.152c-0.039-0.469-0.059-1.387-0.059-2.755
	c0.313-3.087,0.469-5.55,0.469-7.387V7.738c0.117-0.898,0.547-1.349,1.29-1.349L415,7.094c-0.43,8.872-0.645,15.535-0.645,19.99
	v6.625c0,13.601,0.43,31.149,1.29,52.645l-1.29,0.645c-0.899,0-6.449-17.313-16.649-51.941l-6.156-21.163l-0.469-0.762l-0.059,1.289
	c0.273,3.283,0.41,5.863,0.41,7.739l0.059,1.993c-0.313,8.676-0.469,14.754-0.469,18.231c0,17.51,0.664,31.932,1.993,43.265h-1.348
	c-0.86,0-1.29-0.429-1.29-1.289c-0.899-13.64-1.348-25.854-1.348-36.641V7.094C389.186,6.194,389.636,5.745,390.378,5.745z"/>
<path fill="#FFF" d="M441.558,9.79h0.469c2.969,0,5.314,1.095,7.035,3.283v0.469c0,0.234-0.313,0.548-0.938,0.938
	c-0.313,0-1.329-0.547-3.048-1.641c-1.017-0.47-2.11-0.704-3.283-0.704h-0.938c-4.69,1.134-7.035,14.501-7.035,40.1
	c0,12.076,1.407,21.301,4.221,27.67c0.899,1.876,2.697,3.362,5.394,4.456h0.938c2.814-0.547,4.221-1.72,4.221-3.518
	c0.546,0,1.328-4.69,2.345-14.07v-11.49l-0.234-1.172c-0.157,0-0.234,0.078-0.234,0.234c-6.254-0.47-9.38-0.938-9.38-1.407
	l-0.235-1.173V51.53c0-0.234,0.235-0.469,0.704-0.703h0.704c0.507,0.391,3.869,0.86,10.083,1.407
	c0.625,0.625,0.938,2.11,0.938,4.455v5.862c0,0.899-0.079,2.15-0.235,3.752c0.156,0.313,0.235,0.548,0.235,0.703
	c-1.056,12.351-2.854,18.525-5.394,18.525c0,0.313-1.172,0.704-3.518,1.173h-0.938c-2.541-0.586-4.807-2.071-6.8-4.455
	c-3.44-6.527-5.159-16.61-5.159-30.251c0-25.755,2.58-39.747,7.739-41.975L441.558,9.79z"/>
<path fill="#FFF" d="M514.838,7.504l0.704,0.879v0.41c0,0.196-0.392,0.567-1.173,1.114h-2.345c-4.143,0-6.957,1.544-8.442,4.631
	c-1.251,3.4-1.876,7.192-1.876,11.374c0,2.579,1.094,6.762,3.283,12.545c0.781,1.563,5.002,5.804,12.663,12.722
	c3.907,5.628,5.862,11.178,5.862,16.649c0,4.338-0.938,8.579-2.814,12.722c-0.859,1.954-3.205,3.635-7.034,5.041
	c-1.369,0.743-2.462,1.114-3.283,1.114s-1.369-0.293-1.642-0.879v-0.646c0-0.43,0.859-0.723,2.58-0.879
	c5.159-1.954,7.739-4.006,7.739-6.156c1.406-2.813,2.11-6.468,2.11-10.962c0-5.901-2.658-11.686-7.974-17.354
	c-4.182-3.165-7.309-6.233-9.379-9.204c-1.407-1.523-2.814-5.549-4.221-12.076c0-0.781-0.079-1.797-0.234-3.049
	c0-5.002,0.938-9.457,2.814-13.366C504.324,9.048,508.545,7.504,514.838,7.504z"/>
<path fill="#FFF" d="M546.085,6.272c4.416,0,7.933,10.553,10.552,31.657c0.156,1.993,0.234,4.572,0.234,7.738v0.938
	c0,0.548-0.078,1.251-0.234,2.11c0.156,0.195,0.234,0.742,0.234,1.642v0.234c0,0.899-0.078,1.446-0.234,1.642
	c0.156,0.82,0.234,1.289,0.234,1.406c0,16.494-2.267,26.655-6.8,30.485c-1.604,0.625-2.697,0.938-3.283,0.938h-1.642
	c-5.628-1.367-9.146-8.637-10.553-21.809l-0.703-9.614c0-22.003,2.735-37.245,8.207-45.727
	C543.544,6.82,544.873,6.272,546.085,6.272z M536.235,52.938c0,8.833,1.173,16.571,3.518,23.215
	c2.188,4.378,4.143,6.566,5.862,6.566h0.234c3.166,0,5.198-2.188,6.098-6.566c1.719-4.063,2.579-12.74,2.579-26.029v-4.689
	c0-9.184-1.642-19.736-4.925-31.657c-1.172-2.618-2.345-4.338-3.517-5.159c-1.838,0.704-2.932,1.563-3.283,2.58
	C538.424,20.46,536.235,34.374,536.235,52.938z"/>
<path fill="#FFF" d="M572.056,5.452c0.938,0.313,5.959,12.838,15.066,37.578h0.645c0-1.681,3.869-13.757,11.607-36.23h0.704l0.586,1.114
	l0.059,2.345c-0.431,13.992-0.645,25.815-0.645,35.468c0,3.714,0.684,17.139,2.052,40.275l-1.407,0.703
	c-0.899,0-1.798-12.74-2.696-38.223V19.814h-0.704c-5.667,17.627-8.852,26.714-9.556,27.261c-1.368-0.078-5.687-10.318-12.956-30.72
	h-0.703v0.704l3.4,67.594l-1.349,0.703c-0.899,0-1.349-0.469-1.349-1.406c-1.368-40.881-2.735-66.813-4.104-77.795L572.056,5.452z"
	/>
<path fill="#FFF" d="M624.113,5.862l0.469,0.234c0.156,0,0.234-0.078,0.234-0.234c5.003,0.469,7.504,1.017,7.504,1.642v0.234
	c-0.273,0.782-0.665,1.172-1.172,1.172l-6.801-0.703c-0.431,0-1.993,0.079-4.689,0.234l0.234,2.814
	c0,2.541,0.39,12.858,1.172,30.953h1.642c1.29,0,2.306-0.077,3.049-0.234c3.518,0.313,6.097,0.469,7.738,0.469l0.703,0.938v0.703
	c0,0.47-0.313,0.704-0.938,0.704c-1.368,0-3.635-0.156-6.801-0.47c-2.11,0.157-3.908,0.235-5.394,0.235v0.938
	c0,11.021,0.547,23.763,1.642,38.223c0.156,0,0.234,0.079,0.234,0.235c5.901-0.313,9.419-0.47,10.553-0.47
	c0.664,0.196,1.133,0.587,1.407,1.173v0.234c0,0.234-0.313,0.548-0.938,0.938c-5.941,0.156-9.536,0.313-10.786,0.469
	c-1.876,0-2.814-1.016-2.814-3.049c-1.095-14.929-1.642-27.357-1.642-37.285v-7.504c-0.782-13.756-1.172-23.059-1.172-27.905
	c-0.47-2.345-0.704-3.595-0.704-3.752l0.938-0.703h2.579C621.26,6.097,622.511,6.019,624.113,5.862z"/>
<path fill="#FFF" d="M670.603,10.376l0.703,0.821v0.586c0,0.665-2.189,0.997-6.565,0.997h-6.566c-0.234,0-0.469,0.273-0.703,0.82l0.469,10.729
	c-0.156,0.978-0.234,1.524-0.234,1.642c1.407,23.646,2.11,40.588,2.11,50.827c0.156,0.273,0.234,0.489,0.234,0.645
	c-0.156,0.234-0.234,0.431-0.234,0.586l0.234,1.407c-0.234,0.548-0.469,0.821-0.703,0.821h-0.938c-0.156,0-0.469-0.273-0.938-0.821
	c0-0.272,0.078-1.016,0.234-2.228c0-3.361-0.703-20.245-2.11-50.651c0-4.963-0.157-9.478-0.469-13.542l-0.47-0.234h-0.703
	l-7.504,0.645c-0.469-0.508-0.703-1.114-0.703-1.817c0-0.234,0.312-0.508,0.938-0.821c1.094,0.274,1.72,0.411,1.876,0.411
	c3.009-0.273,5.119-0.411,6.331-0.411h9.615C666.499,10.786,668.53,10.65,670.603,10.376z"/>
<path fill="#FFF" d="M701.439,0h0.469c0.625,0.313,0.938,0.703,0.938,1.172c0,7.349-0.157,13.055-0.469,17.118l0.469,24.389
	c0.313,0.508,0.469,0.899,0.469,1.172c-0.156,0.469-0.313,0.704-0.469,0.704c0.313,7.309,0.547,20.049,0.703,38.223
	c-0.156,0.82-0.234,2.384-0.234,4.689l-0.703,0.47h-0.704l-0.938-0.704c0-1.68,0.077-3.009,0.234-3.986
	c-0.157-21.378-0.392-34.197-0.703-38.457c-7.349,0.156-11.491,0.391-12.429,0.703c0.313,2.893,0.469,5.784,0.469,8.677
	c0,6.214-0.079,11.686-0.234,16.414c0.155,2.658,0.234,7.817,0.234,15.478c-0.508,0.313-0.978,0.469-1.407,0.469
	c-0.234,0-0.548-0.313-0.938-0.938v-2.11c0-6.369-0.079-10.669-0.234-12.897c0.155-3.829,0.234-8.52,0.234-14.069v-3.518
	c-0.469-7.659-0.703-12.976-0.703-15.946c0.469-17.43,0.703-28.529,0.703-33.298c-0.157-0.625-0.234-1.173-0.234-1.642l0.938-0.704
	h0.47c0.781,0.47,1.172,1.095,1.172,1.876c0,2.894-0.234,14.618-0.703,35.175v4.222l0.234,0.469
	c1.016-0.313,5.159-0.547,12.429-0.704c-0.157-5.666-0.235-9.731-0.235-12.193V19.463c0-0.352-0.078-0.664-0.234-0.938l0.234-0.47
	c0.156-7.504,0.235-13.287,0.235-17.353L701.439,0z"/>
<path fill="#FFF" d="M724.654,6.976h0.469c1.094,0,1.642,4.144,1.642,12.429v3.049c0,3.048-0.469,10.943-1.407,23.684
	c0,0.626,0.078,1.252,0.234,1.876c-0.156,8.169-0.234,14.656-0.234,19.464v15.242c0,0.313,0.155,1.095,0.469,2.345
	c-0.195,1.095-0.508,1.642-0.938,1.642h-0.938c-0.625,0-0.938-2.11-0.938-6.331c0-27.123,0.469-45.806,1.407-56.045v-6.566
	c0-3.635-0.235-6.917-0.704-9.849C723.716,7.68,724.028,7.367,724.654,6.976z"/>
<path fill="#FFF" d="M745.643,5.745c0.858,0,4.396,10.65,10.61,31.95c0.898,5.042,4.69,17.704,11.373,37.988h0.646V73.69
	c-0.899-18.994-1.349-29.664-1.349-32.009c0-0.703,0.097-3.087,0.293-7.152c-0.039-0.469-0.059-1.387-0.059-2.755
	c0.313-3.087,0.469-5.55,0.469-7.387V7.738c0.117-0.898,0.547-1.349,1.29-1.349l1.349,0.704c-0.431,8.872-0.646,15.535-0.646,19.99
	v6.625c0,13.601,0.43,31.149,1.29,52.645l-1.29,0.645c-0.899,0-6.448-17.313-16.648-51.941l-6.156-21.163l-0.469-0.762l-0.059,1.289
	c0.272,3.283,0.41,5.863,0.41,7.739l0.059,1.993c-0.313,8.676-0.469,14.754-0.469,18.231c0,17.51,0.664,31.932,1.993,43.265h-1.349
	c-0.859,0-1.289-0.429-1.289-1.289c-0.9-13.64-1.349-25.854-1.349-36.641V7.094C744.449,6.194,744.899,5.745,745.643,5.745z"/>
<path fill="#FFF" d="M796.821,9.79h0.469c2.97,0,5.314,1.095,7.035,3.283v0.469c0,0.234-0.313,0.548-0.938,0.938
	c-0.313,0-1.329-0.547-3.049-1.641c-1.017-0.47-2.11-0.704-3.282-0.704h-0.938c-4.689,1.134-7.035,14.501-7.035,40.1
	c0,12.076,1.407,21.301,4.222,27.67c0.898,1.876,2.696,3.362,5.394,4.456h0.938c2.814-0.547,4.221-1.72,4.221-3.518
	c0.547,0,1.328-4.69,2.346-14.07v-11.49l-0.235-1.172c-0.156,0-0.234,0.078-0.234,0.234c-6.253-0.47-9.38-0.938-9.38-1.407
	l-0.234-1.173V51.53c0-0.234,0.234-0.469,0.704-0.703h0.703c0.508,0.391,3.869,0.86,10.083,1.407
	c0.625,0.625,0.938,2.11,0.938,4.455v5.862c0,0.899-0.079,2.15-0.234,3.752c0.155,0.313,0.234,0.548,0.234,0.703
	c-1.056,12.351-2.854,18.525-5.394,18.525c0,0.313-1.173,0.704-3.518,1.173h-0.938c-2.541-0.586-4.808-2.071-6.801-4.455
	c-3.439-6.527-5.159-16.61-5.159-30.251c0-25.755,2.58-39.747,7.738-41.975L796.821,9.79z"/>
<path fill="#FFF" d="M866.701,5.862l0.469,0.234c0.156,0,0.234-0.078,0.234-0.234c5.003,0.469,7.504,1.017,7.504,1.642v0.234
	c-0.273,0.782-0.665,1.172-1.172,1.172l-6.801-0.703c-0.431,0-1.993,0.079-4.689,0.234l0.234,2.814
	c0,2.541,0.39,12.858,1.172,30.953h1.642c1.29,0,2.306-0.077,3.049-0.234c3.518,0.313,6.097,0.469,7.738,0.469l0.703,0.938v0.703
	c0,0.47-0.313,0.704-0.938,0.704c-1.368,0-3.635-0.156-6.801-0.47c-2.11,0.157-3.908,0.235-5.394,0.235v0.938
	c0,11.021,0.547,23.763,1.642,38.223c0.156,0,0.234,0.079,0.234,0.235c5.901-0.313,9.419-0.47,10.553-0.47
	c0.664,0.196,1.133,0.587,1.407,1.173v0.234c0,0.234-0.313,0.548-0.938,0.938c-5.941,0.156-9.536,0.313-10.786,0.469
	c-1.876,0-2.814-1.016-2.814-3.049c-1.095-14.929-1.642-27.357-1.642-37.285v-7.504c-0.782-13.756-1.172-23.059-1.172-27.905
	c-0.47-2.345-0.704-3.595-0.704-3.752l0.938-0.703h2.579C863.848,6.097,865.099,6.019,866.701,5.862z"/>
<path fill="#FFF" d="M893.199,2.521h0.234c0.234,0,0.547,0.313,0.938,0.938c0,0.782-0.157,1.172-0.469,1.172l0.234,0.469
	c1.094,17.041,1.642,31.423,1.642,43.147c0.469,3.792,0.703,9.028,0.703,15.712V84.36h12.663c0.234,0,0.469,0.234,0.703,0.703v0.703
	c0,0.626-1.329,0.938-3.986,0.938h-10.787c-0.234,0-0.548-0.313-0.938-0.938V84.36c0-1.094,0.077-1.642,0.234-1.642l-0.234-2.814
	V62.786c-0.626-20.596-1.252-37.715-1.876-51.354l-0.704-7.738C891.792,2.912,892.339,2.521,893.199,2.521z"/>
<path fill="#FFF" d="M937.52,7.504l0.703,0.879v0.41c0,0.196-0.391,0.567-1.172,1.114h-2.346c-4.143,0-6.957,1.544-8.441,4.631
	c-1.251,3.4-1.876,7.192-1.876,11.374c0,2.579,1.094,6.762,3.283,12.545c0.781,1.563,5.002,5.804,12.662,12.722
	c3.908,5.628,5.862,11.178,5.862,16.649c0,4.338-0.938,8.579-2.813,12.722c-0.86,1.954-3.205,3.635-7.035,5.041
	c-1.368,0.743-2.462,1.114-3.283,1.114c-0.82,0-1.368-0.293-1.641-0.879v-0.646c0-0.43,0.858-0.723,2.579-0.879
	c5.159-1.954,7.738-4.006,7.738-6.156c1.407-2.813,2.11-6.468,2.11-10.962c0-5.901-2.658-11.686-7.973-17.354
	c-4.183-3.165-7.309-6.233-9.38-9.204c-1.407-1.523-2.814-5.549-4.221-12.076c0-0.781-0.079-1.797-0.234-3.049
	c0-5.002,0.938-9.457,2.813-13.366C927.006,9.048,931.227,7.504,937.52,7.504z"/>
<path fill="#FFF" d="M967.828,5.862l0.469,0.234c0.156,0,0.234-0.078,0.234-0.234c5.003,0.469,7.504,1.017,7.504,1.642v0.234
	c-0.273,0.782-0.665,1.172-1.172,1.172l-6.801-0.703c-0.431,0-1.993,0.079-4.689,0.234l0.234,2.814
	c0,2.541,0.39,12.858,1.172,30.953h1.642c1.29,0,2.306-0.077,3.049-0.234c3.518,0.313,6.097,0.469,7.738,0.469l0.703,0.938v0.703
	c0,0.47-0.313,0.704-0.938,0.704c-1.368,0-3.635-0.156-6.801-0.47c-2.11,0.157-3.908,0.235-5.394,0.235v0.938
	c0,11.021,0.547,23.763,1.642,38.223c0.156,0,0.234,0.079,0.234,0.235c5.901-0.313,9.419-0.47,10.553-0.47
	c0.664,0.196,1.133,0.587,1.407,1.173v0.234c0,0.234-0.313,0.548-0.938,0.938c-5.941,0.156-9.536,0.313-10.786,0.469
	c-1.876,0-2.814-1.016-2.814-3.049c-1.095-14.929-1.642-27.357-1.642-37.285v-7.504c-0.782-13.756-1.172-23.059-1.172-27.905
	c-0.47-2.345-0.704-3.595-0.704-3.752l0.938-0.703h2.579C964.975,6.097,966.226,6.019,967.828,5.862z"/>
<path fill="#FFF" d="M1002.593,7.445c3.048,0,5.939,1.329,8.676,3.986c2.188,2.775,3.283,5.354,3.283,7.738v1.642
	c0,7.855-2.189,15.359-6.566,22.512c-1.251,2.579-1.876,6.645-1.876,12.193c0.313,2.58,0.47,4.612,0.47,6.098v2.579
	c0,0.82-0.313,1.368-0.938,1.642h-0.703c-0.392,0-0.626-0.313-0.704-0.938c0-0.703,0.078-1.172,0.235-1.406
	c0-0.195-0.235-2.853-0.704-7.974c0-7.855,1.563-13.873,4.69-18.056c2.657-5.667,3.986-11.373,3.986-17.118
	c0-3.322-1.563-6.292-4.69-8.911c-2.424-1.094-4.3-1.642-5.628-1.642c-5.003,1.368-7.504,3.557-7.504,6.565v2.111l0.704,0.938v0.234
	c0,0.821-0.313,1.369-0.938,1.642h-0.938c-0.782-0.391-1.173-1.016-1.173-1.876v-3.283c0-3.986,3.126-6.878,9.38-8.676H1002.593z
	 M1004.938,81.312h0.703c0.195,0,0.587,0.392,1.173,1.173v1.172c0,1.252-0.626,1.876-1.876,1.876c-1.251,0-1.955-0.781-2.11-2.345
	C1002.904,82.68,1003.608,82.055,1004.938,81.312z"/>
<path fill="#FFF" d="M513.163,120.982c0,1.379-0.805,2.069-2.413,2.069h-1.38c-0.345,0-0.806-0.461-1.379-1.38v-0.345
	c0-1.265,0.689-2.185,2.069-2.759h0.689C512.358,118.568,513.163,119.373,513.163,120.982z M555.577,120.293v0.689
	c-0.173,1.839-0.978,2.759-2.414,2.759l-0.689-0.345l-0.689,0.345c-1.609-0.689-2.414-1.725-2.414-3.104v-0.689
	c0.574-1.15,1.494-1.725,2.759-1.725h1.379C553.854,118.224,554.543,118.913,555.577,120.293z"/>
<path fill="#FFF" d="M592.043,146.931v0.689c0,0.46-2.214,1.608-6.639,3.448c-6.265,4.138-15.488,7.587-27.672,10.345
	c-13.047,2.759-24.655,4.139-34.827,4.139h-6.207c-27.587,0-49.598-3.448-66.035-10.346l-0.431-1.379
	c0.46-0.92,0.892-1.379,1.293-1.379h0.948c17.931,6.436,38.332,9.655,61.207,9.655h9.225c14.539,0,30.545-2.645,48.017-7.932
	l18.018-8.62h1.379C590.777,145.552,591.353,146.011,592.043,146.931z"/>
<rect id="_x3C_Slice_x3E__2_" y="0.073" fill="none" width="1024" height="175"/>
</svg>