<?xml version="1.0" encoding="utf-8"?>
<!-- Generator: Adobe Illustrator 15.1.0, SVG Export Plug-In  -->
<!DOCTYPE svg PUBLIC "-//W3C//DTD SVG 1.1//EN" "http://www.w3.org/Graphics/SVG/1.1/DTD/svg11.dtd" [
	<!ENTITY ns_flows "http://ns.adobe.com/Flows/1.0/">
]>
<svg version="1.1"
	 xmlns="http://www.w3.org/2000/svg" xmlns:xlink="http://www.w3.org/1999/xlink" xmlns:a="http://ns.adobe.com/AdobeSVGViewerExtensions/3.0/"
	 x="0px" y="0px" width="1024px" height="480px" viewBox="-18.563 -85.846 1024 480"
	 enable-background="new -18.563 -85.846 1024 480" xml:space="preserve">
<defs>
</defs>
<path fill="#D3D3D3" d="M42.422,179.874h0.957c0.319,0,0.638,0.318,0.957,0.957c-2.34,46.249-3.828,78.146-4.466,95.688
	c-0.691,3.827-1.435,5.741-2.232,5.741H37c-1.116,0-3.137-5.315-6.06-15.948c-5.53-17.914-8.293-27.802-8.293-29.663h-0.319
	c-1.702,24.667-2.552,40.508-2.552,47.525l-0.957,0.638h-0.957c-0.851,0-1.702-3.614-2.552-10.845
	c-4.679-22.009-9.357-50.502-14.034-85.481c-0.16,0-0.586-1.488-1.276-4.466c0-0.319,0.425-0.744,1.276-1.276h1.276
	c0.957,0,2.125,6.061,3.508,18.182c3.828,25.197,6.379,41.253,7.655,48.163l3.189,17.224h0.319
	c1.754-28.068,2.923-42.847,3.509-44.336l1.595-0.318c1.063,0,2.02,4.146,2.871,12.439c1.009,5.156,3.774,15.045,8.293,29.663
	l2.871,10.207L37,273.648c1.276-38.116,2.764-69.161,4.465-93.137L42.422,179.874z"/>
<path fill="#D3D3D3" d="M78.385,174.851l0.638,0.318c0.212,0,0.319-0.105,0.319-0.318c6.804,0.638,10.207,1.383,10.207,2.232v0.319
	c-0.373,1.063-0.904,1.595-1.595,1.595l-9.25-0.957c-0.585,0-2.711,0.107-6.379,0.318l0.319,3.828c0,3.456,0.531,17.49,1.595,42.103
	h2.233c1.754,0,3.136-0.105,4.146-0.318c4.784,0.426,8.293,0.638,10.525,0.638l0.957,1.275v0.957c0,0.638-0.426,0.957-1.276,0.957
	c-1.861,0-4.944-0.212-9.25-0.638c-2.871,0.213-5.316,0.318-7.336,0.318v1.276c0,14.991,0.744,32.322,2.233,51.991
	c0.211,0,0.319,0.106,0.319,0.318c8.026-0.425,12.811-0.638,14.353-0.638c0.903,0.267,1.542,0.798,1.914,1.595v0.319
	c0,0.318-0.426,0.745-1.276,1.275c-8.081,0.213-12.972,0.427-14.672,0.638c-2.552,0-3.828-1.382-3.828-4.146
	c-1.489-20.306-2.232-37.211-2.232-50.715v-10.207c-1.064-18.711-1.595-31.363-1.595-37.956c-0.638-3.189-0.957-4.891-0.957-5.104
	l1.276-0.957h3.508C74.503,175.169,76.205,175.063,78.385,174.851z"/>
<path fill="#D3D3D3" d="M154.936,170.305h0.319c0.319,0,0.744,0.427,1.276,1.276c0,1.063-0.213,1.595-0.638,1.595l0.319,0.638
	c1.488,23.179,2.233,42.741,2.233,58.689c0.638,5.156,0.957,12.279,0.957,21.37v27.75h17.224c0.319,0,0.638,0.318,0.957,0.957v0.957
	c0,0.851-1.808,1.275-5.422,1.275h-14.672c-0.319,0-0.745-0.425-1.276-1.275v-1.914c0-1.488,0.106-2.233,0.319-2.233l-0.319-3.827
	v-23.284c-0.851-28.016-1.702-51.299-2.552-69.853l-0.957-10.526C153.022,170.837,153.766,170.305,154.936,170.305z"/>
<path fill="#D3D3D3" d="M211.871,175.408c6.007,0,10.791,14.354,14.354,43.06c0.211,2.712,0.319,6.22,0.319,10.526v1.275
	c0,0.745-0.107,1.702-0.319,2.871c0.211,0.267,0.319,1.011,0.319,2.232v0.319c0,1.224-0.107,1.967-0.319,2.232
	c0.211,1.116,0.319,1.755,0.319,1.914c0,22.435-3.084,36.256-9.25,41.465c-2.181,0.852-3.668,1.276-4.465,1.276h-2.233
	c-7.655-1.86-12.439-11.748-14.354-29.664l-0.957-13.077c0-29.929,3.72-50.661,11.164-62.197
	C208.415,176.153,210.223,175.408,211.871,175.408z M198.475,238.882c0,12.015,1.595,22.54,4.785,31.577
	c2.977,5.954,5.634,8.931,7.974,8.931h0.319c4.306,0,7.069-2.977,8.293-8.931c2.338-5.528,3.508-17.33,3.508-35.404v-6.38
	c0-12.491-2.232-26.845-6.698-43.06c-1.595-3.561-3.189-5.9-4.784-7.018c-2.5,0.957-3.987,2.127-4.465,3.509
	C201.451,194.706,198.475,213.632,198.475,238.882z"/>
<path fill="#D3D3D3" d="M261.47,175.408c6.007,0,10.791,14.354,14.354,43.06c0.211,2.712,0.319,6.22,0.319,10.526v1.275
	c0,0.745-0.107,1.702-0.319,2.871c0.211,0.267,0.319,1.011,0.319,2.232v0.319c0,1.224-0.107,1.967-0.319,2.232
	c0.211,1.116,0.319,1.755,0.319,1.914c0,22.435-3.084,36.256-9.25,41.465c-2.181,0.852-3.668,1.276-4.465,1.276h-2.233
	c-7.655-1.86-12.439-11.748-14.354-29.664l-0.957-13.077c0-29.929,3.72-50.661,11.164-62.197
	C258.014,176.153,259.821,175.408,261.47,175.408z M248.073,238.882c0,12.015,1.595,22.54,4.785,31.577
	c2.977,5.954,5.634,8.931,7.974,8.931h0.319c4.306,0,7.069-2.977,8.293-8.931c2.338-5.528,3.508-17.33,3.508-35.404v-6.38
	c0-12.491-2.232-26.845-6.698-43.06c-1.595-3.561-3.189-5.9-4.784-7.018c-2.5,0.957-3.987,2.127-4.465,3.509
	C251.05,194.706,248.073,213.632,248.073,238.882z"/>
<path fill="#D3D3D3" d="M318.404,171.262c1.169,0,1.914,0.427,2.233,1.276v1.595c0,9.356-2.127,21.797-6.379,37.318
	c-0.851,4.094-2.659,11.323-5.422,21.689c3.136,0,8.453,10.101,15.948,30.302c1.754,5.316,3.242,11.801,4.465,19.456v0.957
	c0,0.319-0.319,0.638-0.957,0.957h-0.957c-1.064-0.531-1.595-1.382-1.595-2.552v-0.319c0-0.211,0.106-0.318,0.319-0.318
	c-2.765-12.811-5.741-22.593-8.931-29.345c-4.678-11.057-8.293-16.586-10.845-16.586l2.871,48.482l-0.957,0.638h-1.276
	c-0.267,0-0.797-0.531-1.595-1.595v-0.319c0-0.584,0.211-1.222,0.638-1.913c-1.967-34.607-3.775-59.487-5.422-74.638
	c-2.978-16.905-4.465-27.643-4.465-32.215v-0.957c0-0.319,0.425-0.744,1.276-1.276h0.638c0.319,0,0.744,0.427,1.276,1.276v1.595
	c0.638,6.114,2.552,20.467,5.741,43.06c0.638,7.336,0.957,11.59,0.957,12.759h0.319c7.442-28.759,11.164-46.302,11.164-52.629
	v-3.189c0-0.212-0.107-1.063-0.319-2.552L318.404,171.262z"/>
<path fill="#D3D3D3" d="M359.95,174.851l0.638,0.318c0.212,0,0.319-0.105,0.319-0.318c6.804,0.638,10.207,1.383,10.207,2.232v0.319
	c-0.373,1.063-0.904,1.595-1.595,1.595l-9.25-0.957c-0.585,0-2.711,0.107-6.379,0.318l0.319,3.828c0,3.456,0.531,17.49,1.595,42.103
	h2.233c1.754,0,3.136-0.105,4.146-0.318c4.784,0.426,8.293,0.638,10.525,0.638l0.957,1.275v0.957c0,0.638-0.426,0.957-1.276,0.957
	c-1.861,0-4.944-0.212-9.25-0.638c-2.871,0.213-5.316,0.318-7.336,0.318v1.276c0,14.991,0.744,32.322,2.233,51.991
	c0.211,0,0.319,0.106,0.319,0.318c8.026-0.425,12.811-0.638,14.353-0.638c0.903,0.267,1.542,0.798,1.914,1.595v0.319
	c0,0.318-0.426,0.745-1.276,1.275c-8.081,0.213-12.972,0.427-14.672,0.638c-2.552,0-3.828-1.382-3.828-4.146
	c-1.489-20.306-2.232-37.211-2.232-50.715v-10.207c-1.064-18.711-1.595-31.363-1.595-37.956c-0.638-3.189-0.957-4.891-0.957-5.104
	l1.276-0.957h3.508C356.068,175.169,357.77,175.063,359.95,174.851z"/>
<path fill="#D3D3D3" d="M392.643,170.624h0.319c8.453,2.765,14.938,8.188,19.457,16.267c6.804,13.875,10.207,28.122,10.207,42.741
	v1.595c0,20.84-7.549,37.851-22.646,51.034c-1.914,0.638-3.189,0.957-3.827,0.957c-0.586,0-1.011-1.701-1.276-5.104l0.319-0.638
	c-0.638-4.891-1.064-11.802-1.276-20.732h0.319l-0.319-0.639v-0.318c0-8.399,0.106-16.055,0.319-22.966L392.643,170.624z
	 M396.152,175.408v0.319c0.211,24.029,0.638,42.954,1.276,56.775c-0.213,5.688-0.319,11.536-0.319,17.543v3.827
	c0,8.081,0.425,16.586,1.276,25.517c4.944-4.252,9.516-9.78,13.715-16.586c4.891-10.896,7.336-21.104,7.336-30.62v-3.189
	c0-13.343-3.297-26.952-9.888-40.827C404.816,181.044,400.351,176.791,396.152,175.408z"/>
<path fill="#D3D3D3" d="M495.11,174.851l0.638,0.318c0.212,0,0.318-0.105,0.318-0.318c6.805,0.638,10.207,1.383,10.207,2.232v0.319
	c-0.372,1.063-0.904,1.595-1.595,1.595l-9.25-0.957c-0.586,0-2.71,0.107-6.378,0.318l0.319,3.828c0,3.456,0.531,17.49,1.595,42.103
	h2.233c1.753,0,3.135-0.105,4.146-0.318c4.784,0.426,8.293,0.638,10.525,0.638l0.957,1.275v0.957c0,0.638-0.426,0.957-1.275,0.957
	c-1.862,0-4.944-0.212-9.25-0.638c-2.871,0.213-5.316,0.318-7.336,0.318v1.276c0,14.991,0.744,32.322,2.233,51.991
	c0.211,0,0.319,0.106,0.319,0.318c8.025-0.425,12.811-0.638,14.353-0.638c0.903,0.267,1.541,0.798,1.914,1.595v0.319
	c0,0.318-0.426,0.745-1.276,1.275c-8.081,0.213-12.971,0.427-14.671,0.638c-2.552,0-3.828-1.382-3.828-4.146
	c-1.489-20.306-2.232-37.211-2.232-50.715v-10.207c-1.064-18.711-1.595-31.363-1.595-37.956c-0.638-3.189-0.957-4.891-0.957-5.104
	l1.276-0.957h3.508C491.229,175.169,492.93,175.063,495.11,174.851z"/>
<path fill="#D3D3D3" d="M554.119,175.09h1.275c0.319,0,0.638,0.426,0.957,1.275l-9.569,85.481
	c-0.797,15.099-1.435,22.646-1.913,22.646l-0.639,0.319h-0.957c-1.01,0-2.18-6.061-3.508-18.181
	c-5.53-35.086-8.293-63.154-8.293-84.206l-0.957-4.146c0-0.319,0.425-0.744,1.275-1.276h0.638c1.914,0,2.871,8.293,2.871,24.88
	c2.711,30.408,5.263,52.628,7.655,66.662h0.318c0-4.357,2.977-31.896,8.932-82.61C552.629,178.705,553.267,175.09,554.119,175.09z"
	/>
<path fill="#D3D3D3" d="M591.437,174.851l0.638,0.318c0.212,0,0.318-0.105,0.318-0.318c6.805,0.638,10.207,1.383,10.207,2.232v0.319
	c-0.372,1.063-0.904,1.595-1.595,1.595l-9.25-0.957c-0.586,0-2.711,0.107-6.379,0.318l0.318,3.828c0,3.456,0.531,17.49,1.595,42.103
	h2.233c1.754,0,3.136-0.105,4.146-0.318c4.784,0.426,8.293,0.638,10.525,0.638l0.957,1.275v0.957c0,0.638-0.426,0.957-1.275,0.957
	c-1.862,0-4.944-0.212-9.25-0.638c-2.871,0.213-5.316,0.318-7.337,0.318v1.276c0,14.991,0.744,32.322,2.233,51.991
	c0.212,0,0.318,0.106,0.318,0.318c8.026-0.425,12.812-0.638,14.354-0.638c0.903,0.267,1.541,0.798,1.914,1.595v0.319
	c0,0.318-0.426,0.745-1.276,1.275c-8.081,0.213-12.971,0.427-14.672,0.638c-2.552,0-3.827-1.382-3.827-4.146
	c-1.489-20.306-2.233-37.211-2.233-50.715v-10.207c-1.063-18.711-1.595-31.363-1.595-37.956c-0.638-3.189-0.957-4.891-0.957-5.104
	l1.276-0.957h3.509C587.555,175.169,589.256,175.063,591.437,174.851z"/>
<path fill="#D3D3D3" d="M625.406,167.115h0.638c0.585,0.745,2.498,1.383,5.741,1.914c4.04,1.648,7.337,4.625,9.889,8.931
	c3.614,8.771,5.422,15.258,5.422,19.457v3.189c0,13.929-4.041,24.029-12.12,30.302c9.355,2.232,14.777,13.29,16.267,33.172v12.12
	c0,1.809,0.105,4.466,0.319,7.975l-0.957,0.638h-0.957l-1.276-0.957c-0.213-4.252-0.318-7.442-0.318-9.568v-11.483
	c0-7.974-2.446-16.159-7.336-24.56c-3.403-3.189-6.38-4.785-8.932-4.785h-0.318c0.212,4.573,0.318,7.975,0.318,10.207v12.121
	c0.425,10.525,0.639,16.479,0.639,17.861v0.639c-0.427,0.851-1.064,1.275-1.914,1.275c-0.319,0-0.852-0.425-1.595-1.275l0.318-2.233
	c-0.426-8.983-0.638-14.938-0.638-17.861v-19.138c-0.904,0-1.542-0.425-1.914-1.276v-0.957c0.426-0.85,0.957-1.275,1.596-1.275
	c-1.064-29.186-2.446-50.343-4.146-63.474L625.406,167.115z M627.958,171.581c1.275,15.523,2.444,34.767,3.509,57.731
	c8.293-5.634,12.439-14.672,12.439-27.111v-4.466c0-5.581-2.34-12.704-7.018-21.37c-3.509-3.189-6.167-4.784-7.974-4.784H627.958z"
	/>
<path fill="#D3D3D3" d="M702.356,180.192h0.638c0.319,0,0.744,0.427,1.276,1.276v0.319c-1.702,15.204-3.509,30.089-5.423,44.654
	l0.319,1.914v0.956c-0.745,0-1.914,10.526-3.509,31.578c-0.638,10.525-1.383,18.394-2.232,23.603l-0.638,0.319h-0.957
	c-0.427-0.105-0.852-0.638-1.276-1.595c2.339-28.016,4.04-46.302,5.104-54.861c-5.741-12.492-13.29-25.039-22.646-37.638
	c-1.702-1.223-2.552-2.393-2.552-3.509v-0.638c0-0.319,0.425-0.744,1.276-1.276h1.275c0.69,0.267,1.328,1.33,1.914,3.19
	c8.505,10.525,15.522,21.688,21.052,33.49h0.318c2.339-20.254,4.04-33.969,5.104-41.146L702.356,180.192z"/>
<path fill="#D3D3D3" d="M768.062,179.874h0.957c0.319,0,0.638,0.318,0.957,0.957c-2.34,46.249-3.828,78.146-4.466,95.688
	c-0.691,3.827-1.436,5.741-2.232,5.741h-0.638c-1.117,0-3.138-5.315-6.061-15.948c-5.529-17.914-8.293-27.802-8.293-29.663h-0.319
	c-1.702,24.667-2.552,40.508-2.552,47.525l-0.957,0.638h-0.957c-0.851,0-1.701-3.614-2.551-10.845
	c-4.679-22.009-9.357-50.502-14.035-85.481c-0.159,0-0.585-1.488-1.275-4.466c0-0.319,0.425-0.744,1.275-1.276h1.276
	c0.957,0,2.125,6.061,3.509,18.182c3.827,25.197,6.379,41.253,7.654,48.163l3.19,17.224h0.318
	c1.755-28.068,2.923-42.847,3.509-44.336l1.595-0.318c1.063,0,2.02,4.146,2.871,12.439c1.009,5.156,3.773,15.045,8.293,29.663
	l2.87,10.207l0.639-0.319c1.275-38.116,2.763-69.161,4.465-93.137L768.062,179.874z"/>
<path fill="#D3D3D3" d="M814.232,166.876h0.639c0.85,0.427,1.275,0.957,1.275,1.595c0,9.995-0.213,17.756-0.638,23.284l0.638,33.172
	c0.425,0.692,0.638,1.224,0.638,1.596c-0.213,0.638-0.426,0.956-0.638,0.956c0.425,9.941,0.744,27.271,0.957,51.991
	c-0.213,1.116-0.319,3.243-0.319,6.38l-0.957,0.638h-0.956l-1.276-0.957c0-2.285,0.105-4.093,0.319-5.423
	c-0.214-29.077-0.532-46.515-0.957-52.31c-9.995,0.213-15.629,0.532-16.905,0.957c0.425,3.935,0.638,7.868,0.638,11.802
	c0,8.452-0.106,15.896-0.318,22.327c0.212,3.616,0.318,10.633,0.318,21.052c-0.691,0.426-1.329,0.638-1.913,0.638
	c-0.319,0-0.745-0.425-1.276-1.275v-2.871c0-8.664-0.107-14.513-0.319-17.543c0.212-5.209,0.319-11.589,0.319-19.138v-4.784
	c-0.638-10.419-0.957-17.649-0.957-21.689c0.638-23.709,0.957-38.807,0.957-45.293c-0.213-0.85-0.319-1.595-0.319-2.232l1.276-0.957
	h0.638c1.063,0.638,1.595,1.489,1.595,2.552c0,3.935-0.318,19.883-0.957,47.844v5.741l0.319,0.639
	c1.382-0.425,7.018-0.744,16.905-0.957c-0.213-7.708-0.319-13.237-0.319-16.586V193.35c0-0.478-0.107-0.902-0.318-1.275l0.318-0.638
	c0.212-10.207,0.319-18.074,0.319-23.604L814.232,166.876z"/>
<path fill="#D3D3D3" d="M851.791,174.851l0.638,0.318c0.212,0,0.318-0.105,0.318-0.318c6.805,0.638,10.207,1.383,10.207,2.232v0.319
	c-0.372,1.063-0.904,1.595-1.595,1.595l-9.25-0.957c-0.586,0-2.711,0.107-6.379,0.318l0.318,3.828c0,3.456,0.531,17.49,1.595,42.103
	h2.233c1.754,0,3.136-0.105,4.146-0.318c4.784,0.426,8.293,0.638,10.525,0.638l0.957,1.275v0.957c0,0.638-0.426,0.957-1.275,0.957
	c-1.862,0-4.944-0.212-9.25-0.638c-2.871,0.213-5.316,0.318-7.337,0.318v1.276c0,14.991,0.744,32.322,2.233,51.991
	c0.212,0,0.318,0.106,0.318,0.318c8.026-0.425,12.812-0.638,14.354-0.638c0.903,0.267,1.541,0.798,1.914,1.595v0.319
	c0,0.318-0.426,0.745-1.276,1.275c-8.081,0.213-12.971,0.427-14.672,0.638c-2.552,0-3.827-1.382-3.827-4.146
	c-1.489-20.306-2.233-37.211-2.233-50.715v-10.207c-1.063-18.711-1.595-31.363-1.595-37.956c-0.638-3.189-0.957-4.891-0.957-5.104
	l1.276-0.957h3.509C847.909,175.169,849.61,175.063,851.791,174.851z"/>
<path fill="#D3D3D3" d="M885.759,167.115h0.638c0.585,0.745,2.498,1.383,5.741,1.914c4.04,1.648,7.337,4.625,9.889,8.931
	c3.614,8.771,5.422,15.258,5.422,19.457v3.189c0,13.929-4.041,24.029-12.12,30.302c9.355,2.232,14.777,13.29,16.267,33.172v12.12
	c0,1.809,0.105,4.466,0.319,7.975l-0.957,0.638H910l-1.276-0.957c-0.213-4.252-0.318-7.442-0.318-9.568v-11.483
	c0-7.974-2.446-16.159-7.336-24.56c-3.403-3.189-6.38-4.785-8.932-4.785h-0.318c0.212,4.573,0.318,7.975,0.318,10.207v12.121
	c0.425,10.525,0.639,16.479,0.639,17.861v0.639c-0.427,0.851-1.064,1.275-1.914,1.275c-0.319,0-0.852-0.425-1.595-1.275l0.318-2.233
	c-0.426-8.983-0.638-14.938-0.638-17.861v-19.138c-0.904,0-1.542-0.425-1.914-1.276v-0.957c0.426-0.85,0.957-1.275,1.596-1.275
	c-1.064-29.186-2.446-50.343-4.146-63.474L885.759,167.115z M888.311,171.581c1.275,15.523,2.444,34.767,3.509,57.731
	c8.293-5.634,12.439-14.672,12.439-27.111v-4.466c0-5.581-2.34-12.704-7.018-21.37c-3.509-3.189-6.167-4.784-7.974-4.784H888.311z"
	/>
<path fill="#D3D3D3" d="M945.087,174.851l0.638,0.318c0.212,0,0.318-0.105,0.318-0.318c6.805,0.638,10.207,1.383,10.207,2.232v0.319
	c-0.372,1.063-0.904,1.595-1.595,1.595l-9.25-0.957c-0.586,0-2.711,0.107-6.379,0.318l0.318,3.828c0,3.456,0.531,17.49,1.595,42.103
	h2.233c1.754,0,3.136-0.105,4.146-0.318c4.784,0.426,8.293,0.638,10.525,0.638l0.957,1.275v0.957c0,0.638-0.426,0.957-1.275,0.957
	c-1.862,0-4.944-0.212-9.25-0.638c-2.871,0.213-5.316,0.318-7.337,0.318v1.276c0,14.991,0.744,32.322,2.233,51.991
	c0.212,0,0.318,0.106,0.318,0.318c8.026-0.425,12.812-0.638,14.354-0.638c0.903,0.267,1.541,0.798,1.914,1.595v0.319
	c0,0.318-0.426,0.745-1.276,1.275c-8.081,0.213-12.971,0.427-14.672,0.638c-2.552,0-3.827-1.382-3.827-4.146
	c-1.489-20.306-2.233-37.211-2.233-50.715v-10.207c-1.063-18.711-1.595-31.363-1.595-37.956c-0.638-3.189-0.957-4.891-0.957-5.104
	l1.276-0.957h3.509C941.206,175.169,942.907,175.063,945.087,174.851z"/>
<path fill="#D3D3D3" d="M983.84,170.465c0.319,0,0.744,0.426,1.276,1.275l-0.319,1.595c4.039,23.551,6.061,41.943,6.061,55.181
	c0,4.359,0.105,15.417,0.318,33.172l-0.956,0.638h-0.957c-0.427-0.105-0.852-0.638-1.276-1.595
	c-0.213-15.362-0.318-26.739-0.318-34.129l-0.319-3.827c0.212-0.371,0.319-0.798,0.319-1.276c0-5.953-2.021-22.327-6.061-49.12
	C981.608,171.103,982.352,170.465,983.84,170.465z M988.625,277.636c1.487,0,2.232,0.745,2.232,2.232
	c-0.373,2.552-1.329,3.828-2.871,3.828c-1.488-0.638-2.232-1.595-2.232-2.871C985.754,279.604,986.711,278.54,988.625,277.636z"/>
<path fill="#D6D6D6" d="M472.382,3.042c0,1.521-0.888,2.281-2.662,2.281h-1.521c-0.38,0-0.888-0.508-1.521-1.521v-0.38
	c0-1.395,0.761-2.409,2.282-3.042h0.76C471.494,0.38,472.382,1.267,472.382,3.042z M519.149,2.281v0.761
	c-0.19,2.027-1.078,3.042-2.662,3.042l-0.76-0.38l-0.761,0.38c-1.774-0.76-2.661-1.901-2.661-3.422v-0.76
	C512.937,0.633,513.952,0,515.346,0h1.521C517.248,0,518.008,0.761,519.149,2.281z"/>
<path fill="#D6D6D6" d="M544.529,76.709v1.141c0,0.38-0.509,0.887-1.521,1.521h-0.76c-2.22-1.901-10.711-5.703-25.476-11.406
	c-19.898-10.14-49.428-22.433-88.591-36.881c-0.76-0.951-1.141-1.839-1.141-2.662c0.506-1.015,1.267-1.521,2.281-1.521
	c4.055,2.027,23.32,9.632,57.793,22.813c20.912,10.012,39.542,18.377,55.892,25.095L544.529,76.709z"/>
</svg>