<?xml version="1.0" encoding="utf-8"?>
<!-- Generator: Adobe Illustrator 18.1.1, SVG Export Plug-In . SVG Version: 6.00 Build 0)  -->
<svg version="1.1" id="Layer_1" xmlns="http://www.w3.org/2000/svg" xmlns:xlink="http://www.w3.org/1999/xlink" x="0px" y="0px"
	 viewBox="0 0 1152 648" enable-background="new 0 0 1152 648" xml:space="preserve">
<g id="Layer_2">
	<rect fill="#7B7B7B" width="1152" height="648"/>
</g>
<g>
	<polygon fill="none" points="1050.7,556.3 1050.7,556.3 1071.2,556.3 1083.1,556.3 1083.2,556.3 	"/>
	<rect x="1031.7" y="158" fill="none" width="0" height="59.2"/>
	<polygon fill="none" points="1101.2,331 1101.1,330.5 1101.1,331 	"/>
	<rect x="1055.8" y="383.9" fill="none" width="0.2" height="58.7"/>
	<rect x="1022.9" y="495.5" fill="none" width="0.2" height="60.8"/>
	<rect x="928.8" y="157.9" fill="none" width="0" height="59.2"/>
	<rect x="747.1" y="383.8" fill="none" width="0.2" height="58.7"/>
	<rect x="554.2" y="383.4" fill="none" width="0.1" height="59.2"/>
	<rect x="450.8" y="383.4" fill="none" width="0.1" height="59.2"/>
	<rect x="302.7" y="495.5" fill="none" width="0" height="60.7"/>
	<rect x="952.9" y="383.8" fill="none" width="0.2" height="58.7"/>
	<rect x="347.9" y="383.4" fill="none" width="0.1" height="59.2"/>
	<polygon fill="none" points="947.8,556.3 947.8,556.3 968.2,556.3 980.2,556.3 980.2,556.3 	"/>
	<rect x="850" y="383.8" fill="none" width="0.2" height="58.7"/>
	<rect x="623.5" y="495.4" fill="none" width="0.1" height="60.7"/>
	<rect x="141.4" y="383.4" fill="none" width="0.1" height="59.2"/>
	<rect x="714.1" y="495.4" fill="none" width="0.2" height="60.8"/>
	<rect x="137.9" y="46.1" fill="none" width="0.1" height="59.1"/>
	<rect x="405.6" y="495.5" fill="none" width="0" height="60.7"/>
	<rect x="521" y="495.5" fill="none" width="0.1" height="60.7"/>
	<rect x="199.5" y="495.5" fill="none" width="0.2" height="60.7"/>
	<rect x="344.2" y="46.1" fill="none" width="0.1" height="59.1"/>
	<rect x="722.9" y="158" fill="none" width="0.1" height="59.2"/>
	<polygon fill="none" points="844.8,556.2 844.9,556.2 865.3,556.2 877.3,556.2 877.3,556.2 	"/>
	<rect x="920" y="495.4" fill="none" width="0.2" height="60.8"/>
	<rect x="240.9" y="46.1" fill="none" width="0.1" height="59.1"/>
	<polygon fill="none" points="741.9,556.2 741.9,556.2 762.4,556.2 774.4,556.2 774.4,556.2 	"/>
	<rect x="817" y="495.4" fill="none" width="0.2" height="60.8"/>
	<rect x="656.7" y="383.4" fill="none" width="0.1" height="59.2"/>
	<rect x="1134.6" y="158" fill="none" width="0" height="59.2"/>
	<polygon fill="none" points="1089.4,270.1 1089.4,270.2 1089.5,270.2 	"/>
	<polygon fill="none" points="949.8,105.1 949.8,104.6 949.8,105.1 	"/>
	<rect x="35.2" y="46.1" fill="none" width="0.1" height="59.1"/>
	<rect x="825.9" y="157.9" fill="none" width="0" height="59.2"/>
	<polygon fill="none" points="104.6,217.1 104.7,217.1 104.6,215.8 	"/>
	<rect x="38.5" y="383.4" fill="none" width="0.1" height="59.2"/>
	<polygon fill="none" points="71.8,330.5 71.8,330.5 71.8,328.7 	"/>
	<polygon fill="none" points="883.5,270 883.5,270.1 883.7,270.1 	"/>
	<rect x="96.2" y="495.5" fill="none" width="0" height="60.8"/>
	<polygon fill="none" points="998.3,331 998.2,329.4 998.2,331 	"/>
	<rect x="517" y="158" fill="none" width="0.1" height="59.2"/>
	<rect x="414.1" y="158" fill="none" width="0.1" height="59.2"/>
	<rect x="620.4" y="158" fill="none" width="0.1" height="59.2"/>
	<rect x="311" y="158" fill="none" width="0.1" height="59.2"/>
	<rect x="207.6" y="158" fill="none" width="0.1" height="59.2"/>
	<rect x="244.8" y="383.4" fill="none" width="0.1" height="59.2"/>
	<polygon fill="none" points="895.5,330.9 895.3,326.4 895.3,330.9 	"/>
	<polygon fill="none" points="986.5,270 986.5,270.1 986.6,270.1 	"/>
	<polygon fill="none" points="472,330.5 472,327.2 471.9,330.5 	"/>
	<polygon fill="none" points="677.8,325.7 677.7,330.5 677.8,330.5 	"/>
	<polygon fill="none" points="575.3,330.5 575.3,328.2 575.2,330.5 	"/>
	<path fill="#9F6666" d="M1152,556.3h-13.9v-60.8H1126v60.8h-21.1h-21.7h-12h-20.5h-0.6c15.7,11,26.3,32.3,26.3,56.8
		c0,12.8-2.9,24.8-7.9,34.8h0.5h83V556.3l1.6,0c0,0,0,0,0,0H1152z"/>
	<path fill="#39415E" d="M86.3,105.1h18.4h21.1V44.3h12.1v1.8h0.1v59.1h14.8h0.5h20.5h14.6c14.4-11.4,24-31.8,24-55.1
		c0-20.2-7.2-38.2-18.5-50H91.8c11.3,11.9,18.5,29.9,18.5,50C110.2,73.3,100.7,93.7,86.3,105.1z"/>
	<path fill="#374E5B" d="M188.5,105.1h0.5h18.6h21.1V44.3h12.1v1.8h0.1v59.1h15.3h0.1h20.9h14.6c14.4-11.4,24-31.8,24-55.1
		c0-20.2-7.2-38.2-18.5-50H194.5H194c11.3,11.9,18.5,29.9,18.5,50C212.4,73.3,202.9,93.7,188.5,105.1z"/>
	<path fill="#375959" d="M291.8,105.1L291.8,105.1H311h21.1V44.3h12.1v1.8h0.1v59.1h15h0.3h20.7h14.6c14.4-11.4,24-31.8,24-55.1
		c0-20.2-7.2-38.2-18.5-50h-103h-0.1c11.3,11.9,18.5,29.9,18.5,50C315.8,73.3,306.2,93.7,291.8,105.1z"/>
	<path fill="#3E6952" d="M394.9,105.1h0.3h18.8h21.1V44.3h12.1v60.8h15h0.5h20.5h14.6c14.4-11.4,24-31.8,24-55.1
		c0-20.2-7.2-38.2-18.5-50H400.8h-0.3c11.3,11.9,18.5,29.9,18.5,50C418.9,73.3,409.3,93.7,394.9,105.1z"/>
	<path fill="#416041" d="M601.3,105.1h19.1h21.1V44.3h12.1v60.8h14.6c0,0,0,0,0,0h21h14.6c14.4-11.4,24-31.8,24-55.1
		c0-20.1-7.2-38.1-18.5-50H606.8c11.3,11.9,18.5,29.9,18.5,50C625.3,73.3,615.7,93.7,601.3,105.1z"/>
	<path fill="#425E42" d="M497.9,105.1h0.5H517h21.1V44.3h12.1v60.8h15.4h0.1h20.9h14.5h0.1c14.4-11.4,24-31.8,24-55.1
		c0-20.2-7.2-38.2-18.5-50h-0.3H503.9h-0.5c11.3,11.9,18.5,29.9,18.5,50C521.8,73.3,512.3,93.7,497.9,105.1z"/>
	<path fill="#6063AD" d="M5.4,556.1h15.5c0,0,0.1,0.1,0.1,0.1h20.4h12.2c15.6-11,26.2-32.3,26.2-56.8c0-23.4-9.7-43.8-24.2-55.2h-17
		v-1.6h-0.1v-59.2h-12v60.8H4.8H0v51.1h5.4V556.1z"/>
	<path fill="#37385B" d="M23.1,105.1V44.3h12.1v1.8h0.1v59.1H50h0.7H71h14.6h0.7c14.4-11.4,24-31.8,24-55.1c0-20.2-7.2-38.2-18.5-50
		h-0.7H0v105.1h2H23.1z"/>
	<path fill="#484470" d="M6.8,217.1l15.5-0.1c0.2,0.2,0.4,0.3,0.6,0.5l14.7-0.1l14.3-0.1C66.5,206,76.3,185.4,76.3,162
		c0-23.3-9.6-43.7-24-55.1c-0.8-0.6-1.5-1.2-2.3-1.8H35.3h-0.1V46.1v-1.8H23.1v60.8H2H0v1.8v49.4l6.7,0L6.8,217.1z"/>
	<path fill="#574F85" d="M22.5,330.5c12.6-12.6,20.7-34.8,20.6-56.3c-0.1-23.6-10-44.1-24.7-55.4c-0.6-0.4-1.2-0.9-1.8-1.3l6.3,0
		c-0.2-0.2-0.4-0.3-0.6-0.5l-15.5,0.1l-0.2-60.8l-6.7,0v1.7v172.5h4.8H22.5z"/>
	<path fill="#675A9A" d="M0,348.5v77.8c6.4-10.8,10.1-24.3,10.1-38.9C10.1,372.8,6.4,359.3,0,348.5z"/>
	<path fill="#617FAA" d="M144.9,556.1h12.1c15.6-11.1,26.1-32.3,26.1-56.7c0-23.4-9.7-43.8-24.2-55.2h-17.4v-1.6h-0.1v-59.2h-12
		v60.8h-21.7H87.3h-0.5H56.2h-0.5c14.5,11.4,24.2,31.9,24.2,55.2c0,24.5-10.6,45.8-26.2,56.8h0.5h21h21.1v-60.8h0v-0.1h12.1v60.8
		h15.5c0,0,0.1,0,0.1,0.1h0.2c-0.1-0.1-0.1-0.1-0.2-0.2H144.9z"/>
	<path fill="#629BA7" d="M286.3,499.5c0-23.4-9.7-43.8-24.2-55.2h-17.2v-1.6h-0.1v-59.2h-12v60.8h-21.7h-20.9h-0.1h-31H159
		c14.5,11.4,24.2,31.9,24.2,55.2c0,24.4-10.5,45.6-26.1,56.7h0.1h21.5h20.9v-60.7h0.2v-0.2h12.1v60.8h15h0.5h20.5h12.3
		C275.7,545.1,286.3,523.8,286.3,499.5z"/>
	<path fill="#62A598" d="M389.2,499.5c0-23.4-9.7-43.8-24.2-55.2h-17v-1.6h-0.1v-59.2h-12v60.8h-21.7h-20.7h-0.3h-30.8h-0.3
		c14.5,11.4,24.2,31.9,24.2,55.2c0,24.4-10.5,45.6-26.1,56.7h0.3h21.1h21.1v-60.7h0v-0.2h12.1v60.8h15.5c0,0,0,0,0,0h20.4H363
		C378.6,545.1,389.2,523.9,389.2,499.5z"/>
	<path fill="#61A37F" d="M492.6,499.5c0-23.4-9.7-43.8-24.2-55.2H451v-1.6h-0.1v-59.2h-12v60.8h-21.7h-20.5h-0.5h-30.6H365
		c14.5,11.4,24.2,31.9,24.2,55.2c0,24.4-10.6,45.7-26.1,56.7h0.5h20.9h21.1v-60.7h0v-0.1h12.1v60.8H433h0.2H454h12.4
		C482,545.1,492.6,523.9,492.6,499.5z"/>
	<path fill="#5FA066" d="M595.1,499.4c0-23.3-9.6-43.8-24.1-55.2h-16.6v-1.6h-0.1v-59.2h-12v60.8h-21.7h-20.9h-0.1h-31h-0.1
		c14.5,11.4,24.2,31.9,24.2,55.2c0,24.4-10.6,45.7-26.1,56.7h0.1h21.2h21.1v-60.8H521v0.1h0.1v60.7h14.5c0,0,0,0,0,0h21h12.4
		C584.5,545.1,595.1,523.8,595.1,499.4z"/>
	<path fill="#67AD67" d="M535.7,556.3c-0.1,0-0.1-0.1-0.2-0.1h-14.5H521v-60.7v-0.1h-12.1v60.8h-21.1h-21.2h-0.1H454h-20.8
		c0.1,0,0.1,0.1,0.2,0.1c15.6,11.1,26.1,32.3,26.1,56.7c0,12.9-2.9,24.9-8,35h102.3c5.1-10.1,8-22.1,8-35
		C561.8,588.6,551.3,567.4,535.7,556.3z"/>
	<path fill="#646BAA" d="M20.5,556.3C20.4,556.3,20.4,556.3,20.5,556.3l0.6-0.1c0,0-0.1-0.1-0.1-0.1H5.4v-60.8H0v0.2V648h38.7
		c5-10.1,8-22.1,8-34.9C46.7,588.6,36.1,567.3,20.5,556.3z"/>
	<path fill="#7097BA" d="M108.3,556.2v-60.8H96.2v0.1v60.8h0H75.1h-21h-0.5H41.4H21h-0.6c0,0,0.1,0,0.1,0.1
		c15.6,11,26.2,32.3,26.2,56.8c0,12.9-2.9,24.8-8,34.9h0.5h103c5-10.1,8-22.1,8-34.9c0-24.5-10.6-45.8-26.2-56.8c0,0-0.1,0-0.1-0.1
		H108.3z"/>
	<path fill="#70B1BA" d="M227.1,556.3c-0.1-0.1-0.1-0.1-0.2-0.2h-15v-60.8h-12.1v0.2v60.7h-0.2h-20.9h-21.5h-0.1h-12.1h-21
		c0.1,0.1,0.1,0.1,0.2,0.2c15.6,11.1,26.1,32.3,26.1,56.7c0,12.9-2.9,24.9-8,35h102.9c5.1-10.1,8-22.1,8-35
		C253.2,588.6,242.6,567.4,227.1,556.3z"/>
	<path fill="#6FB8AA" d="M329.9,556.3c-0.1,0-0.1-0.1-0.2-0.1h0.6c0,0,0,0,0,0h-15.5v-60.8h-12.1v0.2v60.7h0h-21.1h-21.1h-0.3h-12.3
		h-20.5h-0.5c0.1,0.1,0.1,0.1,0.2,0.2c15.6,11.1,26.1,32.3,26.1,56.7c0,12.9-2.9,24.9-8,35h0.5h102.4c5.1-10.1,8-22.1,8-35
		C356.1,588.6,345.5,567.4,329.9,556.3z"/>
	<path fill="#6AB187" d="M433.4,556.3c-0.1,0-0.1-0.1-0.2-0.1H433h-15.3v-60.8h-12.1v0.1v60.7h0h-21.1h-20.9H363h-12.3h-20.4h-0.6
		c0.1,0,0.1,0.1,0.2,0.1c15.6,11.1,26.1,32.3,26.1,56.7c0,12.9-2.9,24.9-8,35h0.5h102.7h0.2c5.1-10.1,8-22.1,8-35
		C459.5,588.6,448.9,567.4,433.4,556.3z"/>
	<path fill="#869358" d="M800.7,499.4c0-23.1-9.4-43.3-23.6-54.8h-17.9v-60.8h-12v58.7h-0.2v2.1h-21.7h-21c0.2-0.1,0.4-0.3,0.6-0.4
		h-30.6c14.5,11.4,24.2,31.9,24.2,55.2c0,24.4-10.6,45.7-26.2,56.8h20.8h20.9v-60.8h0.2v0h12.1v60.8h15.5c0,0,0,0,0,0h32.5
		C790,545.2,800.7,523.9,800.7,499.4z"/>
	<path fill="#91895A" d="M903.6,499.4c0-23.1-9.4-43.3-23.6-54.8h-17.9v-60.8h-12v58.7H850v2.1h-21.7h-21c0,0,0,0,0,0h-29.7h-0.5
		c14.2,11.5,23.6,31.7,23.6,54.8c0,24.5-10.6,45.8-26.3,56.8c0,0,0,0,0,0h21.7H817v-60.8h0.2v0h12.1v60.8h15.5c0,0,0,0,0,0h32.5
		C893,545.2,903.6,523.9,903.6,499.4z"/>
	<path fill="#8E715A" d="M1006.5,499.5c0-23.1-9.4-43.3-23.6-54.8h-17.9v-60.8h-12v58.7h-0.2v2.1h-21.7h-21c0,0,0,0,0,0h-29.7H880
		c14.2,11.5,23.6,31.7,23.6,54.8c0,24.5-10.6,45.8-26.3,56.8c0,0,0,0,0,0H899H920v-60.8h0.2v0h12.1v60.8h15.5c0,0,0,0,0,0h32.5
		C995.9,545.2,1006.5,523.9,1006.5,499.5z"/>
	<path fill="#8C605A" d="M1109.4,499.5c0-23.1-9.4-43.3-23.6-54.8H1068v-60.8h-12v58.7h-0.2v2.1h-21.7h-21c0,0,0,0,0,0h-29.7h-0.5
		c14.2,11.5,23.6,31.7,23.6,54.8c0,24.5-10.6,45.8-26.3,56.8c0,0,0,0,0,0h21.7h20.9v-60.8h0.2v0h12.1v60.8h15.5c0,0,0,0,0,0h32.5
		C1098.8,545.3,1109.4,524,1109.4,499.5z"/>
	<path fill="#895959" d="M1116.1,444.7C1116.1,444.7,1116.1,444.7,1116.1,444.7l-29.7,0h-0.5c14.2,11.5,23.6,31.7,23.6,54.8
		c0,24.5-10.6,45.8-26.3,56.8c0,0,0,0,0,0h21.7h21.1v-60.8h12.1v60.8h13.9V444.7h-14.9H1116.1z"/>
	<path fill="#565E42" d="M807.3,105h18.5h21.1V44.2H859V105h15.5c0,0,0,0,0,0H895h14.4c14.4-11.4,24-31.8,24-55.1
		c0-20.1-7.2-38.1-18.4-50H812.7c11.3,11.9,18.5,29.9,18.5,50C831.2,73.2,821.6,93.6,807.3,105z"/>
	<path fill="#5E5B42" d="M909.9,105.1h18.8h21.1l0-0.5V44.2H962v60.8h15.5c0,0,0,0,0,0h20.5h14.4c14.4-11.4,24-31.8,24-55.1
		c0-20.1-7.2-38.1-18.5-50H915.5c11.2,11.9,18.4,29.8,18.4,49.9C933.9,73.2,924.3,93.6,909.9,105.1z"/>
	<path fill="#676446" d="M909.4,105.1H895h-20.5H874c0.8,0.5,1.5,1.1,2.3,1.7c14.4,11.4,24,31.8,24,55.1c0,23.4-9.7,43.8-24.2,55.2
		h0.5h18.9h21.1v-60.8h12.1v1.6h0v59.2h15.4c0,0,0,0,0,0h20.5h14.3c14.5-11.4,24.2-31.9,24.2-55.2c0-23.3-9.6-43.7-24-55.1
		c-0.8-0.6-1.5-1.2-2.3-1.7h0.6c0,0,0,0,0,0H962V44.2h-12.1v60.4v0.5h0h-21.1h-18.8c14.4-11.4,24-31.8,24-55.1
		c0-20.1-7.2-38.1-18.4-49.9H915c11.2,11.9,18.4,29.9,18.4,50C933.4,73.2,923.8,93.6,909.4,105.1z"/>
	<path fill="#493A32" d="M1012.3,105.1h0.5h18.8h21.1V44.3h12.1v60.8h15.5c0,0,0,0,0,0h20.5h14.4c14.4-11.4,24-31.8,24-55.1
		c0-20.2-7.2-38.2-18.5-50h-102.4h-0.5c11.3,11.9,18.5,29.9,18.5,50C1036.3,73.3,1026.7,93.7,1012.3,105.1z"/>
	<path fill="#3A2626" d="M1115.3,105.1h0.5h18.8h17.5V0h-30.7h-0.5c11.3,11.9,18.5,29.9,18.5,50
		C1139.2,73.3,1129.7,93.7,1115.3,105.1z"/>
	<path fill="#96A864" d="M741.4,556.2h0.6c0,0,0,0,0,0c0,0,0,0,0,0h-15.5v-60.8h-12.1v0v60.8h-0.2h-20.9h-20.8c0,0,0,0,0,0
		c0,0-0.1,0-0.1,0.1h-33.1c15.6,11.1,26.1,32.3,26.1,56.7c0,12.9-2.9,24.9-8,35h102.4c5.1-10.1,8-22.1,8-34.9
		C767.7,588.6,757.1,567.2,741.4,556.2z"/>
	<path fill="#A49C65" d="M844.3,556.2h0.6c0,0,0,0,0,0c0,0,0,0,0,0h-15.5v-60.8h-12.1v0v60.8H817h-20.9h-21.7h-12h-20.5h-0.6
		c15.7,11,26.3,32.3,26.3,56.8c0,12.9-2.9,24.9-8,34.9h0.5h102.4c5-10.1,8-22.1,8-34.9C870.6,588.6,860,567.3,844.3,556.2z"/>
	<path fill="#A38466" d="M947.2,556.3h0.6c0,0,0,0,0,0c0,0,0,0,0,0h-15.5v-60.8h-12.1v0v60.8H920H899h-21.7h-12h-20.5h-0.6
		c15.7,11,26.3,32.3,26.3,56.8c0,12.9-2.9,24.8-8,34.9h0.5h102.4c5-10.1,8-22,8-34.9C973.5,588.6,962.9,567.3,947.2,556.3z"/>
	<path fill="#A06C65" d="M1050.2,556.3h0.6c0,0,0,0,0,0c0,0,0,0,0,0h-15.5v-60.8h-12.1v0v60.8h-0.2h-20.9h-21.7h-12h-20.5h-0.6
		c15.7,11,26.3,32.3,26.3,56.8c0,12.8-2.9,24.8-8,34.9h0.5h102.4c5-10.1,7.9-22,7.9-34.8C1076.5,588.6,1065.8,567.3,1050.2,556.3z"
		/>
	<path fill="#444D73" d="M71.3,217.3l21.1-0.1l-0.2-60.8l12.1-0.1l0.2,59.5l0.1,1.3l15.4-0.1c0.1,0.1,0.2,0.1,0.3,0.2h20.3H155
		c14.5-11.4,24.2-31.9,24.2-55.2c0-23.3-9.6-43.7-24-55.1c-0.8-0.6-1.5-1.2-2.3-1.8h-14.8h-0.1V46.1v-1.8h-12.1v60.8h-21.1H86.3
		h-0.7H71H50.7H50c0.8,0.6,1.6,1.1,2.3,1.8c14.4,11.4,24,31.8,24,55.1c0,23.5-9.7,44-24.3,55.4l0.7,0L71.3,217.3z"/>
	<path fill="#445B70" d="M179.2,162c0,23.4-9.7,43.8-24.2,55.2h0.5h18.8h21.1v-60.8h12.1v1.6h0.1v59.2H223h0.1H244h14.4
		c14.5-11.4,24.2-31.9,24.2-55.2c0-23.3-9.6-43.7-24-55.1c-0.8-0.6-1.5-1.2-2.3-1.8H241h-0.1V46.1v-1.8h-12.1v60.8h-21.1H189h-0.5
		h-14.6h-20.5h-0.5c0.8,0.6,1.6,1.1,2.3,1.8C169.6,118.3,179.2,138.7,179.2,162z"/>
	<path fill="#42686D" d="M282.6,162c0,23.4-9.7,43.8-24.2,55.2h0.1h19.2h21.1v-60.8H311v1.6h0.1v59.2h15h0.3h20.7h14.4
		c14.5-11.4,24.2-31.9,24.2-55.2c0-23.3-9.6-43.7-24-55.1c-0.8-0.6-1.5-1.2-2.3-1.8h-15h-0.1V46.1v-1.8h-12.1v60.8H311h-19.1h-0.1
		h-14.6h-20.9h-0.1c0.8,0.6,1.6,1.1,2.3,1.8C273,118.3,282.6,138.7,282.6,162z"/>
	<path fill="#416B63" d="M385.7,162c0,23.4-9.7,43.8-24.2,55.2h0.3h19h21.1v-60.8h12.1v1.6h0.1v59.2H429h0.5H450h14.4
		c14.5-11.4,24.2-31.9,24.2-55.2c0-23.3-9.6-43.7-24-55.1c-0.8-0.6-1.5-1.2-2.3-1.8h-15V44.3h-12.1v60.8h-21.1h-18.8h-0.3h-14.6
		h-20.7h-0.3c0.8,0.6,1.6,1.1,2.3,1.8C376.1,118.3,385.7,138.7,385.7,162z"/>
	<path fill="#436744" d="M592,162c0,23.4-9.7,43.8-24.2,55.2h19.2h21.1v-60.8h12.1v1.6h0.1v59.2H635c0,0,0,0,0,0h21h14.4
		c14.5-11.4,24.2-31.9,24.2-55.2c0-23.2-9.6-43.6-23.9-55.1c-0.8-0.6-1.5-1.2-2.3-1.8h-14.6V44.3h-12.1v60.8h-21.1h-19.1h-0.1h-14.5
		h-20.9c0.8,0.6,1.6,1.1,2.3,1.8C582.4,118.3,592,138.7,592,162z"/>
	<path fill="#3E6952" d="M488.6,162c0,23.4-9.7,43.8-24.2,55.2h0.5h18.8h21.1v-60.8H517v1.6h0.1v59.2h15.3h0.1h20.9h14.4h0.1
		c14.5-11.4,24.2-31.9,24.2-55.2c0-23.3-9.6-43.7-24-55.1c-0.8-0.6-1.5-1.2-2.3-1.8h-0.1h-15.4V44.3h-12.1v60.8H517h-18.6h-0.5
		h-14.6h-20.5h-0.5c0.8,0.6,1.6,1.1,2.3,1.8C479,118.3,488.6,138.7,488.6,162z"/>
	<path fill="#4F5688" d="M107.7,330.5h17.1c12.8-12.5,21.1-34.8,21.1-56.5c0-23.4-9.7-43.8-24.2-55.2c-0.7-0.6-1.4-1.1-2.2-1.6h0.7
		c-0.1-0.1-0.2-0.1-0.3-0.2l-15.4,0.1l-0.1,0l0-1.3l-0.2-59.5l-12.1,0.1l0.2,60.8l-21.1,0.1l-18.7,0.1l-0.7,0l-14.3,0.1l-14.7,0.1
		l-6.3,0c0.6,0.4,1.2,0.9,1.8,1.3c14.7,11.3,24.6,31.8,24.7,55.4c0.1,21.5-8.1,43.7-20.6,56.3h0.4h15.6h21.1v-60.8h12.1v59l0,1.8
		h14.9h0.5H107.7z"/>
	<path fill="#4E6B84" d="M211.1,330.5h17.1c12.8-12.5,21.1-34.8,21.1-56.5c0-23.4-9.7-43.8-24.2-55.2c-0.7-0.6-1.4-1.1-2.2-1.6
		h-15.3h-0.1V158v-1.6h-12.1v60.8h-21.1h-18.8H155h-14.4h-20.3h-0.7c0.7,0.5,1.4,1.1,2.2,1.6c14.5,11.4,24.2,31.9,24.2,55.2
		c0,21.7-8.3,44-21.1,56.5h0.5h16h21.1v-60.8h12.1v60.8h15.4h0.1H211.1z"/>
	<path fill="#4F7C83" d="M249.3,274.1c0,21.7-8.3,44-21.1,56.5h0.1h16.5h21.1v-60.8h12.1v60.8h15.2h0.3h20.7h17.1
		c12.8-12.5,21.1-34.8,21.1-56.5c0-23.4-9.7-43.8-24.2-55.2c-0.7-0.6-1.4-1.1-2.2-1.6h-15H311V158v-1.6h-12.1v60.8h-21.1h-19.2h-0.1
		H244h-20.9H223c0.7,0.5,1.4,1.1,2.2,1.6C239.6,230.2,249.3,250.7,249.3,274.1z"/>
	<path fill="#4F7F76" d="M352.4,274.1c0,21.7-8.3,44-21.1,56.5h0.3h16.3H369v-60.8h12.1v60.8h15h0.5h20.5h17.1
		c12.8-12.5,21.1-34.8,21.1-56.5c0-23.4-9.7-43.8-24.2-55.2c-0.7-0.6-1.4-1.1-2.2-1.6h-14.8h-0.1V158v-1.6h-12.1v60.8h-21.1h-19
		h-0.3h-14.4h-20.7h-0.3c0.7,0.5,1.4,1.1,2.2,1.6C342.8,230.2,352.4,250.7,352.4,274.1z"/>
	<path fill="#4D7A52" d="M558.8,274.1c0,21.7-8.3,44-21.1,56.5h16.5h21l0.1-2.3v-58.5h12.1v60.8h14.6c0,0,0,0,0,0h21h17.1
		c12.8-12.5,21.1-34.8,21.1-56.5c0-23.3-9.6-43.8-24.1-55.2c-0.7-0.6-1.4-1.1-2.2-1.6h-14.5h-0.1V158v-1.6h-12.1v60.8h-21.1h-19.2
		h-0.1h-14.4h-20.9c0.7,0.5,1.4,1.1,2.2,1.6C549.1,230.2,558.8,250.7,558.8,274.1z"/>
	<path fill="#4E7C62" d="M455.3,274.1c0,21.7-8.3,44-21.1,56.5h0.5h16.1h21l0.1-3.4v-57.5h12.1v60.8h15.4h0.1h20.9h17h0.2
		c12.8-12.5,21.1-34.8,21.1-56.5c0-23.4-9.7-43.8-24.2-55.2c-0.7-0.6-1.4-1.1-2.2-1.6h-0.1h-15.3H517V158v-1.6h-12.1v60.8h-21.1H465
		h-0.5H450h-20.5H429c0.7,0.5,1.4,1.1,2.2,1.6C445.7,230.2,455.3,250.7,455.3,274.1z"/>
	<path fill="#4C5E41" d="M704.7,105.1h18.2H744V44.3h12.1v60.8h15c0,0-0.1,0-0.1-0.1h21h14.4c14.4-11.4,24-31.8,24-55.1
		c0-20.1-7.2-38.1-18.4-49.9H710.2c11.3,11.9,18.5,29.9,18.5,50C728.6,73.3,719.1,93.7,704.7,105.1z"/>
	<path fill="#516645" d="M703.7,105.1h-14.6h-21c0,0,0,0,0,0c0.8,0.6,1.6,1.1,2.3,1.8c14.4,11.4,23.9,31.8,23.9,55.1
		c0,23.4-9.7,43.8-24.2,55.2h1h18.3h21.1v-60.8h12.1v1.6h0.1v59.2h15c0,0-0.1,0-0.1-0.1h21h14.3c14.5-11.4,24.2-31.9,24.2-55.2
		c0-23.2-9.6-43.6-23.9-55c-0.8-0.6-1.5-1.2-2.3-1.8h-15V44.3H744v60.8h-21.1h-18.2c14.4-11.4,23.9-31.8,23.9-55.1
		c0-20.2-7.2-38.2-18.5-50h-0.9c11.3,11.9,18.5,29.9,18.5,50C727.7,73.3,718.1,93.7,703.7,105.1z"/>
	<path fill="#516645" d="M806.5,105h0.8c14.3-11.4,23.9-31.8,23.9-55c0-20.1-7.2-38.1-18.5-50h-0.6c11.2,11.9,18.4,29.8,18.4,49.9
		C830.5,73.2,820.9,93.6,806.5,105z"/>
	<path fill="#59774D" d="M634.9,217.2C634.9,217.2,634.9,217.2,634.9,217.2c0.8,0.5,1.5,1.1,2.2,1.6c14.5,11.4,24.1,31.9,24.1,55.2
		c0,21.7-8.3,44-21.1,56.5h0.9h15.6h21l0.1-4.8v-56H690v60.8h15.5c0.2,0.1,0.4,0.3,0.6,0.4h19.4h17.3c13.1-12.4,21.6-35,21.6-56.9
		c0-23.3-9.6-43.7-24.1-55.2c-0.7-0.6-1.4-1.1-2.2-1.6h-15h-0.1V158v-1.6h-12.1v60.8h-21.1h-18.3h-1h-14.4H634.9z"/>
	<path fill="#709E5E" d="M698.5,499.4c0-23.4-9.7-43.8-24.2-55.2h-0.7h-16.8v-1.6h-0.1v-59.2h-12v60.8H623h-20c0,0,0,0,0,0h-31.1
		H571c14.5,11.4,24.1,31.9,24.1,55.2c0,24.4-10.6,45.7-26.1,56.7h1h20.4h21.1v-60.8h12.1v0.1h0.1v60.7H639c0,0,0,0,0,0
		c0,0,0.1,0.1,0.1,0.1h33.1c0,0,0.1,0,0.1-0.1c0,0,0,0,0,0C687.9,545.1,698.5,523.9,698.5,499.4z"/>
	<path fill="#7DAA66" d="M639.1,556.3c0,0-0.1-0.1-0.1-0.1c0,0,0,0,0,0h-15.4h-0.1v-60.7v-0.1h-12.1v60.8h-21.1h-20.4h-1h-12.4h-21
		c0,0,0,0,0,0c0.1,0,0.1,0.1,0.2,0.1c15.6,11.1,26.1,32.3,26.1,56.7c0,12.9-2.9,24.9-8,35h0.9h102h0.5c5.1-10.1,8-22.1,8-35
		C665.3,588.6,654.7,567.3,639.1,556.3z"/>
	<path fill="#585C99" d="M26.5,444.2v-60.8h12h0.1v59.2v1.6h17h0.5h30.6c0.7-0.5,1.4-1.1,2.2-1.6c14.5-11.4,24.2-31.9,24.2-55.2
		c0-21.6-8.3-40.7-21-52.5c-1.7-1.6-3.5-3-5.3-4.3H71.8h0v-1.8v-59H59.6v60.8H38.5H22.9h-0.4H4.8H0v0.3v16.5v1.2
		c6.4,10.8,10.1,24.3,10.1,38.9c0,14.6-3.8,28.1-10.1,38.9v1.2v15.2v1.6h4.8H26.5z"/>
	<path fill="#597699" d="M190.1,444.2c0.7-0.5,1.4-1.1,2.2-1.6c14.5-11.4,24.2-31.9,24.2-55.2c0-21.6-8.2-40.7-20.9-52.5
		c-1.7-1.6-3.5-3.1-5.4-4.4h-15.4v-60.8h-12.1v60.8h-21.1h-16h-0.5h-17.1H87.3h-0.5c1.9,1.3,3.6,2.8,5.3,4.3
		c12.7,11.8,21,30.9,21,52.5c0,23.4-9.7,43.8-24.2,55.2c-0.7,0.6-1.4,1.1-2.2,1.6h0.5h20.5h21.7v-60.8h12h0.1v59.2v1.6H159h0.1
		H190.1z"/>
	<path fill="#5B8F99" d="M319.5,387.4c0-21.6-8.2-40.7-20.9-52.5c-1.7-1.6-3.5-3.1-5.4-4.4h-15.2v-60.8h-12.1v60.8h-21.1h-16.5h-0.1
		h-17.1h-20.9h-0.1c1.9,1.3,3.7,2.8,5.4,4.4c12.7,11.8,20.9,30.9,20.9,52.5c0,23.4-9.7,43.8-24.2,55.2c-0.7,0.6-1.4,1.1-2.2,1.6h0.1
		h20.9h21.7v-60.8h12h0.1v59.2v1.6h17.2h0.3h30.8c0.7-0.5,1.4-1.1,2.2-1.6C309.9,431.2,319.5,410.7,319.5,387.4z"/>
	<path fill="#5A968A" d="M422.4,387.4c0-21.6-8.2-40.7-20.9-52.5c-1.7-1.6-3.5-3.1-5.4-4.4h-15v-60.8H369v60.8h-21.1h-16.3h-0.3
		h-17.1h-20.7h-0.3c1.9,1.3,3.7,2.8,5.4,4.4c12.7,11.8,20.9,30.9,20.9,52.5c0,23.4-9.7,43.8-24.2,55.2c-0.7,0.6-1.4,1.1-2.2,1.6h0.3
		h20.7h21.7v-60.8h12h0.1v59.2v1.6h17h0.5h30.6c0.7-0.5,1.4-1.1,2.2-1.6C412.8,431.2,422.4,410.7,422.4,387.4z"/>
	<path fill="#589373" d="M525.8,387.4c0-21.6-8.2-40.7-20.9-52.5c-1.7-1.6-3.5-3.1-5.4-4.4h-15.4v-60.8H472v57.5v3.4h-0.1h-21h-16.1
		h-0.5h-17.1h-20.5h-0.5c1.9,1.3,3.7,2.8,5.4,4.4c12.7,11.8,20.9,30.9,20.9,52.5c0,23.4-9.7,43.8-24.2,55.2
		c-0.7,0.6-1.4,1.1-2.2,1.6h0.5h20.5h21.7v-60.8h12h0.1v59.2v1.6h17.4h0.1h31c0.7-0.5,1.4-1.1,2.2-1.6
		C516.1,431.2,525.8,410.7,525.8,387.4z"/>
	<path fill="#57915D" d="M604.2,442.6c14.5-11.4,24.2-31.9,24.2-55.2c0-21.6-8.2-40.6-20.9-52.4c-1.7-1.6-3.5-3.1-5.4-4.4h-14.6
		v-60.8h-12.1v58.5v2.3h-0.1h-21h-16.5h-0.2h-17h-20.9h-0.1c1.9,1.3,3.7,2.8,5.4,4.4c12.7,11.8,20.9,30.9,20.9,52.5
		c0,23.4-9.7,43.8-24.2,55.2c-0.7,0.6-1.4,1.1-2.2,1.6h0.1h20.9h21.7v-60.8h12h0.1v59.2v1.6H571h0.9h31.1c0,0,0,0,0,0h-1
		C602.7,443.7,603.5,443.1,604.2,442.6z"/>
	<path fill="#5D6747" d="M792.6,217.1h21.1v-60.8h12.1v1.6h0v59.2h15.4c0,0,0,0,0,0h20.5h14.3c14.5-11.4,24.2-31.9,24.2-55.2
		c0-23.3-9.6-43.7-24-55.1c-0.8-0.6-1.5-1.2-2.3-1.7h0.6c0,0,0,0,0,0H859V44.2h-12.1V105h-21.1h-18.5h-0.8h-14.4h-21
		c0,0,0.1,0,0.1,0.1c0.8,0.6,1.6,1.1,2.3,1.8c14.3,11.4,23.9,31.8,23.9,55c0,23.4-9.7,43.8-24.2,55.2h0.6H792.6z"/>
	<path fill="#554338" d="M998.5,217.2h21.1v-60.8h12.1v1.6h0v59.2h15.4c0,0,0,0,0,0h20.5h14.3c14.5-11.4,24.2-31.9,24.2-55.2
		c0-23.3-9.6-43.7-24-55.1c-0.8-0.6-1.5-1.2-2.3-1.7h0.6c0,0,0,0,0,0h-15.5V44.3h-12.1v60.8h-21.1h-18.8h-0.5h-14.4h-20.5h-0.6
		c0.8,0.5,1.5,1.1,2.3,1.7c14.4,11.4,24,31.8,24,55.1c0,23.4-9.7,43.8-24.2,55.2h0.5H998.5z"/>
	<path fill="#4F3433" d="M1115.7,105.1h-0.5h-14.4h-20.5h-0.6c0.8,0.5,1.5,1.1,2.3,1.7c14.4,11.4,24,31.8,24,55.1
		c0,23.4-9.7,43.8-24.2,55.2h0.5h18.9h21.1v-60.8h12.1v1.6h0v59.2h15.4c0,0,0,0,0,0h1.8V106.9v-1.8h-17.5H1115.7z"/>
	<path fill="#72704D" d="M841.4,217.2c0.7,0.5,1.4,1,2.1,1.6c14.5,11.4,24.2,31.9,24.2,55.2c0,22-8.5,44.6-21.6,57h16h21.1v-60.8
		h0.4V270l0.2,0.1h11.5v56.3l0.2,4.5h15.2c0,0,0,0,0,0h20.5h17.3c13.1-12.4,21.6-35,21.6-56.9c0-23.4-9.7-43.9-24.2-55.3
		c-0.7-0.5-1.4-1.1-2.1-1.6h0.6c0,0,0,0,0,0h-15.4h0v-59.2v-1.6h-12.1v60.8h-21.1h-18.9h-0.5h-14.3H841.4z"/>
	<path fill="#604140" d="M1152,218.6v-1.4h-1.8C1150.8,217.7,1151.4,218.1,1152,218.6z"/>
	<path fill="#634340" d="M1150.1,217.2h-15.4h0V158v-1.6h-12.1v60.8h-21.1h-18.9h-0.5h-14.3h-20.5c0.7,0.5,1.4,1,2.1,1.6
		c14.5,11.4,24.2,31.9,24.2,55.2c0,22-8.5,44.6-21.6,57h16h21.1v-60.8h0.4v-0.1l0.1,0.1h11.6v60.3l0,0.5h15.4c0,0,0,0,0,0h20.5h14.9
		v-112v-0.2h0.3c-0.1-0.1-0.2-0.1-0.3-0.2C1151.4,218.1,1150.8,217.7,1150.1,217.2C1150.1,217.2,1150.1,217.2,1150.1,217.2z"/>
	<path fill="#665142" d="M945.9,218.8c14.5,11.4,24.2,31.9,24.2,55.3c0,21.9-8.5,44.5-21.6,56.9h0.5h16H986v-60.8h0.4V270l0.1,0.1
		h11.6v59.2l0.1,1.6h15.4c0,0,0,0,0,0h20.5h17.3h0.5c13.1-12.4,21.6-35,21.6-57c0-23.4-9.7-43.8-24.2-55.2c-0.7-0.5-1.4-1.1-2.1-1.6
		c0,0,0,0,0,0h-15.4h0V158v-1.6h-12.1v60.8h-21.1h-18.9h-0.5h-14.3h-20.5h-0.6C944.5,217.7,945.2,218.2,945.9,218.8z"/>
	<path fill="#68754C" d="M764.2,274c0,21.9-8.5,44.5-21.6,56.9h0.5h15.9h21.1v-60.8h12.1v60.8h15.5c0,0,0,0,0,0h20.5h17.3h0.5
		c13.1-12.4,21.6-35,21.6-57c0-23.4-9.7-43.8-24.2-55.2c-0.7-0.5-1.4-1.1-2.1-1.6c0,0,0,0,0,0h-15.4h0v-59.2v-1.6h-12.1v60.8h-21.1
		h-18.8h-0.6h-14.3h-21c0,0,0.1,0,0.1,0.1c0.7,0.5,1.4,1.1,2.2,1.6C754.6,230.2,764.2,250.7,764.2,274z"/>
	<path fill="#767F4C" d="M833.6,387.8c0-21.9-8.5-41.2-21.5-53c-1.5-1.4-3.2-2.7-4.8-3.9h0.6c0,0,0,0,0,0h-15.5v-60.8h-12.1v60.8
		h-21.1h-15.9h-0.5h-17.3H706c1.7,1.2,3.3,2.5,4.8,4c12.7,11.8,20.9,30.9,20.9,52.5c0,23.3-9.6,43.7-24.1,55.2
		c-0.7,0.6-1.5,1.1-2.2,1.7h-0.5c-0.2,0.1-0.4,0.3-0.6,0.4h21h21.7v-2.1v-58.7h0.2h12v60.8h17.9h0.5h29.7c0.9-0.7,1.8-1.3,2.7-2.1
		C824.2,431,833.6,410.8,833.6,387.8z"/>
	<path fill="#7C744E" d="M936.5,387.8c0-21.9-8.5-41.2-21.5-53c-1.5-1.4-3.2-2.7-4.8-3.9h0.6c0,0,0,0,0,0h-15.2h-0.2v-4.5v-56.3
		h-11.5h-0.2h-0.4v60.8H862h-16h-0.5h-17.3h-20.5h-0.6c1.7,1.2,3.3,2.5,4.8,3.9c13,11.7,21.5,31.1,21.5,53c0,23-9.4,43.3-23.5,54.7
		c-0.9,0.7-1.8,1.4-2.7,2.1c0,0,0,0,0,0h21H850v-2.1v-58.7h0.2h12v60.8H880h0.5h29.7c0.9-0.7,1.8-1.3,2.7-2.1
		C927.1,431.1,936.5,410.9,936.5,387.8z"/>
	<path fill="#7A604F" d="M1039.5,387.9c0-21.9-8.5-41.2-21.5-53c-1.5-1.4-3.2-2.7-4.8-3.9h0.6c0,0,0,0,0,0h-15.4h-0.1v-1.6v-59.2
		h-11.6h-0.1H986V331h-21.1h-16h-0.5h-17.3h-20.5h-0.6c1.7,1.2,3.3,2.5,4.8,3.9c13,11.7,21.5,31.1,21.5,53c0,23-9.4,43.3-23.5,54.7
		c-0.9,0.7-1.8,1.4-2.7,2.1c0,0,0,0,0,0h21h21.7v-2.1v-58.7h0.2h12v60.8h17.9h0.5h29.7c0.9-0.7,1.8-1.3,2.7-2.1
		C1030.1,431.1,1039.5,410.9,1039.5,387.9z"/>
	<path fill="#77514E" d="M1034.2,331h-20.5h-0.6c1.7,1.2,3.3,2.5,4.8,3.9c13,11.7,21.5,31.1,21.5,53c0,23-9.4,43.3-23.5,54.7
		c-0.9,0.7-1.8,1.4-2.7,2.1c0,0,0,0,0,0h21h21.7v-2.1v-58.7h0.2h12v60.8h17.9h0.5h29.7c0.9-0.7,1.8-1.3,2.7-2.1
		c14.2-11.5,23.5-31.7,23.5-54.7c0-21.9-8.5-41.2-21.5-53c-1.5-1.4-3.2-2.7-4.8-3.9h0.6c0,0,0,0,0,0h-15.4h0v-0.5v-60.3h-11.6h-0.1
		h-0.4V331h-21.1h-16h-0.5H1034.2z"/>
	<path fill="#754F4E" d="M1116.6,331h-0.6c1.7,1.2,3.3,2.5,4.8,3.9c13,11.7,21.5,31.1,21.5,53c0,23-9.4,43.3-23.5,54.7
		c-0.9,0.7-1.8,1.4-2.7,2.1c0,0,0,0,0,0h21h14.9v-2.1V334.9v-1.5c1-0.8,1.9-1.6,2.8-2.5h-0.5h-2.3h-14.9H1116.6z"/>
	<path fill="#608E55" d="M707.7,442.5c14.4-11.4,24.1-31.9,24.1-55.2c0-21.6-8.2-40.7-20.9-52.5c-1.5-1.4-3.2-2.8-4.8-4
		c-0.2-0.1-0.4-0.3-0.6-0.4H690v-60.8h-12.1v56v4.8h-0.1h-21h-15.6h-0.9H623h-21c0,0,0,0,0,0c1.9,1.3,3.7,2.8,5.4,4.4
		c12.7,11.8,20.9,30.9,20.9,52.4c0,23.4-9.7,43.8-24.2,55.2c-0.7,0.6-1.4,1.1-2.2,1.6h1h20h21.7v-60.8h12h0.1v59.2v1.6h16.8h0.7
		h30.6h0.5C706.2,443.7,707,443.1,707.7,442.5z"/>
</g>
</svg>
