<!DOCTYPE svg PUBLIC "-//W3C//DTD SVG 1.1//EN" "http://www.w3.org/Graphics/SVG/1.1/DTD/svg11.dtd" [
	<!ENTITY ns_flows "http://ns.adobe.com/Flows/1.0/">
]><svg xmlns="http://www.w3.org/2000/svg" width="1024" height="480" viewBox="-4.807 -137.183 1024 480"><path fill="#C9C9C9" d="M24.853 10.375l.703.82v.587c0 .665-2.19.997-6.565.997h-6.564c-.234 0-.47.273-.703.82l.47 10.727c-.158.977-.235 1.524-.235 1.64 1.407 23.644 2.11 40.584 2.11 50.82.155.275.234.49.234.646-.157.234-.234.43-.234.586l.234 1.406c-.234.548-.47.82-.704.82h-.938c-.156 0-.47-.272-.938-.82 0-.273.078-1.016.234-2.227 0-3.36-.704-20.243-2.11-50.645 0-4.962-.156-9.476-.47-13.54l-.466-.237h-.704l-7.503.645C.233 12.916 0 12.31 0 11.606c0-.234.312-.507.938-.82 1.094.273 1.72.41 1.876.41 3.01-.273 5.12-.41 6.33-.41h9.614c1.992 0 4.023-.137 6.095-.41zM39.448.176h.47c.428.548 1.835 1.017 4.22 1.407 2.968 1.212 5.392 3.4 7.268 6.565 2.657 6.448 3.986 11.216 3.986 14.302v2.345c0 10.24-2.97 17.664-8.91 22.274 6.877 1.64 10.863 9.77 11.958 24.383v8.91c0 1.33.078 3.283.234 5.862l-.703.47h-.703l-.938-.705c-.157-3.125-.235-5.47-.235-7.034v-8.44c0-5.862-1.798-11.88-5.393-18.054-2.5-2.345-4.69-3.517-6.565-3.517h-.234c.156 3.36.234 5.86.234 7.503v8.91c.313 7.737.47 12.114.47 13.13v.47c-.314.624-.783.937-1.408.937-.235 0-.626-.313-1.173-.938l.234-1.64c-.312-6.605-.468-10.98-.468-13.13v-14.07c-.665 0-1.134-.313-1.407-.938v-.705c.313-.625.704-.938 1.172-.938C40.775 26.083 39.76 10.53 38.51.88l.938-.704zm1.876 3.282c.938 11.41 1.797 25.556 2.58 42.438 6.095-4.142 9.143-10.786 9.143-19.93v-3.282c0-4.104-1.72-9.34-5.158-15.71-2.58-2.343-4.535-3.516-5.863-3.516h-.703zM96.013 9.79h.47c.234 0 .546.312.937.937v.235c-1.25 11.176-2.58 22.118-3.986 32.825l.234 1.407v.704c-.547 0-1.407 7.737-2.58 23.21-.468 7.738-1.016 13.522-1.64 17.352l-.47.234h-.703c-.313-.078-.625-.47-.938-1.172 1.72-20.593 2.97-34.036 3.75-40.328-4.22-9.183-9.77-18.405-16.646-27.667-1.25-.898-1.874-1.76-1.874-2.58v-.468c0-.235.313-.548.938-.94h.938c.508.197.977.978 1.407 2.345 6.25 7.737 11.41 15.944 15.474 24.62h.235c1.718-14.89 2.968-24.97 3.75-30.247l.703-.47zM154.335 7.503l.703.88v.41c0 .195-.39.566-1.172 1.113h-2.345c-4.14 0-6.955 1.544-8.44 4.63-1.25 3.4-1.874 7.19-1.874 11.372 0 2.58 1.093 6.76 3.282 12.544.78 1.563 5 5.803 12.66 12.72 3.908 5.627 5.862 11.176 5.862 16.646 0 4.338-.938 8.578-2.813 12.72-.86 1.955-3.205 3.634-7.034 5.04-1.37.744-2.462 1.115-3.283 1.115-.82 0-1.368-.293-1.64-.88v-.644c0-.43.858-.724 2.578-.88 5.158-1.954 7.737-4.005 7.737-6.155 1.407-2.813 2.11-6.467 2.11-10.96 0-5.9-2.658-11.685-7.972-17.35-4.182-3.167-7.308-6.234-9.378-9.204-1.407-1.523-2.813-5.547-4.22-12.074 0-.78-.08-1.797-.234-3.048 0-5 .94-9.457 2.814-13.365 2.15-3.086 6.37-4.63 12.66-4.63zM184.64 5.862l.47.234c.155 0 .234-.078.234-.234 5 .47 7.502 1.017 7.502 1.64v.235c-.273.782-.665 1.172-1.172 1.172l-6.8-.705c-.43 0-1.992.08-4.688.235l.234 2.813c0 2.54.39 12.857 1.172 30.95h1.64c1.29 0 2.306-.08 3.05-.236 3.516.313 6.095.47 7.736.47l.704.937v.703c0 .47-.313.704-.938.704-1.368 0-3.634-.155-6.8-.468-2.11.157-3.907.234-5.392.234v.938c0 11.02.546 23.76 1.64 38.218.157 0 .235.08.235.234 5.9-.313 9.417-.47 10.55-.47.665.197 1.134.587 1.408 1.173v.234c0 .234-.313.547-.938.938-5.94.157-9.535.313-10.786.47-1.874 0-2.812-1.017-2.812-3.05-1.094-14.926-1.64-27.353-1.64-37.278V38.45c-.783-13.754-1.173-23.054-1.173-27.9-.47-2.345-.704-3.595-.704-3.75l.94-.704h2.578c.9 0 2.15-.078 3.752-.234zM216.878 6.682h.234c2.228 1.017 4.123 3.77 5.686 8.265 4.338 13.443 7.542 30.618 9.613 51.523 1.368 6.8 2.052 12.76 2.052 17.878-.196.508-.723.762-1.583.762-.626-1.21-1.564-7.424-2.814-18.64-.352-1.21-1.134-6.39-2.345-15.533l-1.816-.234c-8.44.782-12.66 1.64-12.66 2.58v9.084l-1.584 21.747c.352.548.527 1.055.527 1.524 0 .274-.352.625-1.055 1.055-1.368 0-2.05-.86-2.05-2.58 1.21-16.49 1.816-26.415 1.816-29.776-.156-2.148-.234-4.317-.234-6.506.078-11.253 1.016-23.152 2.813-35.696.744-3.634 1.877-5.452 3.4-5.452zm0 3.107c-2.267 8.753-3.4 20.065-3.4 33.937-.156 0-.234 1.896-.234 5.686v.762c4.924-1.368 9.672-2.052 14.244-2.052v-.293c0-4.767-2.6-16.06-7.796-33.88-1.134-2.46-2.072-3.848-2.814-4.16zM252.927.176h.47c.428.548 1.835 1.017 4.22 1.407 2.968 1.212 5.392 3.4 7.268 6.565 2.657 6.448 3.986 11.216 3.986 14.302v2.345c0 10.24-2.97 17.664-8.91 22.274 6.878 1.64 10.864 9.77 11.96 24.383v8.91c0 1.33.077 3.283.233 5.862l-.703.47h-.704l-.938-.705c-.156-3.125-.234-5.47-.234-7.034v-8.44c0-5.862-1.798-11.88-5.393-18.054-2.5-2.345-4.688-3.517-6.564-3.517h-.234c.156 3.36.234 5.86.234 7.503v8.91c.313 7.737.47 12.114.47 13.13v.47c-.314.624-.783.937-1.408.937-.234 0-.625-.313-1.172-.938l.234-1.64c-.313-6.605-.47-10.98-.47-13.13v-14.07c-.664 0-1.133-.313-1.406-.938v-.705c.313-.625.704-.938 1.172-.938-.782-21.454-1.798-37.006-3.048-46.658l.94-.704zm1.876 3.282c.938 11.41 1.797 25.556 2.58 42.438 6.095-4.142 9.143-10.786 9.143-19.93v-3.282c0-4.104-1.72-9.34-5.158-15.71-2.58-2.343-4.534-3.516-5.862-3.516h-.703zM299.468 7.21h1.642c2.813.508 4.22 1.524 4.22 3.048 0 .234-.313.548-.938.938h-.938c-1.017-1.25-2.11-1.876-3.282-1.876-3.908 1.37-5.862 2.62-5.862 3.75-3.126 5.94-4.69 14.07-4.69 24.385v3.986c0 6.957.94 15.32 2.814 25.088 1.133 7.15 2.696 11.997 4.69 14.537 2.422 2.11 4.532 3.205 6.33 3.282 2.306 0 4.807-1.72 7.503-5.158h.704c.235 0 .47.233.704.703v.47c0 1.406-1.72 3.204-5.158 5.392-1.446.625-2.775.938-3.986.938h-.234c-2.306-.273-4.73-1.524-7.27-3.75-2.774-2.19-5.196-11.1-7.267-26.73-.783-3.36-1.173-8.91-1.173-16.646V38.16c.273-15.827 2.852-25.595 7.737-29.308 2.305-1.095 3.79-1.642 4.454-1.642zM341.32 0h.47c.624.313.937.704.937 1.172 0 7.347-.157 13.052-.47 17.116l.47 24.384c.313.508.47.9.47 1.172-.157.47-.314.703-.47.703.313 7.308.547 20.047.703 38.218-.156.82-.234 2.384-.234 4.69l-.703.468h-.704l-.94-.704c0-1.68.08-3.01.236-3.987-.157-21.375-.39-34.192-.704-38.452-7.347.157-11.49.392-12.426.704.312 2.893.47 5.784.47 8.675 0 6.212-.08 11.684-.235 16.412.157 2.658.235 7.816.235 15.475-.508.313-.978.47-1.407.47-.234 0-.548-.314-.938-.94v-2.11c0-6.368-.08-10.667-.234-12.895.156-3.83.234-8.52.234-14.068v-3.517c-.47-7.66-.703-12.973-.703-15.943.47-17.428.703-28.526.703-33.294-.157-.625-.234-1.172-.234-1.64l.938-.705h.47c.78.47 1.17 1.095 1.17 1.876 0 2.893-.233 14.616-.703 35.17v4.22l.236.47c1.016-.313 5.158-.547 12.426-.704-.157-5.666-.234-9.73-.234-12.192V19.46c0-.352-.08-.664-.234-.938l.234-.47c.156-7.502.234-13.285.234-17.35L341.32 0zM364.532 6.975H365c1.094 0 1.64 4.143 1.64 12.427v3.048c0 3.048-.468 10.942-1.406 23.68 0 .626.078 1.252.234 1.876-.156 8.168-.234 14.654-.234 19.46v15.24c0 .313.156 1.094.47 2.345-.197 1.095-.51 1.642-.94 1.642h-.937c-.625 0-.938-2.11-.938-6.33 0-27.12.468-45.8 1.406-56.038V17.76c0-3.635-.234-6.918-.703-9.85 0-.23.313-.544.94-.935zM385.517 5.745c.86 0 4.396 10.648 10.61 31.945.897 5.04 4.688 17.702 11.37 37.983h.646V73.68c-.9-18.992-1.348-29.66-1.348-32.004 0-.703.097-3.086.293-7.15-.04-.47-.06-1.388-.06-2.756.314-3.087.47-5.548.47-7.386V7.737c.117-.898.546-1.348 1.29-1.348l1.348.703c-.43 8.87-.645 15.533-.645 19.988v6.625c0 13.6.43 31.145 1.29 52.637l-1.29.645c-.898 0-6.447-17.31-16.646-51.934l-6.154-21.16-.47-.762-.058 1.29c.273 3.284.41 5.863.41 7.738l.06 1.993c-.314 8.676-.47 14.753-.47 18.23 0 17.507.664 31.926 1.993 43.258h-1.348c-.86 0-1.29-.43-1.29-1.29-.9-13.637-1.348-25.85-1.348-36.635V7.093c.154-.9.603-1.348 1.347-1.348zM436.688 9.79h.47c2.968 0 5.312 1.093 7.033 3.28v.47c0 .234-.312.547-.937.938-.313 0-1.33-.547-3.048-1.64-1.017-.47-2.11-.705-3.283-.705h-.938c-4.69 1.134-7.034 14.5-7.034 40.093 0 12.075 1.407 21.298 4.22 27.667.9 1.875 2.697 3.36 5.393 4.455h.938c2.815-.547 4.222-1.72 4.222-3.517.546 0 1.328-4.688 2.344-14.066v-11.49l-.234-1.17c-.156 0-.234.078-.234.233-6.252-.47-9.378-.938-9.378-1.407l-.234-1.172v-.234c0-.234.234-.47.703-.704h.703c.507.39 3.87.86 10.082 1.407.625.625.938 2.11.938 4.455v5.86c0 .9-.08 2.15-.234 3.752.155.313.233.548.233.704-1.055 12.35-2.853 18.522-5.393 18.522 0 .313-1.172.704-3.517 1.172h-.938c-2.54-.586-4.807-2.07-6.8-4.455-3.44-6.526-5.158-16.608-5.158-30.246 0-25.75 2.58-39.74 7.737-41.968l2.344-.233zM509.958 7.503l.703.88v.41c0 .195-.39.566-1.17 1.113h-2.346c-4.142 0-6.956 1.544-8.44 4.63-1.25 3.4-1.875 7.19-1.875 11.372 0 2.58 1.092 6.76 3.28 12.544.782 1.563 5.002 5.803 12.662 12.72 3.907 5.627 5.86 11.176 5.86 16.646 0 4.338-.937 8.578-2.812 12.72-.86 1.955-3.204 3.634-7.034 5.04-1.368.744-2.46 1.115-3.282 1.115-.82 0-1.368-.293-1.64-.88v-.644c0-.43.858-.724 2.578-.88 5.157-1.954 7.736-4.005 7.736-6.155 1.407-2.813 2.11-6.467 2.11-10.96 0-5.9-2.657-11.685-7.972-17.35-4.18-3.167-7.307-6.234-9.378-9.204-1.407-1.523-2.813-5.547-4.22-12.074 0-.78-.08-1.797-.234-3.048 0-5 .938-9.457 2.813-13.365 2.148-3.086 6.37-4.63 12.66-4.63zM541.2 6.272c4.415 0 7.933 10.55 10.55 31.652.156 1.993.235 4.572.235 7.737v.94c0 .548-.08 1.25-.234 2.11.156.196.235.743.235 1.64v.235c0 .9-.08 1.446-.234 1.64.156.822.235 1.29.235 1.408 0 16.49-2.267 26.65-6.8 30.48-1.603.625-2.696.938-3.282.938h-1.64c-5.63-1.367-9.146-8.635-10.553-21.804l-.703-9.613c0-22 2.735-37.24 8.206-45.72 1.446-1.093 2.775-1.64 3.987-1.64zm-9.848 46.658c0 8.832 1.173 16.57 3.517 23.212 2.187 4.377 4.14 6.565 5.86 6.565h.235c3.165 0 5.196-2.188 6.096-6.565 1.72-4.064 2.58-12.74 2.58-26.025v-4.69c0-9.182-1.64-19.732-4.924-31.65-1.172-2.62-2.345-4.34-3.517-5.16-1.838.704-2.932 1.564-3.283 2.58-4.376 9.26-6.565 23.172-6.565 41.733zM567.167 5.45c.938.314 5.96 12.838 15.064 37.574h.646c0-1.68 3.868-13.754 11.605-36.225h.705l.586 1.113.06 2.345c-.43 13.99-.645 25.81-.645 35.462 0 3.713.683 17.136 2.05 40.27l-1.405.703c-.9 0-1.798-12.74-2.696-38.218V19.812h-.703c-5.666 17.625-8.85 26.71-9.554 27.256-1.368-.078-5.686-10.316-12.954-30.714h-.703v.703l3.398 67.584-1.35.705c-.898 0-1.347-.47-1.347-1.407-1.367-40.875-2.734-66.802-4.103-77.783l1.35-.704zM619.217 5.862l.47.234c.154 0 .233-.078.233-.234 5 .47 7.503 1.017 7.503 1.64v.235c-.274.782-.665 1.172-1.173 1.172l-6.8-.705c-.43 0-1.992.08-4.688.235l.234 2.813c0 2.54.39 12.857 1.172 30.95h1.642c1.29 0 2.306-.08 3.048-.236 3.518.313 6.097.47 7.737.47l.703.937v.703c0 .47-.313.704-.938.704-1.368 0-3.634-.155-6.8-.468-2.11.157-3.907.234-5.393.234v.938c0 11.02.547 23.76 1.642 38.218.154 0 .233.08.233.234 5.9-.313 9.417-.47 10.55-.47.665.197 1.134.587 1.408 1.173v.234c0 .234-.312.547-.937.938-5.94.157-9.535.313-10.785.47-1.876 0-2.813-1.017-2.813-3.05-1.095-14.926-1.642-27.353-1.642-37.278V38.45c-.78-13.754-1.172-23.054-1.172-27.9-.468-2.345-.702-3.595-.702-3.75l.938-.704h2.58c.898 0 2.148-.078 3.75-.234zM665.7 10.375l.703.82v.587c0 .665-2.19.997-6.565.997h-6.564c-.234 0-.47.273-.704.82l.47 10.727c-.157.977-.235 1.524-.235 1.64 1.407 23.644 2.11 40.584 2.11 50.82.156.275.234.49.234.646-.157.234-.235.43-.235.586l.234 1.406c-.235.548-.47.82-.704.82h-.938c-.157 0-.47-.272-.938-.82 0-.273.078-1.016.234-2.227 0-3.36-.703-20.243-2.11-50.645 0-4.962-.156-9.476-.47-13.54l-.468-.235h-.703l-7.503.645c-.47-.507-.703-1.113-.703-1.817 0-.234.313-.507.938-.82 1.094.273 1.72.41 1.876.41 3.01-.273 5.12-.41 6.33-.41h9.614c1.992-.003 4.023-.14 6.095-.413zM696.53 0h.47c.624.313.938.704.938 1.172 0 7.347-.156 13.052-.47 17.116l.47 24.384c.313.508.47.9.47 1.172-.157.47-.314.703-.47.703.313 7.308.547 20.047.703 38.218-.155.82-.233 2.384-.233 4.69l-.703.468H697l-.938-.704c0-1.68.078-3.01.234-3.987-.156-21.375-.39-34.192-.703-38.452-7.347.157-11.488.392-12.427.704.313 2.893.47 5.784.47 8.675 0 6.212-.08 11.684-.235 16.412.157 2.658.235 7.816.235 15.475-.508.313-.977.47-1.406.47-.235 0-.55-.314-.94-.94v-2.11c0-6.368-.078-10.667-.234-12.895.156-3.83.235-8.52.235-14.068v-3.517c-.47-7.66-.703-12.973-.703-15.943.47-17.428.704-28.526.704-33.294-.156-.625-.234-1.172-.234-1.64l.938-.705h.47c.78.47 1.17 1.095 1.17 1.876 0 2.893-.233 14.616-.702 35.17v4.22l.234.47c1.016-.313 5.158-.547 12.427-.704-.156-5.666-.234-9.73-.234-12.192V19.46c0-.352-.08-.664-.235-.938l.234-.47c.154-7.502.233-13.285.233-17.35L696.53 0zM719.744 6.975h.47c1.093 0 1.64 4.143 1.64 12.427v3.048c0 3.048-.47 10.942-1.406 23.68 0 .626.078 1.252.234 1.876-.156 8.168-.234 14.654-.234 19.46v15.24c0 .313.156 1.094.47 2.345-.196 1.095-.51 1.642-.94 1.642h-.937c-.625 0-.937-2.11-.937-6.33 0-27.12.47-45.8 1.407-56.038V17.76c0-3.635-.234-6.918-.704-9.85 0-.23.312-.544.938-.935zM740.727 5.745c.86 0 4.396 10.648 10.61 31.945.897 5.04 4.688 17.702 11.37 37.983h.646V73.68c-.9-18.992-1.348-29.66-1.348-32.004 0-.703.097-3.086.293-7.15-.04-.47-.06-1.388-.06-2.756.313-3.087.47-5.548.47-7.386V7.737c.117-.898.547-1.348 1.29-1.348l1.348.703c-.43 8.87-.645 15.533-.645 19.988v6.625c0 13.6.43 31.145 1.29 52.637l-1.29.645c-.898 0-6.447-17.31-16.646-51.934l-6.154-21.16-.47-.762-.058 1.29c.272 3.284.41 5.863.41 7.738l.06 1.993c-.314 8.676-.47 14.753-.47 18.23 0 17.507.664 31.926 1.992 43.258h-1.348c-.86 0-1.29-.43-1.29-1.29-.9-13.637-1.348-25.85-1.348-36.635V7.093c.157-.9.607-1.348 1.35-1.348zM791.9 9.79h.47c2.968 0 5.312 1.093 7.032 3.28v.47c0 .234-.313.547-.938.938-.313 0-1.33-.547-3.048-1.64-1.017-.47-2.11-.705-3.282-.705h-.938c-4.688 1.134-7.033 14.5-7.033 40.093 0 12.075 1.406 21.298 4.22 27.667.898 1.875 2.696 3.36 5.393 4.455h.938c2.813-.547 4.22-1.72 4.22-3.517.547 0 1.328-4.688 2.345-14.066v-11.49l-.235-1.17c-.156 0-.234.078-.234.233-6.252-.47-9.378-.938-9.378-1.407l-.234-1.172v-.234c0-.234.234-.47.704-.704h.703c.507.39 3.868.86 10.082 1.407.624.625.938 2.11.938 4.455v5.86c0 .9-.08 2.15-.234 3.752.156.313.235.548.235.704-1.055 12.35-2.853 18.522-5.393 18.522 0 .313-1.172.704-3.517 1.172h-.938c-2.54-.586-4.807-2.07-6.8-4.455-3.438-6.526-5.157-16.608-5.157-30.246 0-25.75 2.58-39.74 7.737-41.968l2.343-.233zM861.77 5.862l.47.234c.154 0 .233-.078.233-.234 5 .47 7.503 1.017 7.503 1.64v.235c-.274.782-.665 1.172-1.173 1.172l-6.8-.705c-.43 0-1.992.08-4.688.235l.234 2.813c0 2.54.39 12.857 1.17 30.95h1.643c1.29 0 2.306-.08 3.048-.236 3.52.313 6.098.47 7.738.47l.703.937v.703c0 .47-.312.704-.937.704-1.368 0-3.634-.155-6.8-.468-2.11.157-3.907.234-5.393.234v.938c0 11.02.547 23.76 1.642 38.218.155 0 .234.08.234.234 5.9-.313 9.417-.47 10.55-.47.665.197 1.134.587 1.408 1.173v.234c0 .234-.313.547-.938.938-5.94.157-9.535.313-10.785.47-1.875 0-2.812-1.017-2.812-3.05-1.095-14.926-1.642-27.353-1.642-37.278V38.45c-.78-13.754-1.172-23.054-1.172-27.9-.47-2.345-.703-3.595-.703-3.75l.94-.704h2.578c.9 0 2.15-.078 3.752-.234zM888.264 2.52h.234c.234 0 .547.314.938.94 0 .78-.156 1.17-.47 1.17l.235.47c1.095 17.038 1.643 31.418 1.643 43.14.47 3.792.703 9.028.703 15.71v20.398h12.66c.235 0 .47.234.704.704v.703c0 .625-1.33.938-3.985.938H890.14c-.235 0-.548-.313-.94-.938v-1.407c0-1.093.08-1.64.235-1.64l-.234-2.814V62.778c-.624-20.594-1.25-37.71-1.875-51.348l-.703-7.737c.235-.78.782-1.172 1.642-1.172zM932.578 7.503l.703.88v.41c0 .195-.39.566-1.17 1.113h-2.346c-4.143 0-6.956 1.544-8.44 4.63-1.252 3.4-1.876 7.19-1.876 11.372 0 2.58 1.094 6.76 3.282 12.544.78 1.563 5.002 5.803 12.66 12.72 3.908 5.627 5.862 11.176 5.862 16.646 0 4.338-.938 8.578-2.813 12.72-.86 1.955-3.205 3.634-7.035 5.04-1.368.744-2.462 1.115-3.282 1.115s-1.368-.293-1.642-.88v-.644c0-.43.86-.724 2.58-.88 5.158-1.954 7.737-4.005 7.737-6.155 1.407-2.813 2.11-6.467 2.11-10.96 0-5.9-2.657-11.685-7.972-17.35-4.182-3.167-7.308-6.234-9.378-9.204-1.407-1.523-2.814-5.547-4.22-12.074 0-.78-.08-1.797-.235-3.048 0-5 .938-9.457 2.813-13.365 2.15-3.086 6.37-4.63 12.663-4.63zM962.882 5.862l.47.234c.154 0 .233-.078.233-.234 5 .47 7.503 1.017 7.503 1.64v.235c-.274.782-.665 1.172-1.173 1.172l-6.8-.705c-.43 0-1.992.08-4.688.235l.234 2.813c0 2.54.39 12.857 1.173 30.95h1.642c1.29 0 2.306-.08 3.048-.236 3.518.313 6.097.47 7.737.47l.703.937v.703c0 .47-.313.704-.938.704-1.368 0-3.634-.155-6.8-.468-2.11.157-3.907.234-5.393.234v.938c0 11.02.547 23.76 1.642 38.218.155 0 .234.08.234.234 5.9-.313 9.417-.47 10.55-.47.665.197 1.134.587 1.408 1.173v.234c0 .234-.313.547-.938.938-5.94.157-9.535.313-10.785.47-1.876 0-2.813-1.017-2.813-3.05-1.095-14.926-1.642-27.353-1.642-37.278V38.45c-.78-13.754-1.172-23.054-1.172-27.9-.47-2.345-.703-3.595-.703-3.75l.938-.704h2.58c.9 0 2.15-.078 3.752-.234zM997.64 7.444c3.05 0 5.94 1.33 8.676 3.986 2.188 2.775 3.283 5.354 3.283 7.737v1.64c0 7.855-2.19 15.358-6.566 22.51-1.25 2.58-1.876 6.644-1.876 12.192.313 2.578.47 4.61.47 6.095v2.58c0 .82-.314 1.367-.94 1.64h-.702c-.392 0-.626-.313-.703-.938 0-.703.077-1.172.234-1.407 0-.195-.234-2.852-.704-7.972 0-7.854 1.563-13.872 4.69-18.054 2.656-5.666 3.985-11.372 3.985-17.116 0-3.32-1.563-6.29-4.69-8.91-2.423-1.094-4.298-1.64-5.626-1.64-5.003 1.367-7.503 3.555-7.503 6.564v2.11l.702.938v.234c0 .82-.313 1.37-.938 1.642h-.938c-.782-.39-1.172-1.016-1.172-1.876v-3.28c0-3.986 3.126-6.877 9.38-8.675h.937zm2.346 73.856h.703c.194 0 .585.39 1.172 1.172v1.172c0 1.25-.626 1.875-1.876 1.875s-1.955-.782-2.11-2.346c.078-.506.78-1.13 2.11-1.874z"/><path fill="#D6D6D6" d="M462.89 176.852c0 1.976-1.155 2.963-3.46 2.963h-1.975c-.494 0-1.154-.66-1.976-1.976v-.495c0-1.812.987-3.13 2.963-3.95h.988c2.305 0 3.46 1.15 3.46 3.457zm60.754-.99v.99c-.247 2.632-1.4 3.95-3.458 3.95l-.987-.494-.99.494c-2.305-.988-3.456-2.47-3.456-4.445v-.988c.82-1.648 2.14-2.47 3.95-2.47h1.977c.494 0 1.482.988 2.964 2.963zM575.878 214.02v.988c0 .658-3.17 2.304-9.51 4.94-8.973 5.927-22.186 10.865-39.638 14.817-18.69 3.95-35.317 5.927-49.888 5.927h-8.89c-39.516 0-71.045-4.94-94.59-14.817l-.618-1.977c.66-1.317 1.277-1.976 1.852-1.976h1.358c25.685 9.22 54.91 13.83 87.675 13.83h13.212c20.826 0 43.754-3.787 68.782-11.36l25.81-12.348h1.975c.656 0 1.48.658 2.468 1.977z"/></svg>