<!DOCTYPE svg PUBLIC "-//W3C//DTD SVG 1.1//EN" "http://www.w3.org/Graphics/SVG/1.1/DTD/svg11.dtd" [
	<!ENTITY ns_flows "http://ns.adobe.com/Flows/1.0/">
]><svg xmlns="http://www.w3.org/2000/svg" width="1024" height="480" viewBox="-18.563 -85.846 1024 480"><path fill="#D3D3D3" d="M42.422 179.874h.957c.318 0 .637.318.956.957-2.34 46.25-3.828 78.147-4.466 95.69-.69 3.826-1.435 5.74-2.232 5.74H37c-1.116 0-3.137-5.315-6.06-15.948-5.53-17.914-8.293-27.802-8.293-29.663h-.32c-1.7 24.666-2.55 40.507-2.55 47.524l-.958.638h-.958c-.85 0-1.702-3.614-2.552-10.845-4.68-22.01-9.357-50.502-14.034-85.48-.16 0-.586-1.49-1.276-4.467 0-.32.425-.744 1.276-1.276h1.276c.957 0 2.125 6.06 3.508 18.182 3.828 25.197 6.38 41.253 7.655 48.163l3.19 17.223h.318c1.754-28.068 2.923-42.847 3.51-44.336l1.594-.318c1.063 0 2.02 4.145 2.87 12.438 1.01 5.156 3.775 15.045 8.294 29.663l2.872 10.208.638-.32c1.276-38.116 2.764-69.16 4.465-93.137l.957-.636zM78.385 174.85l.638.32c.212 0 .32-.106.32-.32 6.803.64 10.206 1.384 10.206 2.233v.32c-.374 1.062-.905 1.594-1.596 1.594l-9.25-.957c-.585 0-2.71.107-6.38.318l.32 3.828c0 3.456.53 17.49 1.595 42.103h2.232c1.754 0 3.136-.106 4.146-.32 4.784.427 8.293.64 10.525.64l.957 1.274v.957c0 .64-.426.958-1.276.958-1.86 0-4.944-.212-9.25-.638-2.87.213-5.316.318-7.336.318v1.276c0 14.99.744 32.322 2.233 51.99.212 0 .32.107.32.32 8.026-.426 12.81-.64 14.353-.64.903.268 1.542.8 1.914 1.596v.32c0 .317-.426.744-1.276 1.274-8.08.213-12.97.427-14.67.638-2.553 0-3.83-1.382-3.83-4.146-1.488-20.306-2.23-37.21-2.23-50.715v-10.206c-1.065-18.71-1.596-31.363-1.596-37.956-.638-3.19-.957-4.89-.957-5.104l1.276-.957h3.508c1.223.002 2.925-.104 5.105-.316zM154.936 170.305h.32c.318 0 .743.427 1.275 1.276 0 1.064-.212 1.596-.637 1.596l.32.638c1.487 23.18 2.232 42.74 2.232 58.69.638 5.155.957 12.278.957 21.37v27.75h17.224c.32 0 .638.317.957.956v.957c0 .85-1.808 1.275-5.422 1.275h-14.67c-.32 0-.746-.425-1.277-1.275v-1.914c0-1.488.106-2.233.32-2.233l-.32-3.827V252.28c-.85-28.017-1.702-51.3-2.552-69.854l-.956-10.526c.318-1.063 1.062-1.595 2.232-1.595zM211.87 175.408c6.008 0 10.792 14.354 14.355 43.06.21 2.712.32 6.22.32 10.526v1.275c0 .744-.108 1.7-.32 2.87.21.267.32 1.01.32 2.232v.32c0 1.223-.108 1.966-.32 2.23.21 1.117.32 1.756.32 1.915 0 22.435-3.085 36.256-9.25 41.465-2.182.852-3.67 1.276-4.466 1.276h-2.234c-7.655-1.86-12.44-11.748-14.354-29.664l-.957-13.077c0-29.93 3.72-50.66 11.164-62.197 1.965-1.487 3.773-2.232 5.42-2.232zm-13.395 63.474c0 12.015 1.595 22.54 4.785 31.577 2.977 5.953 5.634 8.93 7.974 8.93h.32c4.305 0 7.068-2.977 8.292-8.93 2.338-5.53 3.508-17.33 3.508-35.405v-6.38c0-12.49-2.232-26.845-6.698-43.06-1.595-3.56-3.19-5.9-4.784-7.018-2.5.957-3.987 2.127-4.465 3.51-5.956 12.6-8.932 31.525-8.932 56.775zM261.47 175.408c6.007 0 10.79 14.354 14.354 43.06.21 2.712.32 6.22.32 10.526v1.275c0 .744-.108 1.7-.32 2.87.21.267.32 1.01.32 2.232v.32c0 1.223-.108 1.966-.32 2.23.21 1.117.32 1.756.32 1.915 0 22.435-3.085 36.256-9.25 41.465-2.182.852-3.67 1.276-4.466 1.276h-2.233c-7.655-1.86-12.44-11.748-14.354-29.664l-.956-13.077c0-29.93 3.72-50.66 11.164-62.197 1.966-1.487 3.773-2.232 5.422-2.232zm-13.397 63.474c0 12.015 1.595 22.54 4.785 31.577 2.977 5.953 5.634 8.93 7.974 8.93h.32c4.305 0 7.068-2.977 8.292-8.93 2.338-5.53 3.508-17.33 3.508-35.405v-6.38c0-12.49-2.232-26.845-6.698-43.06-1.595-3.56-3.19-5.9-4.784-7.018-2.5.957-3.987 2.127-4.465 3.51-5.955 12.6-8.932 31.525-8.932 56.775zM318.404 171.262c1.17 0 1.914.427 2.233 1.276v1.595c0 9.356-2.127 21.797-6.38 37.318-.85 4.095-2.658 11.324-5.42 21.69 3.135 0 8.452 10.1 15.947 30.302 1.754 5.316 3.242 11.8 4.465 19.456v.957c0 .32-.32.638-.958.957h-.957c-1.064-.53-1.595-1.382-1.595-2.552v-.32c0-.21.106-.317.32-.317-2.766-12.81-5.742-22.593-8.932-29.345-4.678-11.057-8.293-16.586-10.845-16.586l2.87 48.482-.956.638h-1.276c-.266 0-.796-.53-1.594-1.595v-.32c0-.583.21-1.22.638-1.912-1.967-34.607-3.775-59.487-5.422-74.638-2.978-16.905-4.465-27.643-4.465-32.215v-.957c0-.32.425-.744 1.276-1.276h.638c.32 0 .745.426 1.277 1.275v1.595c.638 6.114 2.552 20.467 5.74 43.06.64 7.336.958 11.59.958 12.76h.32c7.44-28.76 11.163-46.303 11.163-52.63v-3.19c0-.21-.107-1.062-.32-2.55l1.276-.958zM359.95 174.85l.638.32c.212 0 .32-.106.32-.32 6.803.64 10.206 1.384 10.206 2.233v.32c-.373 1.062-.904 1.594-1.595 1.594l-9.25-.957c-.586 0-2.712.107-6.38.318l.32 3.828c0 3.456.53 17.49 1.594 42.103h2.233c1.754 0 3.136-.106 4.146-.32 4.784.427 8.293.64 10.525.64l.957 1.274v.957c0 .64-.426.958-1.276.958-1.862 0-4.945-.212-9.25-.638-2.872.213-5.317.318-7.337.318v1.276c0 14.99.744 32.322 2.233 51.99.21 0 .32.107.32.32 8.025-.426 12.81-.64 14.352-.64.903.268 1.542.8 1.914 1.596v.32c0 .317-.426.744-1.276 1.274-8.08.213-12.972.427-14.672.638-2.552 0-3.828-1.382-3.828-4.146-1.49-20.306-2.232-37.21-2.232-50.715v-10.206c-1.064-18.71-1.595-31.363-1.595-37.956-.64-3.19-.958-4.89-.958-5.104l1.276-.957h3.508c1.222.002 2.924-.104 5.104-.316zM392.643 170.624h.32c8.452 2.765 14.937 8.188 19.456 16.267 6.803 13.876 10.206 28.123 10.206 42.742v1.595c0 20.84-7.55 37.85-22.646 51.034-1.914.64-3.19.958-3.827.958-.586 0-1.01-1.7-1.276-5.104l.32-.638c-.64-4.89-1.065-11.802-1.277-20.732h.32l-.32-.64v-.317c0-8.4.106-16.055.32-22.966l-1.597-62.196zm3.51 4.784v.32c.21 24.028.637 42.953 1.275 56.774-.213 5.688-.32 11.536-.32 17.543v3.827c0 8.08.426 16.586 1.277 25.517 4.944-4.253 9.516-9.78 13.715-16.587 4.89-10.896 7.336-21.104 7.336-30.62v-3.19c0-13.342-3.297-26.95-9.888-40.826-4.732-7.123-9.197-11.376-13.396-12.76zM495.11 174.85l.638.32c.212 0 .318-.106.318-.32 6.805.64 10.207 1.384 10.207 2.233v.32c-.372 1.062-.904 1.594-1.595 1.594l-9.25-.957c-.586 0-2.71.107-6.378.318l.32 3.828c0 3.456.53 17.49 1.594 42.103h2.233c1.753 0 3.135-.106 4.146-.32 4.784.427 8.293.64 10.525.64l.957 1.274v.957c0 .64-.426.958-1.275.958-1.862 0-4.944-.212-9.25-.638-2.87.213-5.316.318-7.336.318v1.276c0 14.99.744 32.322 2.233 51.99.21 0 .32.107.32.32 8.024-.426 12.81-.64 14.352-.64.902.268 1.54.8 1.913 1.596v.32c0 .317-.426.744-1.276 1.274-8.08.213-12.97.427-14.67.638-2.553 0-3.83-1.382-3.83-4.146-1.488-20.306-2.23-37.21-2.23-50.715v-10.206c-1.065-18.71-1.596-31.363-1.596-37.956-.637-3.19-.956-4.89-.956-5.104l1.276-.957h3.508c1.22.002 2.922-.104 5.102-.316zM554.12 175.09h1.274c.32 0 .638.426.957 1.275l-9.568 85.48c-.797 15.1-1.435 22.647-1.913 22.647l-.64.32h-.957c-1.01 0-2.18-6.062-3.508-18.182-5.53-35.086-8.293-63.154-8.293-84.206l-.957-4.146c0-.32.425-.744 1.275-1.276h.638c1.914 0 2.87 8.293 2.87 24.88 2.712 30.408 5.264 52.628 7.656 66.662h.318c0-4.357 2.977-31.896 8.932-82.61.425-7.23 1.063-10.844 1.915-10.844zM591.437 174.85l.638.32c.212 0 .318-.106.318-.32 6.805.64 10.207 1.384 10.207 2.233v.32c-.372 1.062-.904 1.594-1.595 1.594l-9.25-.957c-.586 0-2.71.107-6.38.318l.32 3.828c0 3.456.53 17.49 1.594 42.103h2.232c1.754 0 3.136-.106 4.146-.32 4.784.427 8.293.64 10.525.64l.957 1.274v.957c0 .64-.426.958-1.275.958-1.862 0-4.944-.212-9.25-.638-2.87.213-5.316.318-7.337.318v1.276c0 14.99.744 32.322 2.233 51.99.213 0 .32.107.32.32 8.025-.426 12.81-.64 14.353-.64.903.268 1.54.8 1.914 1.596v.32c0 .317-.426.744-1.276 1.274-8.08.213-12.97.427-14.67.638-2.553 0-3.828-1.382-3.828-4.146-1.49-20.306-2.233-37.21-2.233-50.715v-10.206c-1.064-18.71-1.596-31.363-1.596-37.956-.638-3.19-.957-4.89-.957-5.104l1.276-.957h3.51c1.222.002 2.923-.104 5.104-.316zM625.406 167.115h.638c.585.745 2.498 1.383 5.74 1.914 4.04 1.647 7.338 4.624 9.89 8.93 3.614 8.77 5.422 15.258 5.422 19.457v3.19c0 13.928-4.04 24.028-12.12 30.3 9.355 2.233 14.777 13.29 16.267 33.173v12.12c0 1.81.105 4.466.32 7.975l-.958.638h-.957l-1.276-.957c-.213-4.252-.318-7.442-.318-9.568v-11.483c0-7.974-2.446-16.16-7.336-24.56-3.403-3.19-6.38-4.785-8.932-4.785h-.318c.212 4.573.318 7.975.318 10.207v12.12c.425 10.526.64 16.48.64 17.862v.638c-.428.85-1.065 1.275-1.915 1.275-.318 0-.85-.425-1.594-1.275l.318-2.233c-.426-8.983-.638-14.938-.638-17.86v-19.14c-.904 0-1.542-.424-1.914-1.275v-.957c.426-.85.957-1.275 1.596-1.275-1.064-29.186-2.446-50.343-4.146-63.474l1.274-.96zm2.552 4.466c1.275 15.524 2.444 34.768 3.51 57.732 8.292-5.634 12.438-14.672 12.438-27.11v-4.467c0-5.58-2.34-12.704-7.018-21.37-3.51-3.19-6.167-4.784-7.974-4.784h-.956zM702.356 180.192h.638c.32 0 .744.427 1.276 1.276v.32c-1.702 15.203-3.51 30.088-5.423 44.653l.32 1.915v.956c-.746 0-1.915 10.527-3.51 31.58-.638 10.524-1.383 18.393-2.232 23.602l-.638.32h-.957c-.427-.106-.852-.64-1.276-1.596 2.34-28.016 4.04-46.302 5.104-54.86-5.74-12.493-13.29-25.04-22.646-37.64-1.702-1.222-2.552-2.392-2.552-3.508v-.638c0-.32.425-.744 1.276-1.276h1.275c.69.267 1.33 1.33 1.915 3.19 8.505 10.525 15.522 21.688 21.052 33.49h.318c2.34-20.254 4.04-33.97 5.104-41.146l.956-.636zM768.062 179.874h.957c.318 0 .637.318.956.957-2.34 46.25-3.828 78.147-4.466 95.69-.69 3.826-1.436 5.74-2.232 5.74h-.638c-1.117 0-3.138-5.315-6.06-15.948-5.53-17.914-8.294-27.802-8.294-29.663h-.32c-1.7 24.666-2.55 40.507-2.55 47.524l-.958.638h-.957c-.85 0-1.7-3.614-2.55-10.845-4.68-22.01-9.357-50.502-14.035-85.48-.16 0-.585-1.49-1.275-4.467 0-.32.425-.744 1.275-1.276h1.276c.958 0 2.126 6.06 3.51 18.182 3.827 25.197 6.38 41.253 7.654 48.163l3.19 17.223h.318c1.755-28.068 2.923-42.847 3.51-44.336l1.594-.318c1.063 0 2.02 4.145 2.87 12.438 1.01 5.156 3.774 15.045 8.294 29.663L762 273.97l.64-.32c1.274-38.115 2.762-69.16 4.464-93.136l.958-.638zM814.232 166.876h.64c.85.427 1.274.957 1.274 1.595 0 9.996-.213 17.757-.638 23.285l.638 33.172c.425.692.638 1.224.638 1.596-.213.638-.426.956-.638.956.425 9.94.744 27.27.957 51.99-.213 1.116-.32 3.243-.32 6.38l-.956.638h-.956l-1.275-.957c0-2.284.105-4.092.32-5.422-.215-29.077-.533-46.515-.958-52.31-9.995.213-15.63.532-16.905.957.425 3.935.638 7.868.638 11.802 0 8.452-.106 15.896-.318 22.327.212 3.616.318 10.633.318 21.052-.69.426-1.33.638-1.913.638-.32 0-.745-.425-1.276-1.275v-2.872c0-8.664-.106-14.513-.318-17.543.212-5.21.32-11.59.32-19.138v-4.784c-.64-10.42-.958-17.65-.958-21.69.638-23.708.957-38.806.957-45.292-.212-.85-.318-1.594-.318-2.23l1.276-.958h.638c1.063.638 1.595 1.49 1.595 2.552 0 3.935-.317 19.883-.956 47.844v5.74l.32.64c1.38-.425 7.017-.744 16.904-.957-.213-7.707-.32-13.236-.32-16.585V193.35c0-.478-.106-.902-.317-1.275l.32-.638c.21-10.207.318-18.074.318-23.604l1.274-.957zM851.79 174.85l.64.32c.21 0 .317-.106.317-.32 6.805.64 10.207 1.384 10.207 2.233v.32c-.372 1.062-.904 1.594-1.595 1.594l-9.25-.957c-.587 0-2.712.107-6.38.318l.318 3.828c0 3.456.53 17.49 1.595 42.103h2.233c1.754 0 3.136-.106 4.146-.32 4.784.427 8.293.64 10.525.64l.957 1.274v.957c0 .64-.426.958-1.275.958-1.863 0-4.945-.212-9.25-.638-2.872.213-5.317.318-7.338.318v1.276c0 14.99.744 32.322 2.233 51.99.212 0 .318.107.318.32 8.026-.426 12.812-.64 14.354-.64.903.268 1.54.8 1.914 1.596v.32c0 .317-.425.744-1.275 1.274-8.08.213-12.97.427-14.672.638-2.552 0-3.827-1.382-3.827-4.146-1.49-20.306-2.233-37.21-2.233-50.715v-10.206c-1.063-18.71-1.595-31.363-1.595-37.956-.638-3.19-.957-4.89-.957-5.104l1.277-.957h3.51c1.222.002 2.923-.104 5.104-.316zM885.76 167.115h.637c.585.745 2.498 1.383 5.74 1.914 4.04 1.647 7.338 4.624 9.89 8.93 3.614 8.77 5.422 15.258 5.422 19.457v3.19c0 13.928-4.042 24.028-12.12 30.3 9.354 2.233 14.776 13.29 16.266 33.173v12.12c0 1.81.105 4.466.32 7.975l-.958.638H910l-1.276-.957c-.213-4.252-.318-7.442-.318-9.568v-11.483c0-7.974-2.446-16.16-7.336-24.56-3.403-3.19-6.38-4.785-8.932-4.785h-.318c.212 4.573.318 7.975.318 10.207v12.12c.425 10.526.64 16.48.64 17.862v.638c-.428.85-1.065 1.275-1.915 1.275-.32 0-.852-.425-1.595-1.275l.318-2.233c-.426-8.983-.638-14.938-.638-17.86v-19.14c-.904 0-1.542-.424-1.914-1.275v-.957c.426-.85.957-1.275 1.596-1.275-1.064-29.186-2.446-50.343-4.146-63.474l1.275-.96zm2.55 4.466c1.276 15.524 2.445 34.768 3.51 57.732 8.293-5.634 12.44-14.672 12.44-27.11v-4.467c0-5.58-2.34-12.704-7.02-21.37-3.508-3.19-6.166-4.784-7.973-4.784h-.956zM945.087 174.85l.638.32c.212 0 .318-.106.318-.32 6.805.64 10.207 1.384 10.207 2.233v.32c-.372 1.062-.904 1.594-1.595 1.594l-9.25-.957c-.586 0-2.71.107-6.38.318l.32 3.828c0 3.456.53 17.49 1.594 42.103h2.232c1.754 0 3.136-.106 4.146-.32 4.784.427 8.293.64 10.525.64l.957 1.274v.957c0 .64-.426.958-1.275.958-1.862 0-4.944-.212-9.25-.638-2.87.213-5.316.318-7.337.318v1.276c0 14.99.744 32.322 2.233 51.99.213 0 .32.107.32.32 8.025-.426 12.81-.64 14.353-.64.903.268 1.54.8 1.914 1.596v.32c0 .317-.426.744-1.276 1.274-8.08.213-12.97.427-14.67.638-2.553 0-3.828-1.382-3.828-4.146-1.49-20.306-2.233-37.21-2.233-50.715v-10.206c-1.064-18.71-1.596-31.363-1.596-37.956-.638-3.19-.957-4.89-.957-5.104l1.276-.957h3.51c1.223.002 2.924-.104 5.104-.316zM983.84 170.465c.32 0 .744.426 1.276 1.275l-.32 1.595c4.04 23.55 6.062 41.943 6.062 55.18 0 4.36.105 15.418.318 33.173l-.956.638h-.957c-.427-.105-.852-.638-1.276-1.595-.213-15.36-.318-26.738-.318-34.128l-.32-3.827c.212-.37.32-.798.32-1.276 0-5.954-2.022-22.328-6.062-49.12 0-1.277.744-1.915 2.232-1.915zm4.785 107.17c1.487 0 2.232.746 2.232 2.233-.373 2.552-1.33 3.828-2.87 3.828-1.49-.638-2.233-1.595-2.233-2.87 0-1.222.957-2.286 2.87-3.19z"/><path fill="#D6D6D6" d="M472.382 3.042c0 1.52-.888 2.28-2.662 2.28h-1.52c-.38 0-.89-.507-1.522-1.52v-.38c0-1.395.76-2.41 2.282-3.042h.76c1.774 0 2.662.887 2.662 2.662zm46.767-.76v.76c-.19 2.027-1.08 3.042-2.663 3.042l-.76-.38-.76.38c-1.775-.76-2.662-1.9-2.662-3.422v-.76C512.937.632 513.952 0 515.345 0h1.522c.38 0 1.14.76 2.282 2.28zM544.53 76.71v1.14c0 .38-.51.887-1.522 1.52h-.76c-2.22-1.9-10.71-5.702-25.476-11.405-19.898-10.14-49.428-22.433-88.59-36.88-.76-.952-1.142-1.84-1.142-2.663.506-1.015 1.267-1.52 2.28-1.52 4.056 2.026 23.32 9.63 57.794 22.812 20.912 10.012 39.542 18.377 55.892 25.095l1.523 1.9z"/></svg>