<svg xmlns="http://www.w3.org/2000/svg" height="50.8mm" width="90.311mm" viewBox="0 0 320 179.99999"><g transform="translate(-44.286 -156.65)"><path fill="#2d2d2d" d="M44.286 156.65h320v180h-320z"/><circle cx="201.97" cy="242.36" r="46.467" fill="#dc0000"/><g fill="#fff"><path d="M171.36 252.56h10.998l-.747 4.29H165.4l4.502-25.913h5.214l-3.755 21.623zM190.31 256.85h-5.214l4.484-25.912h5.215l-4.485 25.912zM205.64 250.37l8.72-19.434h5.98l-12.796 25.912h-5.446l-4.662-25.912h5.605l2.6 19.434zM235.61 245.62h-9.93l-1.21 6.94h11.673l-.747 4.29h-16.89l4.503-25.912h16.852l-.765 4.324h-11.62l-1.086 6.176h9.967l-.748 4.182z"/></g></g></svg>
