<?xml version="1.0" encoding="utf-8"?>
<!-- Generator: Adobe Illustrator 18.1.1, SVG Export Plug-In . SVG Version: 6.00 Build 0)  -->
<svg version="1.1" id="Layer_1" xmlns="http://www.w3.org/2000/svg" xmlns:xlink="http://www.w3.org/1999/xlink" x="0px" y="0px"
	 viewBox="0 0 720 180" enable-background="new 0 0 720 180" xml:space="preserve">
<rect opacity="0.5" fill="#969696" width="720" height="180"/>
<circle fill="#BF2928" cx="639.3" cy="92.4" r="41"/>
<g>
	<path fill="#FFFFFF" d="M48,127.7L60.3,57l20.3,0c4.8,0.1,9,1.2,12.8,3.2c3.8,2.1,6.9,5,9.2,8.9c2.4,3.9,3.8,8.2,4.3,13
		c0.3,2.8,0.2,5.7-0.1,8.6l-0.3,2.6c-1.4,10.4-5.5,18.7-12.2,24.9c-6.7,6.3-14.9,9.4-24.4,9.4H48z M72.5,68.8L64.3,116l5.9,0
		c6.5,0,11.8-2.4,15.8-7.2c4-4.8,6.2-12,6.8-21.7l0.1-1.6c0.1-5.3-0.9-9.4-3.1-12.3c-2.1-2.8-5.3-4.3-9.6-4.5L72.5,68.8z"/>
	<path fill="#FFFFFF" d="M126.3,127.7h-14.2L124.3,57h14.2L126.3,127.7z"/>
	<path fill="#FFFFFF" d="M178.6,108.8c0.7-3.9-1.2-6.8-5.7-8.8l-9.4-3.7c-10.9-4.9-16-11.5-15.5-20c0.2-3.9,1.5-7.4,3.9-10.5
		c2.4-3,5.7-5.4,10-7.2c4.3-1.7,8.9-2.6,13.8-2.5c6.8,0.1,12.3,2.2,16.6,6.1c4.2,3.9,6.3,9.2,6.2,15.8h-14.2
		c0.2-3.2-0.5-5.7-2.1-7.5c-1.6-1.8-4-2.7-7.3-2.8c-3.2-0.1-6.1,0.7-8.4,2.2c-2.4,1.5-3.8,3.6-4.3,6.3c-0.6,3.5,1.7,6.3,7.1,8.4
		l6.4,2.4l3.7,1.7c9.5,4.7,14,11.4,13.4,19.9c-0.3,4.2-1.6,7.8-4,10.8c-2.4,3-5.6,5.3-9.7,7c-4.1,1.6-8.6,2.4-13.5,2.3
		c-5-0.1-9.5-1.1-13.4-3.2c-3.9-2-6.9-4.8-8.9-8.5c-1.9-3.4-2.8-7.3-2.7-11.6l14.2,0c-0.5,7.7,3.3,11.6,11.3,11.7
		c3.5,0,6.3-0.8,8.5-2.3C176.9,113.3,178.2,111.3,178.6,108.8z"/>
	<path fill="#FFFFFF" d="M257.1,104.1c-0.6,4.9-2.2,9.2-5,13c-2.8,3.8-6.4,6.7-10.9,8.7c-4.5,2-9.3,3-14.5,2.9
		c-4.7-0.1-8.7-1.2-12.2-3.2c-3.5-2.1-6.2-5-8.2-8.9s-3.1-8.4-3.4-13.5c-0.2-4,0.2-8.9,1.2-14.9c1.1-5.9,2.9-11.2,5.6-15.8
		c2.7-4.6,5.9-8.2,9.6-10.9c5.2-3.8,11.2-5.6,18-5.4c7.3,0.1,13.1,2.4,17.4,6.8c4.3,4.4,6.6,10.5,7.1,18.3l-14.2,0
		c0-4.5-0.9-7.7-2.7-9.8c-1.8-2.1-4.5-3.2-8.3-3.3c-4.9-0.2-8.8,1.6-12,5.2c-3.1,3.6-5.2,8.9-6.3,15.9c-1,6.8-1.5,11.8-1.4,15.2
		c0.2,4.3,1.1,7.4,2.9,9.4s4.2,3.1,7.3,3.2c4.3,0.2,7.8-0.9,10.4-3.1c2.6-2.2,4.3-5.4,5.2-9.5L257.1,104.1z"/>
	<path fill="#FFFFFF" d="M291.5,128.6c-4.7-0.1-8.8-1.2-12.4-3.3c-3.6-2.1-6.4-5.2-8.5-9.2c-2.1-4-3.3-8.6-3.6-13.8
		c-0.4-5.3,0.2-11,1.7-17c1.5-6,3.9-11.3,7.2-15.9s7.2-8,11.6-10.2c4.4-2.3,9.3-3.3,14.4-3.3c4.8,0.1,8.9,1.2,12.5,3.4
		c3.6,2.2,6.4,5.2,8.4,9.3s3.2,8.6,3.5,13.7c0.3,5.7-0.3,11.6-1.8,17.6c-1.6,6-4,11.2-7.2,15.6c-3.3,4.4-7.1,7.7-11.5,9.9
		C301.4,127.7,296.6,128.7,291.5,128.6z M311.6,90.4l0.4-4.6c0.3-5.8-0.4-10.1-2.3-13.1c-1.9-3-4.7-4.5-8.5-4.7
		c-5.9-0.2-10.6,2.4-14.1,7.9c-3.5,5.4-5.4,13-5.9,22.8c-0.3,5.7,0.4,10.1,2.3,13.2c1.8,3.1,4.7,4.7,8.6,4.8
		c5.1,0.2,9.3-1.8,12.6-5.9c3.3-4.2,5.5-10.1,6.6-17.8L311.6,90.4z"/>
	<path fill="#FFFFFF" d="M357.5,110l23.8-53h16.3l-34.9,70.7h-14.9L335.1,57h15.3L357.5,110z"/>
	<path fill="#FFFFFF" d="M439.3,96.9h-27.1l-3.3,19h31.8l-2,11.7h-46.1L404.9,57h46l-2.1,11.8h-31.7l-3,16.8h27.2L439.3,96.9z"/>
	<path fill="#FFFFFF" d="M477.7,101.8h-11.6l-4.5,25.9h-14.2L459.6,57l23.4,0c7.8,0,13.9,1.8,18.1,5.5c4.2,3.7,6.1,8.8,5.6,15.4
		c-0.7,9.7-5.9,16.5-15.5,20.2l10,28.7v0.8H486L477.7,101.8z M468.1,90l10.6,0.1c3.8-0.1,6.9-1.1,9.3-3c2.4-2,3.9-4.6,4.4-8
		c0.5-3.1,0-5.6-1.5-7.4c-1.5-1.8-3.8-2.7-6.9-2.9l-12.1,0L468.1,90z"/>
	<path fill="#FFFFFF" d="M537.1,88.7L556.9,57h16.3l-30.9,45.8l-4.3,24.9h-14.5l4.6-26.5L513.5,57l15,0L537.1,88.7z"/>
</g>
</svg>

