<svg xmlns="http://www.w3.org/2000/svg" viewBox="0 0 720 180"><path opacity=".5" fill="#969696" d="M0 0h720v180H0z"/><circle fill="#BF2928" cx="639.3" cy="92.4" r="41"/><g fill="#FFF"><path d="M48 127.7L60.3 57h20.3c4.8.1 9 1.2 12.8 3.2 3.8 2.1 6.9 5 9.2 8.9 2.4 3.9 3.8 8.2 4.3 13 .3 2.8.2 5.7-.1 8.6l-.3 2.6c-1.4 10.4-5.5 18.7-12.2 24.9-6.7 6.3-14.9 9.4-24.4 9.4H48zm24.5-58.9L64.3 116h5.9c6.5 0 11.8-2.4 15.8-7.2 4-4.8 6.2-12 6.8-21.7l.1-1.6c.1-5.3-.9-9.4-3.1-12.3-2.1-2.8-5.3-4.3-9.6-4.5l-7.7.1zM126.3 127.7h-14.2L124.3 57h14.2l-12.2 70.7zM178.6 108.8c.7-3.9-1.2-6.8-5.7-8.8l-9.4-3.7c-10.9-4.9-16-11.5-15.5-20 .2-3.9 1.5-7.4 3.9-10.5 2.4-3 5.7-5.4 10-7.2 4.3-1.7 8.9-2.6 13.8-2.5 6.8.1 12.3 2.2 16.6 6.1 4.2 3.9 6.3 9.2 6.2 15.8h-14.2c.2-3.2-.5-5.7-2.1-7.5-1.6-1.8-4-2.7-7.3-2.8-3.2-.1-6.1.7-8.4 2.2-2.4 1.5-3.8 3.6-4.3 6.3-.6 3.5 1.7 6.3 7.1 8.4l6.4 2.4 3.7 1.7c9.5 4.7 14 11.4 13.4 19.9-.3 4.2-1.6 7.8-4 10.8-2.4 3-5.6 5.3-9.7 7-4.1 1.6-8.6 2.4-13.5 2.3-5-.1-9.5-1.1-13.4-3.2-3.9-2-6.9-4.8-8.9-8.5-1.9-3.4-2.8-7.3-2.7-11.6h14.2c-.5 7.7 3.3 11.6 11.3 11.7 3.5 0 6.3-.8 8.5-2.3 2.3-1.5 3.6-3.5 4-6zM257.1 104.1c-.6 4.9-2.2 9.2-5 13-2.8 3.8-6.4 6.7-10.9 8.7-4.5 2-9.3 3-14.5 2.9-4.7-.1-8.7-1.2-12.2-3.2-3.5-2.1-6.2-5-8.2-8.9s-3.1-8.4-3.4-13.5c-.2-4 .2-8.9 1.2-14.9 1.1-5.9 2.9-11.2 5.6-15.8 2.7-4.6 5.9-8.2 9.6-10.9 5.2-3.8 11.2-5.6 18-5.4 7.3.1 13.1 2.4 17.4 6.8 4.3 4.4 6.6 10.5 7.1 18.3h-14.2c0-4.5-.9-7.7-2.7-9.8-1.8-2.1-4.5-3.2-8.3-3.3-4.9-.2-8.8 1.6-12 5.2-3.1 3.6-5.2 8.9-6.3 15.9-1 6.8-1.5 11.8-1.4 15.2.2 4.3 1.1 7.4 2.9 9.4s4.2 3.1 7.3 3.2c4.3.2 7.8-.9 10.4-3.1 2.6-2.2 4.3-5.4 5.2-9.5l14.4-.3zM291.5 128.6c-4.7-.1-8.8-1.2-12.4-3.3-3.6-2.1-6.4-5.2-8.5-9.2-2.1-4-3.3-8.6-3.6-13.8-.4-5.3.2-11 1.7-17s3.9-11.3 7.2-15.9 7.2-8 11.6-10.2c4.4-2.3 9.3-3.3 14.4-3.3 4.8.1 8.9 1.2 12.5 3.4 3.6 2.2 6.4 5.2 8.4 9.3s3.2 8.6 3.5 13.7c.3 5.7-.3 11.6-1.8 17.6-1.6 6-4 11.2-7.2 15.6-3.3 4.4-7.1 7.7-11.5 9.9-4.4 2.3-9.2 3.3-14.3 3.2zm20.1-38.2l.4-4.6c.3-5.8-.4-10.1-2.3-13.1s-4.7-4.5-8.5-4.7c-5.9-.2-10.6 2.4-14.1 7.9-3.5 5.4-5.4 13-5.9 22.8-.3 5.7.4 10.1 2.3 13.2 1.8 3.1 4.7 4.7 8.6 4.8 5.1.2 9.3-1.8 12.6-5.9 3.3-4.2 5.5-10.1 6.6-17.8l.3-2.6zM357.5 110l23.8-53h16.3l-34.9 70.7h-14.9L335.1 57h15.3l7.1 53zM439.3 96.9h-27.1l-3.3 19h31.8l-2 11.7h-46.1L404.9 57h46l-2.1 11.8h-31.7l-3 16.8h27.2l-2 11.3zM477.7 101.8h-11.6l-4.5 25.9h-14.2L459.6 57H483c7.8 0 13.9 1.8 18.1 5.5 4.2 3.7 6.1 8.8 5.6 15.4-.7 9.7-5.9 16.5-15.5 20.2l10 28.7v.8H486l-8.3-25.8zM468.1 90l10.6.1c3.8-.1 6.9-1.1 9.3-3 2.4-2 3.9-4.6 4.4-8 .5-3.1 0-5.6-1.5-7.4-1.5-1.8-3.8-2.7-6.9-2.9h-12.1L468.1 90zM537.1 88.7L556.9 57h16.3l-30.9 45.8-4.3 24.9h-14.5l4.6-26.5L513.5 57h15l8.6 31.7z"/></g></svg>