<svg xmlns="http://www.w3.org/2000/svg" viewBox="0 0 720 720"><ellipse fill="#FFF" cx="364.6" cy="426.5" rx="279.1" ry="188.1"/><circle fill="#FFF" cx="632.8" cy="315.2" r="65.7"/><circle fill="#FFF" cx="105.4" cy="315.2" r="65.7"/><circle fill="#FFF" cx="629.5" cy="124.5" r="51.3"/><circle fill="#F26522" cx="457.3" cy="383.7" r="42.3"/><circle fill="#F26522" cx="277.3" cy="383.7" r="42.3"/><path d="M174.2 304.2l-10.6-15.1c54.5-38.2 127.4-59.2 205.2-59.2 76 0 147.7 20.2 201.8 56.9l-10.3 15.3c-51.1-34.6-119.1-53.7-191.5-53.7-74 0-143.1 19.8-194.6 55.8zM368.8 629c-76.4 0-148.3-20.4-202.6-57.3-55.3-37.7-85.8-88.2-85.8-142.2 0-14.4 2.2-28.9 6.7-42.9l17.6 5.5c-3.9 12.2-5.8 24.8-5.8 37.4 0 99.8 121.1 181.1 269.9 181.1s269.9-81.2 269.9-181.1c0-12.8-2-25.6-6-38.1l17.6-5.6c4.6 14.3 6.9 29 6.9 43.7 0 54-30.5 104.5-85.8 142.2-54.3 36.9-126.2 57.3-202.6 57.3z"/><path d="M635.2 399.4l-2.6-8.1c-10.8-33.7-35.9-64.6-72.4-89.3l-6.5-4.4 3.3-7.1c12.6-26.8 39.7-44 69.3-44 42.2 0 76.5 34.3 76.5 76.5 0 35.9-24.4 66.6-59.4 74.6l-8.2 1.8zm-57.7-107.8c33.3 24.1 57.2 53.4 69.6 85.6 22.3-8.5 37.3-29.7 37.3-54.2 0-32-26-58.1-58-58.1-19.8 0-38.3 10.3-48.9 26.7zM102.3 399.7l-7.9-1.3c-37.1-6.1-63.9-37.9-63.9-75.5 0-42.2 34.3-76.5 76.5-76.5 30.7 0 58.4 18.3 70.4 46.6l2.9 6.9-6.1 4.3c-35.1 24.5-59.1 54.9-69.5 87.9l-2.4 7.6zm4.7-134.8c-32 0-58 26-58 58.1 0 25.9 16.8 48.2 41 55.5 12-31.6 35-60.7 67.2-84.7-10.3-17.8-29.3-28.9-50.2-28.9zM368.8 554.8c-44.1 0-86.5-18.3-116.4-50.2-4.4-4.6-4.1-11.9.5-16.3s11.9-4.1 16.3.5c25.5 27.2 61.8 42.9 99.5 42.9s74-15.6 99.5-42.9c4.4-4.6 11.7-4.9 16.3-.5 4.6 4.4 4.9 11.7.5 16.3-29.7 31.9-72.1 50.2-116.2 50.2zM591.4 108.6L421.1 71.4l-10.6-4.1-65.9 171 18.9 7.3 58.4-151.4 164.8 35.9"/><path d="M629.5 182.9c-32.2 0-58.3-26.2-58.3-58.3s26.2-58.3 58.3-58.3c32.2 0 58.3 26.2 58.3 58.3s-26.1 58.3-58.3 58.3zm0-98.2c-22 0-39.9 17.9-39.9 39.9s17.9 39.9 39.9 39.9 39.9-17.9 39.9-39.9-17.9-39.9-39.9-39.9z"/></svg>