<?xml version="1.0" encoding="UTF-8" standalone="no"?>
<!-- Created with Inkscape (http://www.inkscape.org/) -->
<svg xmlns:dc="http://purl.org/dc/elements/1.1/" xmlns:cc="http://creativecommons.org/ns#" xmlns:rdf="http://www.w3.org/1999/02/22-rdf-syntax-ns#" xmlns:svg="http://www.w3.org/2000/svg" xmlns="http://www.w3.org/2000/svg" xmlns:sodipodi="http://sodipodi.sourceforge.net/DTD/sodipodi-0.dtd" xmlns:inkscape="http://www.inkscape.org/namespaces/inkscape" id="svg2" version="1.1" inkscape:version="0.48.2 r9819" width="480" height="480" sodipodi:docname="L-Zachvirb-logo.jpg">
  <metadata id="metadata8">
    <rdf:RDF>
      <cc:Work rdf:about="">
        <dc:format>image/svg+xml</dc:format>
        <dc:type rdf:resource="http://purl.org/dc/dcmitype/StillImage"/>
        <dc:title/>
      </cc:Work>
    </rdf:RDF>
  </metadata>
  <defs id="defs6"/>
  <sodipodi:namedview pagecolor="#ffffff" bordercolor="#666666" borderopacity="1" objecttolerance="10" gridtolerance="10" guidetolerance="10" inkscape:pageopacity="0" inkscape:pageshadow="2" inkscape:window-width="1600" inkscape:window-height="838" id="namedview4" showgrid="false" inkscape:zoom="1.3520833" inkscape:cx="274.48609" inkscape:cy="240" inkscape:window-x="-8" inkscape:window-y="-8" inkscape:window-maximized="1" inkscape:current-layer="svg2"/>
  <g id="g3011">
    <path style="fill:#050608" d="M 30,478.63213 C 22.343185,476.51404 17.715674,473.79795 11.955791,468.0412 6.0540469,462.14266 2.5979971,455.91288 0.96458269,448.22874 0.30445001,445.12326 0.05218294,372.61389 0.22969755,237 0.49564155,33.829677 0.53190967,30.422832 2.478975,25.714181 6.7452568,15.396896 16.149648,6.1947457 26.261001,2.4435884 31.387408,0.54176978 35.980887,0.5 240,0.5 444.01911,0.5 448.61259,0.54176978 453.739,2.4435884 464.17346,6.3146133 473.68539,15.826542 477.55641,26.261001 479.45823,31.387408 479.5,35.980887 479.5,240 c 0,204.01911 -0.0418,208.61259 -1.94359,213.739 -3.75116,10.11135 -12.95331,19.51574 -23.27059,23.78202 -4.71118,1.94812 -8.02208,1.98192 -212.28582,2.16746 -162.937905,0.148 -208.466407,-0.0789 -212,-1.05635 z" id="path3035"/>
    <path id="path3021" style="fill:#ffffff" d="M 346.65499,263.17126 C 345.17604,261.53704 345,257.2952 345,223.2937 c 0,-34.23441 0.16643,-38.1864 1.66012,-39.42126 2.42195,-2.00225 15.93571,-1.71678 19.99988,0.4225 4.17795,2.19916 8.78219,7.8999 10.19857,12.62734 0.71286,2.37933 1.14143,12.51437 1.14143,26.9934 0,24.93274 -0.0714,25.34151 -5.72962,32.78544 -5.4131,7.1215 -21.37679,11.15374 -25.61539,6.47014 z m -0.61981,111.89448 C 345.36875,373.82049 345,358.17257 345,331.13717 c 0,-35.61052 0.22342,-42.21773 1.46973,-43.46404 1.78412,-1.78412 12.16426,-3.12233 16.72447,-2.15612 5.05609,1.07127 10.09593,4.23314 12.62081,7.91796 3.48622,5.08782 4.37431,14.12064 4.0128,40.81445 -0.31039,22.9192 -0.4523,24.48245 -2.58489,28.47402 C 372.13012,372.29308 364.0902,377 352.85704,377 c -4.69766,0 -5.98149,-0.36401 -6.82186,-1.93426 z M 371.5,397.01583 c 8.0899,-3.13961 12.14387,-5.82645 17.56991,-11.64478 5.74918,-6.16484 9.31713,-12.28267 11.40179,-19.55021 1.38975,-4.84498 1.58491,-10.57348 1.32866,-39 L 401.5,293.5 l -2.68578,-5.09002 c -2.99024,-5.66703 -7.85265,-10.38532 -13.43002,-13.03196 -3.47373,-1.64839 -3.58183,-1.8344 -1.79056,-3.08101 8.82275,-6.14006 11.21882,-8.43727 13.90636,-13.33257 l 3,-5.46444 0.3255,-25.83806 c 0.36313,-28.82502 -0.41534,-36.17273 -4.81886,-45.48398 -3.63054,-7.67678 -9.08558,-13.10888 -17.13322,-17.06119 C 369.89002,160.7049 359.57526,159 341.86658,159 c -14.54746,0 -15.02478,0.0673 -17.41203,2.45455 L 322,163.90909 l 0.0222,115.29546 c 0.0208,107.73204 0.13557,115.43515 1.75,117.42501 0.95027,1.17126 2.40276,2.39765 3.22776,2.7253 0.825,0.32765 9.825,0.45933 20,0.29262 16.5564,-0.27127 19.13036,-0.54775 24.5,-2.63165 z M 249.69205,263.5492 C 248.16144,262.01859 248,258.19598 248,223.48528 l 0,-38.37187 2.22251,-1.55671 c 2.57526,-1.80378 7.29526,-1.97568 14.85942,-0.54116 6.19684,1.1752 10.76308,4.96712 13.97751,11.60725 1.91337,3.95249 2.01953,5.75585 1.73916,29.54333 L 280.5,249.5 l -3.2819,4.72654 c -4.56475,6.57408 -10.64704,9.92809 -19.10087,10.53296 -5.43462,0.38884 -7.05944,0.15544 -8.42518,-1.2103 z M 246,399.02163 c 1.29408,-0.81763 1.56864,-8.6001 2,-56.68999 l 0.5,-55.74226 2.5,-0.69501 c 1.375,-0.38225 5.44215,-0.73987 9.03811,-0.79469 8.8659,-0.13517 14.36189,2.64122 18.45026,9.32046 l 3.01163,4.92014 0.28654,49.02142 c 0.1952,33.39539 0.63268,49.4385 1.37244,50.32986 1.55243,1.87056 16.81023,1.78285 19.39989,-0.11152 1.87654,-1.37272 1.94113,-3.07806 1.94113,-51.25 0,-53.78058 -0.11409,-55.11829 -5.35883,-62.83004 -1.49622,-2.2 -5.17757,-5.47297 -8.18078,-7.27328 -3.00322,-1.8003 -5.57311,-3.60095 -5.71088,-4.00145 -0.13776,-0.40051 1.80855,-1.8205 4.32515,-3.15556 2.5166,-1.33505 6.13344,-4.24731 8.03742,-6.47169 6.03363,-7.04894 6.59862,-10.97044 6.17828,-42.88257 -0.35805,-27.18231 -0.46171,-28.44192 -2.83101,-34.40053 -4.79633,-12.06241 -11.61929,-18.7991 -23.56746,-23.26948 -8.04824,-3.01124 -16.36735,-4.02957 -32.9869,-4.03789 -14.08071,-0.007 -15.22302,0.13388 -17,2.09728 -1.84727,2.04106 -1.91298,5.65403 -2.16887,119.25 -0.24646,109.41419 -0.15135,117.22766 1.44113,118.39517 2.01751,1.4791 17.07662,1.6908 19.32275,0.27163 z m -40.41101,-1.47422 c 2.15132,-2.94211 2.11273,-233.70283 -0.0394,-235.85501 -2.9334,-2.9334 -16.84491,-3.24652 -20.29954,-0.45689 -0.9873,0.79725 -1.24678,25.62501 -1.23469,118.13693 0.008,64.42016 0.34592,117.62259 0.75,118.22762 1.29179,1.93421 3.55478,2.34661 11.57368,2.10916 6.42216,-0.19018 8.09401,-0.5809 9.25,-2.16181 z m -70.23966,1.50987 c 1.36374,-0.51849 2.73502,-1.75599 3.04727,-2.75 0.62068,-1.97578 13.02518,-100.87745 28.4276,-226.6545 1.02839,-8.39791 0.41952,-9.196 -7.73813,-10.14279 -6.62067,-0.76841 -11.38149,-0.0639 -13.03548,1.92905 -1.1095,1.33686 -2.85436,17.12028 -12.60911,114.05735 -3.04385,30.24802 -5.95589,55.41802 -6.47121,55.93334 -0.51531,0.51531 -1.28194,0.59292 -1.7036,0.17245 -0.42167,-0.42046 -4.18138,-38.5516 -8.35492,-84.73587 -6.37333,-70.52702 -7.85706,-84.24019 -9.26715,-85.65028 -1.806,-1.806 -14.405462,-2.99483 -19.141642,-1.80613 -2.182196,0.5477 -2.500147,1.17041 -2.481023,4.85915 0.01207,2.32702 6.253135,55.50159 13.869045,118.1657 C 115.79702,413.3105 112.89245,400 125.54568,400 c 4.02827,0 8.43991,-0.42422 9.80365,-0.94272 z"/>
    <path style="fill:#0aaed6;fill-opacity:1" d="m 205.42857,144.42857 c 1.24524,-1.24524 1.57143,-3.94372 1.57143,-13 L 207,120 l 12.46482,0 c 11.67982,0 12.53633,-0.13362 13.60035,-2.12177 1.66613,-3.11319 0.83726,-17.69648 -1.0745,-18.90516 C 231.1708,98.454726 225.2125,98.023735 218.75,98.015313 L 207,98 207,86.071429 C 207,71.091763 206.93076,71 195.62857,71 c -5.06667,0 -8.68968,0.461111 -9.42857,1.2 -0.80325,0.803252 -1.2,5.266667 -1.2,13.5 l 0,12.3 -11.30887,0 C 158.98488,98 158.75432,98.165326 158.6861,108.75931 158.61365,120.01061 158.60002,120 173.12244,120 L 185,120 l 0,11.8 c 0,7.84444 0.40226,12.20226 1.2,13 1.88769,1.88769 17.26652,1.59062 19.22857,-0.37143 z" id="path3013"/>
  </g>
</svg>